<?xml version="1.0" encoding="utf-8"?>
<!-- Generator: Adobe Illustrator 15.0.0, SVG Export Plug-In  -->
<!DOCTYPE svg PUBLIC "-//W3C//DTD SVG 1.1//EN" "http://www.w3.org/Graphics/SVG/1.1/DTD/svg11.dtd" [
	<!ENTITY ns_flows "http://ns.adobe.com/Flows/1.0/">
]>
<svg version="1.1"
	 xmlns="http://www.w3.org/2000/svg" xmlns:xlink="http://www.w3.org/1999/xlink" xmlns:a="http://ns.adobe.com/AdobeSVGViewerExtensions/3.0/"
	 x="0px" y="0px" width="814px" height="573px" viewBox="50.475 -481.5 814 573"
	 overflow="visible" enable-background="new 50.475 -481.5 814 573" xml:space="preserve">
<defs>
</defs>
<path fill="#006107" stroke="#000000" stroke-miterlimit="10" d="M49.975,0.5c45.287,0.142,92.785,19.813,136.573,30
	c27.484,6.394,55.667,1.303,83.604,0.226c32.295-1.244,63.026,14.317,94.55,15.997c25.096,1.337,51.165,7.869,76.45,4.845
	c12.427-1.485,22.313-9.9,34.493-12.845c11.586-2.802,24.372-5.389,36.357-6.271c27.918-2.055,59.284-3.428,87.099,0.273
	c26.552,3.534,53.071,12.017,79.899,12.774c28.839,0.814,51.372-2.888,76.192-15.829c18.763-9.783,38.103-12.163,58.829-15.394
	c9.572-1.492,23.439-1.697,32.298-4.951c6.204-2.28,9.449-7.004,16.654-7.878c13.502-1.638,15.367,10.613,20.268,21.606
	c4.881,10.952,4.329,22.832,4.78,34.755c0.671,17.688-8.222,30.595-10.09,47.694c-35.243-1.154-71.546,7-106.162,12.671
	c-32.888,5.387-66.108,6.543-99.366,6.409c-16.359-0.066-31.456-1.061-46.994-6.43c-10.367-3.581-12.248-3.77-24.678-2.418
	c-54.312,5.906-106.781-2.956-160.678-7.931c-34.214-3.157-68.587,0.774-102.78-1.477c-17.84-1.175-40.159,2.524-59.606,7.639
	c-57.296,15.07-125.393,15.196-183.368,0.277c-14.785-3.805-29.242-9.246-44.568-10.594c-10.38-0.913-21.896,1.308-32.103-1.13
	C-3.247,97.536-2.668,64.391,6.785,48.866C18.026,30.405,44.386,19.282,49.975,0.5"/>
</svg>
