<?xml version="1.0" encoding="utf-8"?>
<!-- Generator: Adobe Illustrator 15.0.0, SVG Export Plug-In  -->
<!DOCTYPE svg PUBLIC "-//W3C//DTD SVG 1.1//EN" "http://www.w3.org/Graphics/SVG/1.1/DTD/svg11.dtd" [
	<!ENTITY ns_flows "http://ns.adobe.com/Flows/1.0/">
]>
<svg version="1.1"
	 xmlns="http://www.w3.org/2000/svg" xmlns:xlink="http://www.w3.org/1999/xlink" xmlns:a="http://ns.adobe.com/AdobeSVGViewerExtensions/3.0/"
	 x="0px" y="0px" width="814px" height="573px" viewBox="-0.001 -1.858 814 573"
	 overflow="visible" enable-background="new -0.001 -1.858 814 573" xml:space="preserve">
<defs>
</defs>
<filter  id="myGaussianBlur">
	<feGaussianBlur  stdDeviation="2" in="SourceGraphic"></feGaussianBlur>
</filter>
<g filter="url(#myGaussianBlur)">
	<path fill="#F58345" d="M585.328,5.162c1.513,0,3.604,0.504,4.177,1.584h1.515c3.168,3.096,14.04,17.64,8.353,23.4
		c0,2.088-2.593,4.176-2.593,6.264c-0.504,0,0,1.584,0,2.088c0,0-4.176-2.592-4.68-2.592c0,0-2.595-2.664-3.168-2.664
		c0-0.504-0.507-1.008-0.507-1.512c-1.008,0,0-0.504-1.008-0.504c0,0.504,1.008,0,0-1.08c-1.08,0,0-0.504-1.08-0.504
		c0-1.08-1.584-2.088-1.584-3.168c-1.513,0-2.017-3.6-2.017-5.184c-3.168,0,0.504-13.032,0.504-14.04l0.505-0.504
		c1.008,0,0-0.576,1.008-0.576C584.75,6.746,583.744,6.169,585.328,5.162z"/>
	
		<path fill="none" stroke="#000000" stroke-width="0.7087" stroke-linecap="round" stroke-linejoin="round" stroke-miterlimit="10" d="
		M585.328,5.162c1.513,0,3.604,0.504,4.177,1.584h1.515c3.168,3.096,14.04,17.64,8.353,23.4c0,2.088-2.593,4.176-2.593,6.264
		c-0.504,0,0,1.584,0,2.088c0,0-4.176-2.592-4.68-2.592c0,0-2.595-2.664-3.168-2.664c0-0.504-0.507-1.008-0.507-1.512
		c-1.008,0,0-0.504-1.008-0.504c0,0.504,1.008,0,0-1.08c-1.08,0,0-0.504-1.08-0.504c0-1.08-1.584-2.088-1.584-3.168
		c-1.513,0-2.017-3.6-2.017-5.184c-3.168,0,0.504-13.032,0.504-14.04l0.505-0.504c1.008,0,0-0.576,1.008-0.576
		C584.75,6.746,583.744,6.169,585.328,5.162z"/>
</g>
<g filter="url(#myGaussianBlur)">
	<path fill="#F58345" d="M109.646,52.897c-1.584,0-3.744,0.576-4.319,1.656h-1.653c-3.24,3.24-14.616,18.432-8.643,24.408
		c0,2.16,2.663,4.32,2.663,6.552c0.576,0,0,1.584,0,2.16c0,0,4.396-2.736,4.896-2.736c0,0,2.733-2.736,3.312-2.736
		c0-0.504,0.505-1.08,0.505-1.584c1.079,0,0-0.576,1.079-0.576c0,0.576-1.079,0,0-1.08c1.08,0,0-0.504,1.08-0.504
		c0-1.152,1.656-2.232,1.656-3.312c1.584,0,2.16-3.744,2.16-5.4c3.237,0-0.576-13.608-0.576-14.688l-0.504-0.504
		c-1.08,0,0-0.576-1.08-0.576C110.222,54.554,111.302,53.978,109.646,52.897z"/>
	
		<path fill="none" stroke="#000000" stroke-width="0.7087" stroke-linecap="round" stroke-linejoin="round" stroke-miterlimit="10" d="
		M109.646,52.897c-1.584,0-3.744,0.576-4.319,1.656h-1.653c-3.24,3.24-14.616,18.432-8.643,24.408c0,2.16,2.663,4.32,2.663,6.552
		c0.576,0,0,1.584,0,2.16c0,0,4.396-2.736,4.896-2.736c0,0,2.733-2.736,3.312-2.736c0-0.504,0.505-1.08,0.505-1.584
		c1.079,0,0-0.576,1.079-0.576c0,0.576-1.079,0,0-1.08c1.08,0,0-0.504,1.08-0.504c0-1.152,1.656-2.232,1.656-3.312
		c1.584,0,2.16-3.744,2.16-5.4c3.237,0-0.576-13.608-0.576-14.688l-0.504-0.504c-1.08,0,0-0.576-1.08-0.576
		C110.222,54.554,111.302,53.978,109.646,52.897z"/>
</g>
<g filter="url(#myGaussianBlur)">
	<path fill="#F58345" d="M717.954,311.628c1.08,1.152,2.16,2.953,1.801,4.104l1.08,1.078c0,4.394-2.593,22.465-10.729,22.465
		c-1.439,1.438-4.752,1.079-6.267,2.521c-0.357-0.358-1.08,1.08-1.513,1.513c0,0-1.08-4.823-1.438-5.185c0,0,0-3.672-0.359-4.03
		c0.359-0.36,0.359-1.151,0.792-1.513c-0.792-0.722,0.357-0.36-0.433-1.08c-0.359,0.358,0.791,0.72,0.791-0.721
		c-0.721-0.791,0.358-0.359-0.358-1.152c0.72-0.719,0.358-2.592,1.08-3.312c-1.08-1.08,1.149-4.032,2.229-5.112
		c-2.229-2.23,9.576-8.854,10.367-9.574h0.721c0.723,0.793,0.359-0.359,1.08,0.359C716.441,312.422,716.081,311.27,717.954,311.628z
		"/>
	
		<path fill="none" stroke="#000000" stroke-width="0.7087" stroke-linecap="round" stroke-linejoin="round" stroke-miterlimit="10" d="
		M717.954,311.628c1.08,1.152,2.16,2.953,1.801,4.104l1.08,1.078c0,4.394-2.593,22.465-10.729,22.465
		c-1.439,1.438-4.752,1.079-6.267,2.521c-0.357-0.358-1.08,1.08-1.513,1.513c0,0-1.08-4.823-1.438-5.185c0,0,0-3.672-0.359-4.03
		c0.359-0.36,0.359-1.151,0.792-1.513c-0.792-0.722,0.357-0.36-0.433-1.08c-0.359,0.358,0.791,0.72,0.791-0.721
		c-0.721-0.791,0.358-0.359-0.358-1.152c0.72-0.719,0.358-2.592,1.08-3.312c-1.08-1.08,1.149-4.032,2.229-5.112
		c-2.229-2.23,9.576-8.854,10.367-9.574h0.721c0.723,0.793,0.359-0.359,1.08,0.359C716.441,312.422,716.081,311.27,717.954,311.628z
		"/>
</g>
<g filter="url(#myGaussianBlur)">
	<path fill="#F58345" d="M645.7,422.402c1.151,1.08,2.231,2.952,1.872,4.032l1.08,1.151c0,4.393-2.664,22.465-10.729,22.393
		c-1.513,1.514-4.822,1.08-6.265,2.592c-0.359-0.357-1.151,1.08-1.512,1.44c0,0-1.08-4.753-1.439-5.112c0,0,0-3.743-0.358-4.104
		c0.358-0.359,0.358-1.08,0.721-1.439c-0.721-0.72,0.357-0.357-0.359-1.08c-0.358,0.36,0.722,0.723,0.722-0.792
		c-0.722-0.72,0.433-0.357-0.359-1.08c0.792-0.72,0.433-2.592,1.15-3.312c-1.079-1.079,1.08-4.031,2.231-5.185
		c-2.231-2.159,9.575-8.783,10.296-9.506h0.792c0.72,0.723,0.359-0.357,1.08,0.36C644.257,423.122,643.9,422.042,645.7,422.402z"/>
	
		<path fill="none" stroke="#000000" stroke-width="0.7087" stroke-linecap="round" stroke-linejoin="round" stroke-miterlimit="10" d="
		M645.7,422.402c1.151,1.08,2.231,2.952,1.872,4.032l1.08,1.151c0,4.393-2.664,22.465-10.729,22.393
		c-1.513,1.514-4.822,1.08-6.265,2.592c-0.359-0.357-1.151,1.08-1.512,1.44c0,0-1.08-4.753-1.439-5.112c0,0,0-3.743-0.358-4.104
		c0.358-0.359,0.358-1.08,0.721-1.439c-0.721-0.72,0.357-0.357-0.359-1.08c-0.358,0.36,0.722,0.723,0.722-0.792
		c-0.722-0.72,0.433-0.357-0.359-1.08c0.792-0.72,0.433-2.592,1.15-3.312c-1.079-1.079,1.08-4.031,2.231-5.185
		c-2.231-2.159,9.575-8.783,10.296-9.506h0.792c0.72,0.723,0.359-0.357,1.08,0.36C644.257,423.122,643.9,422.042,645.7,422.402z"/>
</g>
<g filter="url(#myGaussianBlur)">
	<path fill="#F58345" d="M778.502,329.45c1.297-0.938,3.239-1.656,4.319-1.08l1.296-0.938c4.32,0.864,21.604,6.695,20.089,14.616
		c1.151,1.729,0.216,4.896,1.367,6.624c-0.432,0.287,0.938,1.296,1.226,1.729c0,0-4.896,0.217-5.326,0.504
		c0,0-3.674-0.646-4.104-0.359c-0.288-0.432-1.008-0.575-1.296-1.008c-0.863,0.576-0.288-0.434-1.151,0.145
		c0.288,0.434,0.863-0.575-0.573-0.864c-0.864,0.648-0.288-0.432-1.152,0.218c-0.576-0.862-2.447-0.862-3.096-1.729
		c-1.227,0.864-3.744-1.8-4.608-3.097c-2.592,1.729-6.983-11.016-7.56-11.881l0.144-0.719c0.864-0.576-0.288-0.435,0.576-1.011
		C778.936,331.034,777.784,331.178,778.502,329.45z"/>
	
		<path fill="none" stroke="#000000" stroke-width="0.7087" stroke-linecap="round" stroke-linejoin="round" stroke-miterlimit="10" d="
		M778.502,329.45c1.297-0.938,3.239-1.656,4.319-1.08l1.296-0.938c4.32,0.864,21.604,6.695,20.089,14.616
		c1.151,1.729,0.216,4.896,1.367,6.624c-0.432,0.287,0.938,1.296,1.226,1.729c0,0-4.896,0.217-5.326,0.504
		c0,0-3.674-0.646-4.104-0.359c-0.288-0.432-1.008-0.575-1.296-1.008c-0.863,0.576-0.288-0.434-1.151,0.145
		c0.288,0.434,0.863-0.575-0.573-0.864c-0.864,0.648-0.288-0.432-1.152,0.218c-0.576-0.862-2.447-0.862-3.096-1.729
		c-1.227,0.864-3.744-1.8-4.608-3.097c-2.592,1.729-6.983-11.016-7.56-11.881l0.144-0.719c0.864-0.576-0.288-0.435,0.576-1.011
		C778.936,331.034,777.784,331.178,778.502,329.45z"/>
</g>
<g filter="url(#myGaussianBlur)">
	<path fill="#F58345" d="M757.333,552.218c-0.145,1.584-0.937,3.6-2.017,3.96l-0.216,1.584c-3.456,2.736-19.227,11.808-24.192,5.472
		c-2.088-0.216-3.888-3.096-5.903-3.312c0.071-0.504-1.584-0.216-2.088-0.288c0,0,3.099-3.816,3.168-4.32
		c0,0,2.88-2.304,2.952-2.808c0.504,0.071,1.079-0.36,1.584-0.288c0.146-1.08,0.504,0,0.647-1.008
		c-0.504-0.072-0.146,1.008,1.008,0.144c0.145-1.08,0.576,0.072,0.646-1.008c1.08,0.144,2.306-1.296,3.312-1.152
		c0.145-1.584,3.889-1.653,5.4-1.438c0.356-3.1,12.888,2.016,13.896,2.159l0.434,0.573c-0.07,1.011,0.575,0.072,0.434,1.08
		C755.896,551.498,756.542,550.562,757.333,552.218z"/>
	
		<path fill="none" stroke="#000000" stroke-width="0.7087" stroke-linecap="round" stroke-linejoin="round" stroke-miterlimit="10" d="
		M757.333,552.218c-0.145,1.584-0.937,3.6-2.017,3.96l-0.216,1.584c-3.456,2.736-19.227,11.808-24.192,5.472
		c-2.088-0.216-3.888-3.096-5.903-3.312c0.071-0.504-1.584-0.216-2.088-0.288c0,0,3.099-3.816,3.168-4.32
		c0,0,2.88-2.304,2.952-2.808c0.504,0.071,1.079-0.36,1.584-0.288c0.146-1.08,0.504,0,0.647-1.008
		c-0.504-0.072-0.146,1.008,1.008,0.144c0.145-1.08,0.576,0.072,0.646-1.008c1.08,0.144,2.306-1.296,3.312-1.152
		c0.145-1.584,3.889-1.653,5.4-1.438c0.356-3.1,12.888,2.016,13.896,2.159l0.434,0.573c-0.07,1.011,0.575,0.072,0.434,1.08
		C755.896,551.498,756.542,550.562,757.333,552.218z"/>
</g>
<g filter="url(#myGaussianBlur)">
	<path fill="#F58345" d="M173.094,162.967c-0.504-1.584-1.729-3.456-2.952-3.6l-0.504-1.512c-4.177-2.088-22.248-7.92-25.92-0.36
		c-2.089,0.72-3.24,3.96-5.328,4.68c0.216,0.504-1.513,0.504-2.019,0.648c0,0,3.96,3.24,4.104,3.744c0,0,3.456,1.728,3.601,2.232
		c0.575-0.144,1.227,0.144,1.729,0c0.357,1.008,0.504-0.144,0.863,0.864c-0.506,0.144-0.359-1.008,1.078-0.36
		c0.288,1.008,0.506-0.144,0.863,0.864c1.009-0.36,2.521,0.864,3.604,0.504c0.504,1.512,4.247,0.792,5.831,0.288
		c1.009,3.096,12.673-4.896,13.681-5.256l0.358-0.648c-0.358-1.08,0.506-0.216,0.146-1.224
		C171.726,163.974,172.59,164.839,173.094,162.967z"/>
	
		<path fill="none" stroke="#000000" stroke-width="0.7087" stroke-linecap="round" stroke-linejoin="round" stroke-miterlimit="10" d="
		M173.094,162.967c-0.504-1.584-1.729-3.456-2.952-3.6l-0.504-1.512c-4.177-2.088-22.248-7.92-25.92-0.36
		c-2.089,0.72-3.24,3.96-5.328,4.68c0.216,0.504-1.513,0.504-2.019,0.648c0,0,3.96,3.24,4.104,3.744c0,0,3.456,1.728,3.601,2.232
		c0.575-0.144,1.227,0.144,1.729,0c0.357,1.008,0.504-0.144,0.863,0.864c-0.506,0.144-0.359-1.008,1.078-0.36
		c0.288,1.008,0.506-0.144,0.863,0.864c1.009-0.36,2.521,0.864,3.604,0.504c0.504,1.512,4.247,0.792,5.831,0.288
		c1.009,3.096,12.673-4.896,13.681-5.256l0.358-0.648c-0.358-1.08,0.506-0.216,0.146-1.224
		C171.726,163.974,172.59,164.839,173.094,162.967z"/>
</g>
<g filter="url(#myGaussianBlur)">
	<path fill="#F58345" d="M111.813,463.527c-1.151,1.151-2.376,3.023-2.088,4.179l-1.151,1.079
		c-0.217,4.605,1.584,23.544,10.008,23.901c1.514,1.584,4.97,1.368,6.408,2.952c0.434-0.359,1.151,1.225,1.512,1.584
		c0,0,1.368-4.896,1.729-5.256c0,0,0.217-3.815,0.576-4.176c-0.359-0.435-0.288-1.227-0.647-1.584
		c0.792-0.723-0.433-0.435,0.434-1.152c0.358,0.433-0.863,0.721-0.792-0.792c0.862-0.72-0.359-0.432,0.433-1.151
		c-0.721-0.792-0.216-2.664-0.937-3.525c1.15-1.08-1.01-4.248-2.09-5.475c2.376-2.158-9.574-9.646-10.296-10.438h-0.792
		c-0.792,0.72-0.358-0.435-1.15,0.288C113.326,464.391,113.757,463.239,111.813,463.527z"/>
	
		<path fill="none" stroke="#000000" stroke-width="0.7087" stroke-linecap="round" stroke-linejoin="round" stroke-miterlimit="10" d="
		M111.813,463.527c-1.151,1.151-2.376,3.023-2.088,4.179l-1.151,1.079c-0.217,4.605,1.584,23.544,10.008,23.901
		c1.514,1.584,4.97,1.368,6.408,2.952c0.434-0.359,1.151,1.225,1.512,1.584c0,0,1.368-4.896,1.729-5.256
		c0,0,0.217-3.815,0.576-4.176c-0.359-0.435-0.288-1.227-0.647-1.584c0.792-0.723-0.433-0.435,0.434-1.152
		c0.358,0.433-0.863,0.721-0.792-0.792c0.862-0.72-0.359-0.432,0.433-1.151c-0.721-0.792-0.216-2.664-0.937-3.525
		c1.15-1.08-1.01-4.248-2.09-5.475c2.376-2.158-9.574-9.646-10.296-10.438h-0.792c-0.792,0.72-0.358-0.435-1.15,0.288
		C113.326,464.391,113.757,463.239,111.813,463.527z"/>
</g>
<g filter="url(#myGaussianBlur)">
	<path fill="#F58345" d="M739.697,430.754c0.433,1.512,0.433,3.672-0.432,4.464l0.432,1.512
		c-2.16,3.816-13.248,18.288-20.304,14.328c-2.02,0.504-4.752-1.438-6.771-0.864c-0.144-0.504-1.438,0.436-1.941,0.576
		c0,0,1.366-4.752,1.225-5.256c0,0,1.8-3.168,1.656-3.672c0.504-0.146,0.861-0.792,1.366-0.938
		c-0.286-1.008,0.506-0.144,0.218-1.148c-0.504,0.144,0.288,1.008,1.008-0.288c-0.288-0.938,0.504-0.072,0.216-1.08
		c1.009-0.288,1.584-2.088,2.593-2.376c-0.433-1.512,2.951-2.952,4.464-3.384c-0.861-3.024,12.672-3.024,13.683-3.312l0.646,0.36
		c0.287,1.008,0.504-0.146,0.792,0.863C738.04,430.682,738.254,429.529,739.697,430.754z"/>
	
		<path fill="none" stroke="#000000" stroke-width="0.7087" stroke-linecap="round" stroke-linejoin="round" stroke-miterlimit="10" d="
		M739.697,430.754c0.433,1.512,0.433,3.672-0.432,4.464l0.432,1.512c-2.16,3.816-13.248,18.288-20.304,14.328
		c-2.02,0.504-4.752-1.438-6.771-0.864c-0.144-0.504-1.438,0.436-1.941,0.576c0,0,1.366-4.752,1.225-5.256
		c0,0,1.8-3.168,1.656-3.672c0.504-0.146,0.861-0.792,1.366-0.938c-0.286-1.008,0.506-0.144,0.218-1.148
		c-0.504,0.144,0.288,1.008,1.008-0.288c-0.288-0.938,0.504-0.072,0.216-1.08c1.009-0.288,1.584-2.088,2.593-2.376
		c-0.433-1.512,2.951-2.952,4.464-3.384c-0.861-3.024,12.672-3.024,13.683-3.312l0.646,0.36c0.287,1.008,0.504-0.146,0.792,0.863
		C738.04,430.682,738.254,429.529,739.697,430.754z"/>
</g>
<g filter="url(#myGaussianBlur)">
	<path fill="#F58345" d="M655.744,560.857c-0.792,1.296-2.304,2.812-3.456,2.736l-0.792,1.368
		c-4.247,1.08-22.392,3.021-24.407-4.824c-1.801-1.08-2.229-4.393-4.029-5.4c0.286-0.504-1.299-0.86-1.803-1.08
		c0,0,4.395-2.304,4.683-2.732c0,0,3.525-0.864,3.813-1.368c0.435,0.288,1.151,0.146,1.584,0.36
		c0.575-0.864,0.435,0.288,1.008-0.576c-0.433-0.288-0.573,0.864,0.863,0.504c0.576-0.864,0.505,0.288,1.009-0.648
		c0.863,0.576,2.595-0.285,3.456,0.288c0.792-1.364,4.248,0.072,5.544,0.864c1.584-2.664,10.943,7.128,11.811,7.632l0.216,0.724
		c-0.576,0.86,0.433,0.287-0.071,1.148C654.665,559.562,655.67,558.985,655.744,560.857z"/>
	
		<path fill="none" stroke="#000000" stroke-width="0.7087" stroke-linecap="round" stroke-linejoin="round" stroke-miterlimit="10" d="
		M655.744,560.857c-0.792,1.296-2.304,2.812-3.456,2.736l-0.792,1.368c-4.247,1.08-22.392,3.021-24.407-4.824
		c-1.801-1.08-2.229-4.393-4.029-5.4c0.286-0.504-1.299-0.86-1.803-1.08c0,0,4.395-2.304,4.683-2.732c0,0,3.525-0.864,3.813-1.368
		c0.435,0.288,1.151,0.146,1.584,0.36c0.575-0.864,0.435,0.288,1.008-0.576c-0.433-0.288-0.573,0.864,0.863,0.504
		c0.576-0.864,0.505,0.288,1.009-0.648c0.863,0.576,2.595-0.285,3.456,0.288c0.792-1.364,4.248,0.072,5.544,0.864
		c1.584-2.664,10.943,7.128,11.811,7.632l0.216,0.724c-0.576,0.86,0.433,0.287-0.071,1.148
		C654.665,559.562,655.67,558.985,655.744,560.857z"/>
</g>
<g filter="url(#myGaussianBlur)">
	<path fill="#F58345" d="M273.64,552.826c0.433,1.584,1.438,3.525,2.664,3.741l0.432,1.584c3.96,2.376,21.528,9.576,25.776,2.308
		c2.088-0.505,3.524-3.673,5.613-4.248c-0.145-0.504,1.584-0.36,2.159-0.504c0,0-3.743-3.528-3.888-4.104
		c0,0-3.312-1.941-3.456-2.448c-0.504,0.146-1.151-0.216-1.656-0.144c-0.288-1.008-0.575,0.144-0.863-0.864
		c0.575-0.144,0.288,1.008-1.009,0.216c-0.287-1.008-0.504,0.146-0.792-0.86c-1.079,0.216-2.52-1.08-3.6-0.792
		c-0.359-1.584-4.176-1.152-5.76-0.724c-0.864-3.168-13.032,3.892-14.04,4.18l-0.435,0.646c0.288,1.08-0.504,0.146-0.217,1.227
		C275.081,551.89,274.289,550.954,273.64,552.826z"/>
	
		<path fill="none" stroke="#000000" stroke-width="0.7087" stroke-linecap="round" stroke-linejoin="round" stroke-miterlimit="10" d="
		M273.64,552.826c0.433,1.584,1.438,3.525,2.664,3.741l0.432,1.584c3.96,2.376,21.528,9.576,25.776,2.308
		c2.088-0.505,3.524-3.673,5.613-4.248c-0.145-0.504,1.584-0.36,2.159-0.504c0,0-3.743-3.528-3.888-4.104
		c0,0-3.312-1.941-3.456-2.448c-0.504,0.146-1.151-0.216-1.656-0.144c-0.288-1.008-0.575,0.144-0.863-0.864
		c0.575-0.144,0.288,1.008-1.009,0.216c-0.287-1.008-0.504,0.146-0.792-0.86c-1.079,0.216-2.52-1.08-3.6-0.792
		c-0.359-1.584-4.176-1.152-5.76-0.724c-0.864-3.168-13.032,3.892-14.04,4.18l-0.435,0.646c0.288,1.08-0.504,0.146-0.217,1.227
		C275.081,551.89,274.289,550.954,273.64,552.826z"/>
</g>
<g filter="url(#myGaussianBlur)">
	<path fill="#F58345" d="M3.928,229.37c1.296,1.008,3.312,1.872,4.392,1.296l1.368,1.008c4.536-0.648,22.752-6.048,21.528-14.4
		c1.296-1.728,0.432-5.112,1.728-6.84c-0.432-0.288,1.009-1.296,1.297-1.728c0,0-5.109-0.432-5.544-0.72
		c0,0-3.744,0.504-4.177,0.216c-0.359,0.432-1.08,0.504-1.439,0.936c-0.861-0.648-0.288,0.432-1.225-0.216
		c0.36-0.432,0.937,0.647-0.647,0.864c-0.861-0.648-0.285,0.432-1.149-0.216c-0.647,0.864-2.592,0.792-3.24,1.656
		c-1.296-1.008-4.031,1.728-5.04,3.024c-2.592-1.944-7.632,11.232-8.279,12.096l0.071,0.72c0.864,0.72-0.287,0.504,0.576,1.152
		C4.432,227.786,3.282,227.569,3.928,229.37z"/>
	
		<path fill="none" stroke="#000000" stroke-width="0.7087" stroke-linecap="round" stroke-linejoin="round" stroke-miterlimit="10" d="
		M3.928,229.37c1.296,1.008,3.312,1.872,4.392,1.296l1.368,1.008c4.536-0.648,22.752-6.048,21.528-14.4
		c1.296-1.728,0.432-5.112,1.728-6.84c-0.432-0.288,1.009-1.296,1.297-1.728c0,0-5.109-0.432-5.544-0.72
		c0,0-3.744,0.504-4.177,0.216c-0.359,0.432-1.08,0.504-1.439,0.936c-0.861-0.648-0.288,0.432-1.225-0.216
		c0.36-0.432,0.937,0.647-0.647,0.864c-0.861-0.648-0.285,0.432-1.149-0.216c-0.647,0.864-2.592,0.792-3.24,1.656
		c-1.296-1.008-4.031,1.728-5.04,3.024c-2.592-1.944-7.632,11.232-8.279,12.096l0.071,0.72c0.864,0.72-0.287,0.504,0.576,1.152
		C4.432,227.786,3.282,227.569,3.928,229.37z"/>
</g>
<g filter="url(#myGaussianBlur)">
	<path fill="#F58345" d="M7.487,138.938c-1.151,0.936-2.376,2.448-2.159,3.528l-1.152,0.864c-0.432,4.032-0.072,20.808,7.344,21.672
		c1.152,1.512,4.248,1.584,5.4,3.096c0.359-0.36,0.864,1.08,1.152,1.512c0,0,1.584-4.248,1.94-4.608c0,0,0.436-3.312,0.792-3.6
		c-0.288-0.432-0.216-1.08-0.504-1.44c0.723-0.576-0.288-0.36,0.435-1.008c0.288,0.432-0.723,0.648-0.575-0.72
		c0.72-0.576-0.288-0.36,0.432-1.008c-0.576-0.72,0-2.376-0.646-3.096c1.149-0.936-0.575-3.816-1.439-4.968
		c2.304-1.8-7.776-9.144-8.353-9.864l-0.647-0.072c-0.792,0.576-0.288-0.432-1.08,0.216C8.71,139.802,9.214,138.793,7.487,138.938z"
		/>
	
		<path fill="none" stroke="#000000" stroke-width="0.7087" stroke-linecap="round" stroke-linejoin="round" stroke-miterlimit="10" d="
		M7.487,138.938c-1.151,0.936-2.376,2.448-2.159,3.528l-1.152,0.864c-0.432,4.032-0.072,20.808,7.344,21.672
		c1.152,1.512,4.248,1.584,5.4,3.096c0.359-0.36,0.864,1.08,1.152,1.512c0,0,1.584-4.248,1.94-4.608c0,0,0.436-3.312,0.792-3.6
		c-0.288-0.432-0.216-1.08-0.504-1.44c0.723-0.576-0.288-0.36,0.435-1.008c0.288,0.432-0.723,0.648-0.575-0.72
		c0.72-0.576-0.288-0.36,0.432-1.008c-0.576-0.72,0-2.376-0.646-3.096c1.149-0.936-0.575-3.816-1.439-4.968
		c2.304-1.8-7.776-9.144-8.353-9.864l-0.647-0.072c-0.792,0.576-0.288-0.432-1.08,0.216C8.71,139.802,9.214,138.793,7.487,138.938z"
		/>
</g>
<g filter="url(#myGaussianBlur)">
	<path fill="#F58345" d="M401.657,554.626c-0.432,1.584-1.512,3.524-2.664,3.812l-0.432,1.516
		c-3.96,2.375-21.528,9.646-25.776,2.304c-2.159-0.504-3.527-3.672-5.688-4.248c0.144-0.504-1.584-0.36-2.091-0.504
		c0,0,3.744-3.528,3.891-4.032c0,0,3.312-2.016,3.384-2.52c0.576,0.144,1.225-0.22,1.729-0.072c0.288-1.08,0.507,0.072,0.792-0.938
		c-0.504-0.144-0.285,1.011,1.08,0.288c0.288-1.08,0.504,0.072,0.792-0.936c1.08,0.288,2.521-1.08,3.527-0.792
		c0.433-1.584,4.248-1.152,5.832-0.72c0.792-3.169,13.032,3.888,14.04,4.176l0.433,0.646c-0.288,1.079,0.504,0.146,0.219,1.227
		C400.214,553.689,401.006,552.754,401.657,554.626z"/>
	
		<path fill="none" stroke="#000000" stroke-width="0.7087" stroke-linecap="round" stroke-linejoin="round" stroke-miterlimit="10" d="
		M401.657,554.626c-0.432,1.584-1.512,3.524-2.664,3.812l-0.432,1.516c-3.96,2.375-21.528,9.646-25.776,2.304
		c-2.159-0.504-3.527-3.672-5.688-4.248c0.144-0.504-1.584-0.36-2.091-0.504c0,0,3.744-3.528,3.891-4.032
		c0,0,3.312-2.016,3.384-2.52c0.576,0.144,1.225-0.22,1.729-0.072c0.288-1.08,0.507,0.072,0.792-0.938
		c-0.504-0.144-0.285,1.011,1.08,0.288c0.288-1.08,0.504,0.072,0.792-0.936c1.08,0.288,2.521-1.08,3.527-0.792
		c0.433-1.584,4.248-1.152,5.832-0.72c0.792-3.169,13.032,3.888,14.04,4.176l0.433,0.646c-0.288,1.079,0.504,0.146,0.219,1.227
		C400.214,553.689,401.006,552.754,401.657,554.626z"/>
</g>
<g filter="url(#myGaussianBlur)">
	<path fill="#F58345" d="M720.785,392.108c0.433,1.512,0.505,3.602-0.359,4.395l0.434,1.512
		c-2.23,3.891-13.319,18.288-20.376,14.328c-2.018,0.576-4.681-1.368-6.695-0.863c-0.145-0.505-1.513,0.434-2.017,0.575
		c0,0,1.367-4.683,1.225-5.187c0,0,1.872-3.237,1.729-3.742c0.504-0.145,0.862-0.791,1.366-0.938
		c-0.288-1.008,0.506-0.145,0.218-1.15c-0.506,0.146,0.288,1.01,1.008-0.215c-0.288-1.01,0.505-0.146,0.217-1.151
		c1.009-0.288,1.584-2.089,2.593-2.376c-0.434-1.514,2.951-2.952,4.464-3.385c-0.862-3.023,12.672-3.023,13.682-3.312l0.574,0.434
		c0.288,0.938,0.505-0.146,0.792,0.863C719.127,391.964,719.344,390.884,720.785,392.108z"/>
	
		<path fill="none" stroke="#000000" stroke-width="0.7087" stroke-linecap="round" stroke-linejoin="round" stroke-miterlimit="10" d="
		M720.785,392.108c0.433,1.512,0.505,3.602-0.359,4.395l0.434,1.512c-2.23,3.891-13.319,18.288-20.376,14.328
		c-2.018,0.576-4.681-1.368-6.695-0.863c-0.145-0.505-1.513,0.434-2.017,0.575c0,0,1.367-4.683,1.225-5.187
		c0,0,1.872-3.237,1.729-3.742c0.504-0.145,0.862-0.791,1.366-0.938c-0.288-1.008,0.506-0.145,0.218-1.15
		c-0.506,0.146,0.288,1.01,1.008-0.215c-0.288-1.01,0.505-0.146,0.217-1.151c1.009-0.288,1.584-2.089,2.593-2.376
		c-0.434-1.514,2.951-2.952,4.464-3.385c-0.862-3.023,12.672-3.023,13.682-3.312l0.574,0.434c0.288,0.938,0.505-0.146,0.792,0.863
		C719.127,391.964,719.344,390.884,720.785,392.108z"/>
</g>
<g filter="url(#myGaussianBlur)">
	<path fill="#F58345" d="M485.104,440.474c-1.515,0.504-3.387,1.729-3.603,2.952l-1.513,0.504
		c-2.088,4.104-8.062,22.104-0.576,25.92c0.721,2.019,3.961,3.24,4.684,5.328c0.504-0.216,0.504,1.512,0.646,2.016
		c0,0,3.312-3.96,3.816-4.104c0,0,1.728-3.456,2.229-3.604c-0.216-0.504,0.146-1.224,0-1.728c1.009-0.36-0.216-0.504,0.864-0.864
		c0.145,0.504-1.08,0.36-0.359-1.008c1.011-0.36-0.145-0.504,0.863-0.864c-0.359-1.008,0.864-2.592,0.504-3.6
		c1.584-0.504,0.864-4.32,0.36-5.832c3.096-1.008-4.824-12.744-5.187-13.752l-0.646-0.36c-1.008,0.36-0.216-0.504-1.227-0.144
		C486.184,441.842,486.976,440.978,485.104,440.474z"/>
	
		<path fill="none" stroke="#000000" stroke-width="0.7087" stroke-linecap="round" stroke-linejoin="round" stroke-miterlimit="10" d="
		M485.104,440.474c-1.515,0.504-3.387,1.729-3.603,2.952l-1.513,0.504c-2.088,4.104-8.062,22.104-0.576,25.92
		c0.721,2.019,3.961,3.24,4.684,5.328c0.504-0.216,0.504,1.512,0.646,2.016c0,0,3.312-3.96,3.816-4.104c0,0,1.728-3.456,2.229-3.604
		c-0.216-0.504,0.146-1.224,0-1.728c1.009-0.36-0.216-0.504,0.864-0.864c0.145,0.504-1.08,0.36-0.359-1.008
		c1.011-0.36-0.145-0.504,0.863-0.864c-0.359-1.008,0.864-2.592,0.504-3.6c1.584-0.504,0.864-4.32,0.36-5.832
		c3.096-1.008-4.824-12.744-5.187-13.752l-0.646-0.36c-1.008,0.36-0.216-0.504-1.227-0.144
		C486.184,441.842,486.976,440.978,485.104,440.474z"/>
</g>
<g filter="url(#myGaussianBlur)">
	<path fill="#F58345" d="M647.174,7.394c1.515-0.504,3.603-0.576,4.467,0.216l1.438-0.432c3.961,2.016,18.721,12.744,14.904,19.872
		c0.646,2.016-1.227,4.752-0.647,6.768c-0.433,0.144,0.504,1.512,0.647,2.016c0,0-4.752-1.296-5.256-1.152
		c0,0-3.24-1.728-3.744-1.512c-0.146-0.504-0.792-0.864-0.938-1.368c-1.009,0.288-0.217-0.504-1.149-0.216
		c0.144,0.504,0.937-0.288-0.36-0.936c-0.936,0.288-0.144-0.504-1.149-0.216c-0.288-1.008-2.09-1.512-2.377-2.52
		c-1.514,0.432-3.098-2.88-3.526-4.392c-3.023,0.936-3.384-12.528-3.672-13.536l0.357-0.648c0.938-0.36-0.145-0.504,0.792-0.792
		C647.104,8.978,646.024,8.833,647.174,7.394z"/>
	
		<path fill="none" stroke="#000000" stroke-width="0.7087" stroke-linecap="round" stroke-linejoin="round" stroke-miterlimit="10" d="
		M647.174,7.394c1.515-0.504,3.603-0.576,4.467,0.216l1.438-0.432c3.961,2.016,18.721,12.744,14.904,19.872
		c0.646,2.016-1.227,4.752-0.647,6.768c-0.433,0.144,0.504,1.512,0.647,2.016c0,0-4.752-1.296-5.256-1.152
		c0,0-3.24-1.728-3.744-1.512c-0.146-0.504-0.792-0.864-0.938-1.368c-1.009,0.288-0.217-0.504-1.149-0.216
		c0.144,0.504,0.937-0.288-0.36-0.936c-0.936,0.288-0.144-0.504-1.149-0.216c-0.288-1.008-2.09-1.512-2.377-2.52
		c-1.514,0.432-3.098-2.88-3.526-4.392c-3.023,0.936-3.384-12.528-3.672-13.536l0.357-0.648c0.938-0.36-0.145-0.504,0.792-0.792
		C647.104,8.978,646.024,8.833,647.174,7.394z"/>
</g>
<g filter="url(#myGaussianBlur)">
	<path fill="#F58345" d="M193.505,16.466c-1.368-0.936-3.456-1.728-4.536-1.152l-1.296-0.936
		c-4.536,0.792-22.608,6.696-21.168,15.048c-1.228,1.728-0.288,5.112-1.515,6.84c0.435,0.36-0.937,1.368-1.225,1.8
		c0,0,5.112,0.288,5.544,0.576c0,0,3.816-0.648,4.248-0.36c0.288-0.432,1.08-0.576,1.368-1.008c0.862,0.648,0.288-0.432,1.224,0.216
		c-0.357,0.432-0.936-0.648,0.576-0.936c0.937,0.648,0.36-0.432,1.225,0.216c0.647-0.936,2.595-0.864,3.168-1.728
		c1.367,0.936,3.96-1.872,4.896-3.24c2.664,1.872,7.344-11.376,7.992-12.312l-0.146-0.72c-0.862-0.648,0.36-0.432-0.575-1.08
		C193,18.122,194.224,18.337,193.505,16.466z"/>
	
		<path fill="none" stroke="#000000" stroke-width="0.7087" stroke-linecap="round" stroke-linejoin="round" stroke-miterlimit="10" d="
		M193.505,16.466c-1.368-0.936-3.456-1.728-4.536-1.152l-1.296-0.936c-4.536,0.792-22.608,6.696-21.168,15.048
		c-1.228,1.728-0.288,5.112-1.515,6.84c0.435,0.36-0.937,1.368-1.225,1.8c0,0,5.112,0.288,5.544,0.576c0,0,3.816-0.648,4.248-0.36
		c0.288-0.432,1.08-0.576,1.368-1.008c0.862,0.648,0.288-0.432,1.224,0.216c-0.357,0.432-0.936-0.648,0.576-0.936
		c0.937,0.648,0.36-0.432,1.225,0.216c0.647-0.936,2.595-0.864,3.168-1.728c1.367,0.936,3.96-1.872,4.896-3.24
		c2.664,1.872,7.344-11.376,7.992-12.312l-0.146-0.72c-0.862-0.648,0.36-0.432-0.575-1.08C193,18.122,194.224,18.337,193.505,16.466
		z"/>
</g>
<g filter="url(#myGaussianBlur)">
	<path fill="#F58345" d="M402.59,13.946c-0.357-1.584-1.365-3.6-2.521-3.888l-0.359-1.584c-3.889-2.448-21.168-10.368-25.704-3.312
		c-2.157,0.504-3.672,3.6-5.832,4.032c0.146,0.576-1.584,0.36-2.088,0.504c0,0,3.603,3.672,3.672,4.176c0,0,3.24,2.088,3.387,2.592
		c0.504-0.072,1.149,0.288,1.653,0.216c0.288,1.008,0.576-0.144,0.792,0.936c-0.504,0.072-0.216-1.08,1.08-0.216
		c0.219,1.008,0.504-0.144,0.723,0.936c1.08-0.216,2.445,1.152,3.525,0.864c0.359,1.584,4.178,1.368,5.762,1.008
		c0.721,3.168,13.177-3.456,14.257-3.672l0.357-0.648c-0.217-1.008,0.575-0.072,0.359-1.152
		C401.08,14.882,401.872,15.817,402.59,13.946z"/>
	
		<path fill="none" stroke="#000000" stroke-width="0.7087" stroke-linecap="round" stroke-linejoin="round" stroke-miterlimit="10" d="
		M402.59,13.946c-0.357-1.584-1.365-3.6-2.521-3.888l-0.359-1.584c-3.889-2.448-21.168-10.368-25.704-3.312
		c-2.157,0.504-3.672,3.6-5.832,4.032c0.146,0.576-1.584,0.36-2.088,0.504c0,0,3.603,3.672,3.672,4.176c0,0,3.24,2.088,3.387,2.592
		c0.504-0.072,1.149,0.288,1.653,0.216c0.288,1.008,0.576-0.144,0.792,0.936c-0.504,0.072-0.216-1.08,1.08-0.216
		c0.219,1.008,0.504-0.144,0.723,0.936c1.08-0.216,2.445,1.152,3.525,0.864c0.359,1.584,4.178,1.368,5.762,1.008
		c0.721,3.168,13.177-3.456,14.257-3.672l0.357-0.648c-0.217-1.008,0.575-0.072,0.359-1.152
		C401.08,14.882,401.872,15.817,402.59,13.946z"/>
</g>
<g filter="url(#myGaussianBlur)">
	<path fill="#F58345" d="M32.365,435.032c-1.15,1.079-2.376,2.951-2.018,4.179l-1.226,1.08c-0.146,4.604,1.942,23.472,10.368,23.76
		c1.514,1.584,4.968,1.296,6.479,2.88c0.358-0.36,1.08,1.224,1.438,1.584c0,0,1.367-4.896,1.729-5.328c0,0,0.146-3.812,0.504-4.176
		c-0.358-0.432-0.288-1.152-0.72-1.584c0.792-0.72-0.36-0.36,0.432-1.152c0.36,0.436-0.792,0.792-0.72-0.792
		c0.792-0.72-0.36-0.356,0.432-1.08c-0.792-0.792-0.287-2.732-1.079-3.524c1.227-1.08-1.009-4.248-2.089-5.4
		c2.376-2.229-9.72-9.576-10.438-10.368h-0.792c-0.792,0.724-0.358-0.432-1.15,0.36C33.876,435.825,34.308,434.673,32.365,435.032z"
		/>
	
		<path fill="none" stroke="#000000" stroke-width="0.7087" stroke-linecap="round" stroke-linejoin="round" stroke-miterlimit="10" d="
		M32.365,435.032c-1.15,1.079-2.376,2.951-2.018,4.179l-1.226,1.08c-0.146,4.604,1.942,23.472,10.368,23.76
		c1.514,1.584,4.968,1.296,6.479,2.88c0.358-0.36,1.08,1.224,1.438,1.584c0,0,1.367-4.896,1.729-5.328c0,0,0.146-3.812,0.504-4.176
		c-0.358-0.432-0.288-1.152-0.72-1.584c0.792-0.72-0.36-0.36,0.432-1.152c0.36,0.436-0.792,0.792-0.72-0.792
		c0.792-0.72-0.36-0.356,0.432-1.08c-0.792-0.792-0.287-2.732-1.079-3.524c1.227-1.08-1.009-4.248-2.089-5.4
		c2.376-2.229-9.72-9.576-10.438-10.368h-0.792c-0.792,0.724-0.358-0.432-1.15,0.36C33.876,435.825,34.308,434.673,32.365,435.032z"
		/>
</g>
<g filter="url(#myGaussianBlur)">
	<path fill="#F58345" d="M372.817,442.767c1.149,1.079,2.304,2.88,1.941,4.032l1.151,1.008c0.146,4.464-1.872,22.535-9.937,22.824
		c-1.439,1.512-4.752,1.224-6.191,2.808c-0.359-0.357-1.08,1.08-1.439,1.514c0,0-1.225-4.753-1.584-5.111
		c0,0-0.145-3.672-0.504-4.031c0.359-0.432,0.288-1.151,0.647-1.512c-0.721-0.722,0.359-0.36-0.359-1.08
		c-0.358,0.359,0.722,0.72,0.722-0.793c-0.792-0.72,0.286-0.359-0.435-1.08c0.721-0.791,0.288-2.592,1.009-3.312
		c-1.15-1.078,0.938-4.104,2.018-5.257c-2.306-2.159,9.288-9.144,10.009-9.937h0.721c0.792,0.721,0.359-0.359,1.15,0.358
		C371.375,443.559,370.945,442.479,372.817,442.767z"/>
	
		<path fill="none" stroke="#000000" stroke-width="0.7087" stroke-linecap="round" stroke-linejoin="round" stroke-miterlimit="10" d="
		M372.817,442.767c1.149,1.079,2.304,2.88,1.941,4.032l1.151,1.008c0.146,4.464-1.872,22.535-9.937,22.824
		c-1.439,1.512-4.752,1.224-6.191,2.808c-0.359-0.357-1.08,1.08-1.439,1.514c0,0-1.225-4.753-1.584-5.111
		c0,0-0.145-3.672-0.504-4.031c0.359-0.432,0.288-1.151,0.647-1.512c-0.721-0.722,0.359-0.36-0.359-1.08
		c-0.358,0.359,0.722,0.72,0.722-0.793c-0.792-0.72,0.286-0.359-0.435-1.08c0.721-0.791,0.288-2.592,1.009-3.312
		c-1.15-1.078,0.938-4.104,2.018-5.257c-2.306-2.159,9.288-9.144,10.009-9.937h0.721c0.792,0.721,0.359-0.359,1.15,0.358
		C371.375,443.559,370.945,442.479,372.817,442.767z"/>
</g>
<g filter="url(#myGaussianBlur)">
	<path fill="#F58345" d="M694.192,494.113c0,1.585-0.504,3.675-1.512,4.18v1.584c-3.1,3.168-17.568,14.256-23.328,8.564
		c-2.088,0-4.179-2.592-6.268-2.52c0-0.576-1.584,0-2.088,0c0,0,2.521-4.177,2.521-4.752c0,0,2.592-2.593,2.592-3.098
		c0.504,0,1.008-0.574,1.584-0.574c0-1.012,0.504,0,0.504-1.012c-0.504,0,0,1.012,1.008,0c0-1.077,0.504-0.068,0.504-1.077
		c1.08,0,2.089-1.584,3.1-1.584c0-1.585,3.672-2.091,5.256-2.159c-0.072-3.1,12.96,0.432,14.04,0.432l0.504,0.504
		c0,1.008,0.504,0,0.576,1.008C692.608,493.609,693.113,492.602,694.192,494.113z"/>
	
		<path fill="none" stroke="#000000" stroke-width="0.7087" stroke-linecap="round" stroke-linejoin="round" stroke-miterlimit="10" d="
		M694.192,494.113c0,1.585-0.504,3.675-1.512,4.18v1.584c-3.1,3.168-17.568,14.256-23.328,8.564c-2.088,0-4.179-2.592-6.268-2.52
		c0-0.576-1.584,0-2.088,0c0,0,2.521-4.177,2.521-4.752c0,0,2.592-2.593,2.592-3.098c0.504,0,1.008-0.574,1.584-0.574
		c0-1.012,0.504,0,0.504-1.012c-0.504,0,0,1.012,1.008,0c0-1.077,0.504-0.068,0.504-1.077c1.08,0,2.089-1.584,3.1-1.584
		c0-1.585,3.672-2.091,5.256-2.159c-0.072-3.1,12.96,0.432,14.04,0.432l0.504,0.504c0,1.008,0.504,0,0.576,1.008
		C692.608,493.609,693.113,492.602,694.192,494.113z"/>
</g>
<g filter="url(#myGaussianBlur)">
	<path fill="#F58345" d="M473.44,537.025c-0.864,1.368-1.512,3.528-0.938,4.536l-0.792,1.368
		c1.008,4.536,7.991,22.176,16.199,20.231c1.872,1.149,5.112,0,6.984,1.149c0.288-0.504,1.368,0.864,1.8,1.08
		c0,0,0-5.109,0.288-5.544c0,0-0.864-3.744-0.576-4.176c-0.504-0.288-0.647-1.08-1.151-1.368c0.575-0.864-0.433-0.288,0.146-1.152
		c0.433,0.288-0.576,0.864-0.938-0.573c0.575-0.938-0.433-0.287,0.071-1.227c-0.863-0.576-0.936-2.52-1.872-3.096
		c0.864-1.368-2.088-3.889-3.456-4.681c1.656-2.811-11.88-6.695-12.812-7.271l-0.723,0.216c-0.574,0.864-0.433-0.288-1.009,0.576
		C475.096,537.386,475.241,536.233,473.44,537.025z"/>
	
		<path fill="none" stroke="#000000" stroke-width="0.7087" stroke-linecap="round" stroke-linejoin="round" stroke-miterlimit="10" d="
		M473.44,537.025c-0.864,1.368-1.512,3.528-0.938,4.536l-0.792,1.368c1.008,4.536,7.991,22.176,16.199,20.231
		c1.872,1.149,5.112,0,6.984,1.149c0.288-0.504,1.368,0.864,1.8,1.08c0,0,0-5.109,0.288-5.544c0,0-0.864-3.744-0.576-4.176
		c-0.504-0.288-0.647-1.08-1.151-1.368c0.575-0.864-0.433-0.288,0.146-1.152c0.433,0.288-0.576,0.864-0.938-0.573
		c0.575-0.938-0.433-0.287,0.071-1.227c-0.863-0.576-0.936-2.52-1.872-3.096c0.864-1.368-2.088-3.889-3.456-4.681
		c1.656-2.811-11.88-6.695-12.812-7.271l-0.723,0.216c-0.574,0.864-0.433-0.288-1.009,0.576
		C475.096,537.386,475.241,536.233,473.44,537.025z"/>
</g>
<g filter="url(#myGaussianBlur)">
	<path fill="#F58345" d="M53.374,333.515c-1.078,1.296-2.088,3.168-1.653,4.32l-1.08,1.223c0.357,4.607,4.464,23.186,12.888,22.537
		c1.584,1.439,5.04,0.791,6.696,2.23c0.357-0.434,1.225,1.01,1.584,1.368c0,0,0.792-5.041,1.149-5.475c0,0-0.286-3.813,0.071-4.248
		c-0.357-0.356-0.432-1.079-0.863-1.438c0.723-0.863-0.433-0.358,0.288-1.152c0.435,0.289-0.721,0.794-0.792-0.721
		c0.722-0.863-0.433-0.358,0.288-1.225c-0.792-0.646-0.576-2.592-1.438-3.312c1.079-1.225-1.44-4.176-2.664-5.184
		c2.159-2.521-10.656-8.425-11.448-9.146l-0.792,0.072c-0.647,0.864-0.359-0.359-1.08,0.504
		C54.957,334.235,55.247,333.011,53.374,333.515z"/>
	
		<path fill="none" stroke="#000000" stroke-width="0.7087" stroke-linecap="round" stroke-linejoin="round" stroke-miterlimit="10" d="
		M53.374,333.515c-1.078,1.296-2.088,3.168-1.653,4.32l-1.08,1.223c0.357,4.607,4.464,23.186,12.888,22.537
		c1.584,1.439,5.04,0.791,6.696,2.23c0.357-0.434,1.225,1.01,1.584,1.368c0,0,0.792-5.041,1.149-5.475c0,0-0.286-3.813,0.071-4.248
		c-0.357-0.356-0.432-1.079-0.863-1.438c0.723-0.863-0.433-0.358,0.288-1.152c0.435,0.289-0.721,0.794-0.792-0.721
		c0.722-0.863-0.433-0.358,0.288-1.225c-0.792-0.646-0.576-2.592-1.438-3.312c1.079-1.225-1.44-4.176-2.664-5.184
		c2.159-2.521-10.656-8.425-11.448-9.146l-0.792,0.072c-0.647,0.864-0.359-0.359-1.08,0.504
		C54.957,334.235,55.247,333.011,53.374,333.515z"/>
</g>
<g filter="url(#myGaussianBlur)">
	<path fill="#F58345" d="M786.568,215.401c1.008,1.152,1.944,3.096,1.513,4.176l1.008,1.152
		c-0.288,4.464-4.248,22.248-12.312,21.672c-1.584,1.368-4.824,0.72-6.408,2.088c-0.359-0.36-1.224,1.008-1.584,1.368
		c0,0-0.72-4.896-1.08-5.256c0,0,0.288-3.672-0.071-4.032c0.359-0.36,0.435-1.08,0.863-1.44c-0.72-0.792,0.36-0.36-0.288-1.152
		c-0.432,0.36,0.648,0.792,0.793-0.648c-0.721-0.792,0.359-0.36-0.288-1.152c0.792-0.648,0.504-2.52,1.296-3.24
		c-1.008-1.152,1.439-3.96,2.595-4.968c-2.019-2.376,10.224-8.136,11.016-8.784l0.721,0.072c0.647,0.792,0.359-0.36,1.079,0.432
		C784.984,216.05,784.697,214.897,786.568,215.401z"/>
	
		<path fill="none" stroke="#000000" stroke-width="0.7087" stroke-linecap="round" stroke-linejoin="round" stroke-miterlimit="10" d="
		M786.568,215.401c1.008,1.152,1.944,3.096,1.513,4.176l1.008,1.152c-0.288,4.464-4.248,22.248-12.312,21.672
		c-1.584,1.368-4.824,0.72-6.408,2.088c-0.359-0.36-1.224,1.008-1.584,1.368c0,0-0.72-4.896-1.08-5.256c0,0,0.288-3.672-0.071-4.032
		c0.359-0.36,0.435-1.08,0.863-1.44c-0.72-0.792,0.36-0.36-0.288-1.152c-0.432,0.36,0.648,0.792,0.793-0.648
		c-0.721-0.792,0.359-0.36-0.288-1.152c0.792-0.648,0.504-2.52,1.296-3.24c-1.008-1.152,1.439-3.96,2.595-4.968
		c-2.019-2.376,10.224-8.136,11.016-8.784l0.721,0.072c0.647,0.792,0.359-0.36,1.079,0.432
		C784.984,216.05,784.697,214.897,786.568,215.401z"/>
</g>
<g filter="url(#myGaussianBlur)">
	<path fill="#F58345" d="M707.728,135.698c0.144,1.512-0.216,3.672-1.227,4.248l0.071,1.584
		c-2.88,3.312-16.632,15.264-22.752,10.008c-2.088,0.144-4.319-2.304-6.408-2.16c-0.071-0.504-1.584,0.144-2.088,0.144
		c0,0,2.305-4.32,2.232-4.824c0,0,2.445-2.808,2.376-3.312c0.573-0.072,1.008-0.576,1.512-0.648
		c-0.072-1.008,0.576-0.072,0.504-1.08c-0.575,0.072,0.072,1.008,1.009-0.072c-0.07-1.008,0.504-0.072,0.435-1.08
		c1.08-0.072,1.94-1.729,3.021-1.8c-0.144-1.512,3.456-2.304,5.04-2.448c-0.216-3.096,13.032-0.432,14.04-0.504l0.576,0.504
		c0.072,1.008,0.504-0.072,0.576,1.008C706.144,135.266,706.576,134.186,707.728,135.698z"/>
	
		<path fill="none" stroke="#000000" stroke-width="0.7087" stroke-linecap="round" stroke-linejoin="round" stroke-miterlimit="10" d="
		M707.728,135.698c0.144,1.512-0.216,3.672-1.227,4.248l0.071,1.584c-2.88,3.312-16.632,15.264-22.752,10.008
		c-2.088,0.144-4.319-2.304-6.408-2.16c-0.071-0.504-1.584,0.144-2.088,0.144c0,0,2.305-4.32,2.232-4.824
		c0,0,2.445-2.808,2.376-3.312c0.573-0.072,1.008-0.576,1.512-0.648c-0.072-1.008,0.576-0.072,0.504-1.08
		c-0.575,0.072,0.072,1.008,1.009-0.072c-0.07-1.008,0.504-0.072,0.435-1.08c1.08-0.072,1.94-1.729,3.021-1.8
		c-0.144-1.512,3.456-2.304,5.04-2.448c-0.216-3.096,13.032-0.432,14.04-0.504l0.576,0.504c0.072,1.008,0.504-0.072,0.576,1.008
		C706.144,135.266,706.576,134.186,707.728,135.698z"/>
</g>
<g filter="url(#myGaussianBlur)">
	<path fill="#F58345" d="M493.584,38.39c-1.009,1.152-2.81,2.376-3.89,2.088l-1.008,1.224c-4.464,0.288-22.607-0.936-23.186-9
		c-1.584-1.368-1.514-4.752-3.022-6.12c0.288-0.36-1.226-1.008-1.584-1.296c0,0,4.681-1.512,5.04-1.872c0,0,3.672-0.288,3.96-0.648
		c0.433,0.288,1.15,0.288,1.513,0.576c0.721-0.792,0.433,0.36,1.079-0.432c-0.358-0.36-0.646,0.792,0.792,0.72
		c0.722-0.792,0.434,0.288,1.08-0.504c0.792,0.72,2.593,0.216,3.385,0.864c1.009-1.152,4.104,0.864,5.327,1.872
		c2.018-2.376,9.505,8.856,10.297,9.576l0.071,0.72c-0.721,0.792,0.358,0.36-0.288,1.152
		C492.723,36.95,493.803,36.518,493.584,38.39z"/>
	
		<path fill="none" stroke="#000000" stroke-width="0.7087" stroke-linecap="round" stroke-linejoin="round" stroke-miterlimit="10" d="
		M493.584,38.39c-1.009,1.152-2.81,2.376-3.89,2.088l-1.008,1.224c-4.464,0.288-22.607-0.936-23.186-9
		c-1.584-1.368-1.514-4.752-3.022-6.12c0.288-0.36-1.226-1.008-1.584-1.296c0,0,4.681-1.512,5.04-1.872c0,0,3.672-0.288,3.96-0.648
		c0.433,0.288,1.15,0.288,1.513,0.576c0.721-0.792,0.433,0.36,1.079-0.432c-0.358-0.36-0.646,0.792,0.792,0.72
		c0.722-0.792,0.434,0.288,1.08-0.504c0.792,0.72,2.593,0.216,3.385,0.864c1.009-1.152,4.104,0.864,5.327,1.872
		c2.018-2.376,9.505,8.856,10.297,9.576l0.071,0.72c-0.721,0.792,0.358,0.36-0.288,1.152
		C492.723,36.95,493.803,36.518,493.584,38.39z"/>
</g>
<g filter="url(#myGaussianBlur)">
	<path fill="#F58345" d="M762.016,155.569c0.144,1.584-0.219,3.672-1.227,4.248l0.071,1.584
		c-2.88,3.384-16.632,15.336-22.752,10.008c-2.088,0.144-4.319-2.232-6.408-2.088c-0.071-0.576-1.584,0.072-2.088,0.144
		c0,0,2.305-4.392,2.232-4.896c0,0,2.444-2.808,2.375-3.312c0.574,0,1.009-0.576,1.513-0.648c-0.072-1.008,0.576,0,0.504-1.008
		c-0.576,0,0.072,1.008,1.008-0.144c-0.071-1.008,0.505,0,0.436-1.08c1.08-0.072,1.94-1.656,3.021-1.728
		c-0.144-1.584,3.456-2.376,5.04-2.448c-0.216-3.168,13.032-0.504,14.04-0.576l0.576,0.504c0.072,1.08,0.504,0,0.576,1.008
		C760.432,155.209,760.865,154.13,762.016,155.569z"/>
	
		<path fill="none" stroke="#000000" stroke-width="0.7087" stroke-linecap="round" stroke-linejoin="round" stroke-miterlimit="10" d="
		M762.016,155.569c0.144,1.584-0.219,3.672-1.227,4.248l0.071,1.584c-2.88,3.384-16.632,15.336-22.752,10.008
		c-2.088,0.144-4.319-2.232-6.408-2.088c-0.071-0.576-1.584,0.072-2.088,0.144c0,0,2.305-4.392,2.232-4.896
		c0,0,2.444-2.808,2.375-3.312c0.574,0,1.009-0.576,1.513-0.648c-0.072-1.008,0.576,0,0.504-1.008c-0.576,0,0.072,1.008,1.008-0.144
		c-0.071-1.008,0.505,0,0.436-1.08c1.08-0.072,1.94-1.656,3.021-1.728c-0.144-1.584,3.456-2.376,5.04-2.448
		c-0.216-3.168,13.032-0.504,14.04-0.576l0.576,0.504c0.072,1.08,0.504,0,0.576,1.008
		C760.432,155.209,760.865,154.13,762.016,155.569z"/>
</g>
<g filter="url(#myGaussianBlur)">
	<path fill="#F58345" d="M10.755,73.099c1.08,1.224,2.95,2.448,4.176,2.088l1.08,1.224c4.606,0.216,23.472-1.584,23.902-10.008
		c1.584-1.44,1.367-4.896,2.951-6.408c-0.357-0.36,1.227-1.08,1.655-1.44c0,0-4.968-1.368-5.328-1.8c0,0-3.812-0.144-4.176-0.576
		c-0.432,0.36-1.151,0.36-1.584,0.72c-0.72-0.792-0.432,0.36-1.151-0.432c0.435-0.36,0.723,0.792-0.792,0.72
		c-0.721-0.792-0.357,0.36-1.149-0.432c-0.792,0.72-2.664,0.216-3.456,0.936c-1.08-1.152-4.32,1.008-5.474,2.088
		c-2.23-2.448-9.722,9.504-10.514,10.224v0.792c0.722,0.792-0.432,0.36,0.288,1.152C11.621,71.586,10.467,71.155,10.755,73.099z"/>
	
		<path fill="none" stroke="#000000" stroke-width="0.7087" stroke-linecap="round" stroke-linejoin="round" stroke-miterlimit="10" d="
		M10.755,73.099c1.08,1.224,2.95,2.448,4.176,2.088l1.08,1.224c4.606,0.216,23.472-1.584,23.902-10.008
		c1.584-1.44,1.367-4.896,2.951-6.408c-0.357-0.36,1.227-1.08,1.655-1.44c0,0-4.968-1.368-5.328-1.8c0,0-3.812-0.144-4.176-0.576
		c-0.432,0.36-1.151,0.36-1.584,0.72c-0.72-0.792-0.432,0.36-1.151-0.432c0.435-0.36,0.723,0.792-0.792,0.72
		c-0.721-0.792-0.357,0.36-1.149-0.432c-0.792,0.72-2.664,0.216-3.456,0.936c-1.08-1.152-4.32,1.008-5.474,2.088
		c-2.23-2.448-9.722,9.504-10.514,10.224v0.792c0.722,0.792-0.432,0.36,0.288,1.152C11.621,71.586,10.467,71.155,10.755,73.099z"/>
</g>
<g filter="url(#myGaussianBlur)">
	<path fill="#F58345" d="M46.121,120.263c-0.357,1.584-0.217,3.816,0.723,4.608l-0.36,1.584
		c2.593,3.816,15.192,18.072,22.248,13.392c2.088,0.432,4.752-1.8,6.912-1.368c0.072-0.504,1.584,0.36,2.088,0.432
		c0,0-1.8-4.752-1.655-5.328c0,0-2.089-3.168-2.017-3.744c-0.504-0.072-0.938-0.72-1.512-0.864c0.216-1.008-0.507-0.072-0.288-1.152
		c0.504,0.144-0.219,1.08-1.08-0.216c0.216-1.08-0.504-0.072-0.288-1.152c-1.08-0.216-1.8-2.016-2.88-2.232
		c0.357-1.656-3.312-2.88-4.896-3.24c0.647-3.168-13.393-2.16-14.473-2.376l-0.647,0.432c-0.217,1.008-0.504-0.144-0.721,0.936
		C47.776,120.048,47.49,118.896,46.121,120.263z"/>
	
		<path fill="none" stroke="#000000" stroke-width="0.7087" stroke-linecap="round" stroke-linejoin="round" stroke-miterlimit="10" d="
		M46.121,120.263c-0.357,1.584-0.217,3.816,0.723,4.608l-0.36,1.584c2.593,3.816,15.192,18.072,22.248,13.392
		c2.088,0.432,4.752-1.8,6.912-1.368c0.072-0.504,1.584,0.36,2.088,0.432c0,0-1.8-4.752-1.655-5.328c0,0-2.089-3.168-2.017-3.744
		c-0.504-0.072-0.938-0.72-1.512-0.864c0.216-1.008-0.507-0.072-0.288-1.152c0.504,0.144-0.219,1.08-1.08-0.216
		c0.216-1.08-0.504-0.072-0.288-1.152c-1.08-0.216-1.8-2.016-2.88-2.232c0.357-1.656-3.312-2.88-4.896-3.24
		c0.647-3.168-13.393-2.16-14.473-2.376l-0.647,0.432c-0.217,1.008-0.504-0.144-0.721,0.936
		C47.776,120.048,47.49,118.896,46.121,120.263z"/>
</g>
<g filter="url(#myGaussianBlur)">
	<path fill="#F58345" d="M654.577,80.318c0.146,1.512-0.216,3.672-1.151,4.248l0.146,1.584c-2.88,3.384-16.416,15.552-22.606,10.368
		c-2.088,0.216-4.394-2.232-6.479-2.016c-0.07-0.504-1.584,0.144-2.088,0.216c0,0,2.23-4.392,2.159-4.968
		c0,0,2.377-2.808,2.377-3.312c0.504-0.072,0.937-0.576,1.512-0.648c-0.146-1.08,0.505-0.072,0.359-1.08
		c-0.505,0,0.146,1.008,1.08-0.072c-0.071-1.08,0.504-0.072,0.433-1.152c1.009-0.072,1.942-1.728,2.952-1.8
		c-0.146-1.584,3.456-2.376,5.04-2.52c-0.288-3.168,12.96-0.648,14.04-0.792l0.504,0.504c0.146,1.008,0.575-0.072,0.646,1.008
		C652.993,79.887,653.422,78.807,654.577,80.318z"/>
	
		<path fill="none" stroke="#000000" stroke-width="0.7087" stroke-linecap="round" stroke-linejoin="round" stroke-miterlimit="10" d="
		M654.577,80.318c0.146,1.512-0.216,3.672-1.151,4.248l0.146,1.584c-2.88,3.384-16.416,15.552-22.606,10.368
		c-2.088,0.216-4.394-2.232-6.479-2.016c-0.07-0.504-1.584,0.144-2.088,0.216c0,0,2.23-4.392,2.159-4.968
		c0,0,2.377-2.808,2.377-3.312c0.504-0.072,0.937-0.576,1.512-0.648c-0.146-1.08,0.505-0.072,0.359-1.08
		c-0.505,0,0.146,1.008,1.08-0.072c-0.071-1.08,0.504-0.072,0.433-1.152c1.009-0.072,1.942-1.728,2.952-1.8
		c-0.146-1.584,3.456-2.376,5.04-2.52c-0.288-3.168,12.96-0.648,14.04-0.792l0.504,0.504c0.146,1.008,0.575-0.072,0.646,1.008
		C652.993,79.887,653.422,78.807,654.577,80.318z"/>
</g>
<g filter="url(#myGaussianBlur)">
	<path fill="#F58345" d="M794.222,502.23c-1.08,1.227-2.812,2.448-3.96,2.16l-1.011,1.151c-4.393,0.287-22.605-1.08-23.109-9.146
		c-1.584-1.368-1.44-4.752-3.024-6.12c0.36-0.357-1.15-1.008-1.512-1.366c0,0,4.68-1.367,5.04-1.802c0,0,3.672-0.216,3.96-0.646
		c0.432,0.357,1.15,0.288,1.584,0.646c0.646-0.792,0.358,0.359,1.008-0.433c-0.359-0.359-0.646,0.792,0.792,0.721
		c0.72-0.792,0.433,0.288,1.08-0.504c0.792,0.72,2.592,0.216,3.384,0.938c1.08-1.226,4.104,0.793,5.328,1.801
		c2.018-2.305,9.434,9,10.225,9.646l0.071,0.792c-0.72,0.792,0.36,0.288-0.288,1.08C793.358,500.862,794.439,500.358,794.222,502.23
		z"/>
	
		<path fill="none" stroke="#000000" stroke-width="0.7087" stroke-linecap="round" stroke-linejoin="round" stroke-miterlimit="10" d="
		M794.222,502.23c-1.08,1.227-2.812,2.448-3.96,2.16l-1.011,1.151c-4.393,0.287-22.605-1.08-23.109-9.146
		c-1.584-1.368-1.44-4.752-3.024-6.12c0.36-0.357-1.15-1.008-1.512-1.366c0,0,4.68-1.367,5.04-1.802c0,0,3.672-0.216,3.96-0.646
		c0.432,0.357,1.15,0.288,1.584,0.646c0.646-0.792,0.358,0.359,1.008-0.433c-0.359-0.359-0.646,0.792,0.792,0.721
		c0.72-0.792,0.433,0.288,1.08-0.504c0.792,0.72,2.592,0.216,3.384,0.938c1.08-1.226,4.104,0.793,5.328,1.801
		c2.018-2.305,9.434,9,10.225,9.646l0.071,0.792c-0.72,0.792,0.36,0.288-0.288,1.08C793.358,500.862,794.439,500.358,794.222,502.23
		z"/>
</g>
<g filter="url(#myGaussianBlur)">
	<path fill="#F58345" d="M173.011,498.878c-0.146,1.652,0.217,3.812,1.225,4.464l-0.145,1.655
		c2.95,3.525,17.137,16.197,23.614,10.801c2.16,0.216,4.536-2.306,6.695-2.088c0.072-0.576,1.656,0.144,2.16,0.144
		c0,0-2.305-4.536-2.231-5.04c0,0-2.521-2.952-2.446-3.526c-0.504-0.07-1.01-0.646-1.584-0.646c0.145-1.08-0.504-0.072-0.434-1.152
		c0.575,0.072-0.07,1.08-1.08-0.069c0.071-1.08-0.504-0.071-0.433-1.151c-1.08-0.146-2.017-1.8-3.097-1.944
		c0.145-1.584-3.603-2.445-5.257-2.664c0.358-3.237-13.535-0.646-14.614-0.72l-0.576,0.504c-0.072,1.08-0.576-0.069-0.647,1.008
		C174.739,498.518,174.234,497.366,173.011,498.878z"/>
	
		<path fill="none" stroke="#000000" stroke-width="0.7087" stroke-linecap="round" stroke-linejoin="round" stroke-miterlimit="10" d="
		M173.011,498.878c-0.146,1.652,0.217,3.812,1.225,4.464l-0.145,1.655c2.95,3.525,17.137,16.197,23.614,10.801
		c2.16,0.216,4.536-2.306,6.695-2.088c0.072-0.576,1.656,0.144,2.16,0.144c0,0-2.305-4.536-2.231-5.04c0,0-2.521-2.952-2.446-3.526
		c-0.504-0.07-1.01-0.646-1.584-0.646c0.145-1.08-0.504-0.072-0.434-1.152c0.575,0.072-0.07,1.08-1.08-0.069
		c0.071-1.08-0.504-0.071-0.433-1.151c-1.08-0.146-2.017-1.8-3.097-1.944c0.145-1.584-3.603-2.445-5.257-2.664
		c0.358-3.237-13.535-0.646-14.614-0.72l-0.576,0.504c-0.072,1.08-0.576-0.069-0.647,1.008
		C174.739,498.518,174.234,497.366,173.011,498.878z"/>
</g>
<g filter="url(#myGaussianBlur)">
	<path fill="#F58345" d="M578.213,488.613c0.146,1.585-0.146,3.675-1.15,4.32l0.146,1.512c-2.81,3.388-16.416,15.624-22.606,10.44
		c-2.088,0.144-4.394-2.232-6.479-2.088c0-0.504-1.514,0.144-2.018,0.216c0,0,2.16-4.392,2.16-4.896c0,0,2.376-2.811,2.304-3.312
		c0.505-0.072,1.009-0.648,1.513-0.72c-0.071-1.009,0.505,0,0.435-1.08c-0.506,0.071,0.07,1.08,1.008-0.072
		c-0.071-1.008,0.504-0.072,0.433-1.08c1.009-0.069,1.943-1.728,2.952-1.872c-0.146-1.512,3.456-2.376,5.04-2.52
		c-0.288-3.097,13.031-0.648,14.039-0.721l0.576,0.433c0.07,1.08,0.504,0,0.576,1.008
		C576.629,488.254,577.062,487.174,578.213,488.613z"/>
	
		<path fill="none" stroke="#000000" stroke-width="0.7087" stroke-linecap="round" stroke-linejoin="round" stroke-miterlimit="10" d="
		M578.213,488.613c0.146,1.585-0.146,3.675-1.15,4.32l0.146,1.512c-2.81,3.388-16.416,15.624-22.606,10.44
		c-2.088,0.144-4.394-2.232-6.479-2.088c0-0.504-1.514,0.144-2.018,0.216c0,0,2.16-4.392,2.16-4.896c0,0,2.376-2.811,2.304-3.312
		c0.505-0.072,1.009-0.648,1.513-0.72c-0.071-1.009,0.505,0,0.435-1.08c-0.506,0.071,0.07,1.08,1.008-0.072
		c-0.071-1.008,0.504-0.072,0.433-1.08c1.009-0.069,1.943-1.728,2.952-1.872c-0.146-1.512,3.456-2.376,5.04-2.52
		c-0.288-3.097,13.031-0.648,14.039-0.721l0.576,0.433c0.07,1.08,0.504,0,0.576,1.008
		C576.629,488.254,577.062,487.174,578.213,488.613z"/>
</g>
<g filter="url(#myGaussianBlur)">
	<path fill="#F58345" d="M136.102,365.776c-0.146,1.656,0.216,3.889,1.296,4.535l-0.146,1.584
		c2.952,3.527,17.063,16.271,23.546,10.873c2.158,0.145,4.534-2.377,6.694-2.16c0.071-0.504,1.655,0.145,2.159,0.217
		c0,0-2.304-4.608-2.231-5.113c0,0-2.446-2.95-2.446-3.526c-0.504,0-1.008-0.576-1.584-0.646c0.146-1.08-0.504-0.072-0.434-1.15
		c0.576,0.07-0.07,1.078-1.08-0.072c0.146-1.08-0.504-0.07-0.433-1.15c-1.079-0.071-2.017-1.801-3.096-1.873
		c0.145-1.655-3.603-2.52-5.187-2.663c0.288-3.24-13.605-0.72-14.688-0.792l-0.576,0.504c-0.071,1.08-0.504-0.071-0.647,1.009
		C137.829,365.415,137.397,364.265,136.102,365.776z"/>
	
		<path fill="none" stroke="#000000" stroke-width="0.7087" stroke-linecap="round" stroke-linejoin="round" stroke-miterlimit="10" d="
		M136.102,365.776c-0.146,1.656,0.216,3.889,1.296,4.535l-0.146,1.584c2.952,3.527,17.063,16.271,23.546,10.873
		c2.158,0.145,4.534-2.377,6.694-2.16c0.071-0.504,1.655,0.145,2.159,0.217c0,0-2.304-4.608-2.231-5.113c0,0-2.446-2.95-2.446-3.526
		c-0.504,0-1.008-0.576-1.584-0.646c0.146-1.08-0.504-0.072-0.434-1.15c0.576,0.07-0.07,1.078-1.08-0.072
		c0.146-1.08-0.504-0.07-0.433-1.15c-1.079-0.071-2.017-1.801-3.096-1.873c0.145-1.655-3.603-2.52-5.187-2.663
		c0.288-3.24-13.605-0.72-14.688-0.792l-0.576,0.504c-0.071,1.08-0.504-0.071-0.647,1.009
		C137.829,365.415,137.397,364.265,136.102,365.776z"/>
</g>
<g filter="url(#myGaussianBlur)">
	<path fill="#F58345" d="M687.71,251.762c0.146,1.512-0.217,3.672-1.225,4.248l0.145,1.584
		c-2.809,3.384-16.345,15.552-22.605,10.368c-2.019,0.216-4.32-2.16-6.408-2.016c-0.071-0.504-1.584,0.144-2.088,0.216
		c0,0,2.229-4.392,2.16-4.896c0,0,2.376-2.88,2.304-3.384c0.504,0,1.008-0.576,1.513-0.648c-0.069-1.008,0.504-0.072,0.435-1.08
		c-0.504,0.072,0.069,1.008,1.08-0.072c-0.146-1.08,0.504-0.072,0.357-1.08c1.08-0.144,1.943-1.8,3.023-1.872
		c-0.146-1.512,3.456-2.376,4.968-2.521c-0.288-3.096,13.032-0.647,14.04-0.72l0.576,0.432c0.072,1.08,0.504-0.072,0.646,1.008
		C686.056,251.401,686.489,250.25,687.71,251.762z"/>
	
		<path fill="none" stroke="#000000" stroke-width="0.7087" stroke-linecap="round" stroke-linejoin="round" stroke-miterlimit="10" d="
		M687.71,251.762c0.146,1.512-0.217,3.672-1.225,4.248l0.145,1.584c-2.809,3.384-16.345,15.552-22.605,10.368
		c-2.019,0.216-4.32-2.16-6.408-2.016c-0.071-0.504-1.584,0.144-2.088,0.216c0,0,2.229-4.392,2.16-4.896c0,0,2.376-2.88,2.304-3.384
		c0.504,0,1.008-0.576,1.513-0.648c-0.069-1.008,0.504-0.072,0.435-1.08c-0.504,0.072,0.069,1.008,1.08-0.072
		c-0.146-1.08,0.504-0.072,0.357-1.08c1.08-0.144,1.943-1.8,3.023-1.872c-0.146-1.512,3.456-2.376,4.968-2.521
		c-0.288-3.096,13.032-0.647,14.04-0.72l0.576,0.432c0.072,1.08,0.504-0.072,0.646,1.008
		C686.056,251.401,686.489,250.25,687.71,251.762z"/>
</g>
<g filter="url(#myGaussianBlur)">
	<path fill="#F58345" d="M782.032,69.025c0.145,1.584-0.144,3.672-1.151,4.32l0.146,1.512c-2.811,3.384-16.344,15.624-22.607,10.368
		c-2.088,0.216-4.393-2.16-6.407-2.016c-0.07-0.504-1.584,0.144-2.089,0.216c0,0,2.231-4.392,2.16-4.896
		c0,0,2.376-2.808,2.306-3.384c0.505,0,1.009-0.576,1.513-0.648c-0.072-1.008,0.504,0,0.433-1.08
		c-0.505,0.072,0.071,1.08,1.008-0.072c-0.069-1.08,0.576-0.072,0.435-1.08c1.08-0.144,1.941-1.728,3.021-1.872
		c-0.145-1.512,3.386-2.376,4.971-2.52c-0.288-3.096,13.029-0.648,14.037-0.72l0.576,0.432c0.072,1.08,0.504,0,0.576,1.008
		C780.449,68.666,780.878,67.585,782.032,69.025z"/>
	
		<path fill="none" stroke="#000000" stroke-width="0.7087" stroke-linecap="round" stroke-linejoin="round" stroke-miterlimit="10" d="
		M782.032,69.025c0.145,1.584-0.144,3.672-1.151,4.32l0.146,1.512c-2.811,3.384-16.344,15.624-22.607,10.368
		c-2.088,0.216-4.393-2.16-6.407-2.016c-0.07-0.504-1.584,0.144-2.089,0.216c0,0,2.231-4.392,2.16-4.896
		c0,0,2.376-2.808,2.306-3.384c0.505,0,1.009-0.576,1.513-0.648c-0.072-1.008,0.504,0,0.433-1.08
		c-0.505,0.072,0.071,1.08,1.008-0.072c-0.069-1.08,0.576-0.072,0.435-1.08c1.08-0.144,1.941-1.728,3.021-1.872
		c-0.145-1.512,3.386-2.376,4.971-2.52c-0.288-3.096,13.029-0.648,14.037-0.72l0.576,0.432c0.072,1.08,0.504,0,0.576,1.008
		C780.449,68.666,780.878,67.585,782.032,69.025z"/>
</g>
<g filter="url(#myGaussianBlur)">
	<path fill="#F58345" d="M248.882,22.852c0.576,1.512,1.8,3.312,3.024,3.456l0.575,1.512c4.177,1.944,22.393,7.344,25.92-0.288
		c2.017-0.792,3.168-4.104,5.185-4.824c-0.216-0.504,1.512-0.576,2.016-0.792c0,0-4.028-3.096-4.248-3.6
		c0,0-3.453-1.584-3.672-2.088c-0.504,0.144-1.224-0.144-1.728,0c-0.36-1.008-0.504,0.216-0.864-0.792
		c0.504-0.216,0.36,1.008-1.008,0.36c-0.36-1.008-0.504,0.216-0.864-0.792c-1.08,0.36-2.664-0.792-3.672-0.432
		c-0.576-1.512-4.32-0.72-5.832-0.144c-1.152-3.024-12.528,5.256-13.536,5.616l-0.356,0.648c0.432,1.08-0.505,0.216-0.072,1.224
		C250.25,21.771,249.314,20.908,248.882,22.852z"/>
	
		<path fill="none" stroke="#000000" stroke-width="0.7087" stroke-linecap="round" stroke-linejoin="round" stroke-miterlimit="10" d="
		M248.882,22.852c0.576,1.512,1.8,3.312,3.024,3.456l0.575,1.512c4.177,1.944,22.393,7.344,25.92-0.288
		c2.017-0.792,3.168-4.104,5.185-4.824c-0.216-0.504,1.512-0.576,2.016-0.792c0,0-4.028-3.096-4.248-3.6
		c0,0-3.453-1.584-3.672-2.088c-0.504,0.144-1.224-0.144-1.728,0c-0.36-1.008-0.504,0.216-0.864-0.792
		c0.504-0.216,0.36,1.008-1.008,0.36c-0.36-1.008-0.504,0.216-0.864-0.792c-1.08,0.36-2.664-0.792-3.672-0.432
		c-0.576-1.512-4.32-0.72-5.832-0.144c-1.152-3.024-12.528,5.256-13.536,5.616l-0.356,0.648c0.432,1.08-0.505,0.216-0.072,1.224
		C250.25,21.771,249.314,20.908,248.882,22.852z"/>
</g>
<g filter="url(#myGaussianBlur)">
	<path fill="#F58345" d="M66.647,230.162c-1.08,1.224-2.017,3.24-1.584,4.32l-1.08,1.224c0.36,4.608,4.393,23.184,12.815,22.536
		c1.654,1.44,5.11,0.792,6.694,2.232c0.359-0.432,1.296,1.008,1.655,1.368c0,0,0.792-5.04,1.152-5.472c0,0-0.288-3.816,0.069-4.176
		c-0.433-0.36-0.433-1.152-0.861-1.512c0.72-0.792-0.435-0.36,0.287-1.152c0.433,0.36-0.722,0.792-0.792-0.72
		c0.646-0.864-0.435-0.36,0.287-1.152c-0.862-0.72-0.574-2.664-1.438-3.384c1.08-1.224-1.439-4.104-2.664-5.184
		c2.088-2.448-10.655-8.496-11.447-9.216l-0.792,0.072c-0.721,0.864-0.433-0.36-1.08,0.504
		C68.23,230.81,68.519,229.585,66.647,230.162z"/>
	
		<path fill="none" stroke="#000000" stroke-width="0.7087" stroke-linecap="round" stroke-linejoin="round" stroke-miterlimit="10" d="
		M66.647,230.162c-1.08,1.224-2.017,3.24-1.584,4.32l-1.08,1.224c0.36,4.608,4.393,23.184,12.815,22.536
		c1.654,1.44,5.11,0.792,6.694,2.232c0.359-0.432,1.296,1.008,1.655,1.368c0,0,0.792-5.04,1.152-5.472c0,0-0.288-3.816,0.069-4.176
		c-0.433-0.36-0.433-1.152-0.861-1.512c0.72-0.792-0.435-0.36,0.287-1.152c0.433,0.36-0.722,0.792-0.792-0.72
		c0.646-0.864-0.435-0.36,0.287-1.152c-0.862-0.72-0.574-2.664-1.438-3.384c1.08-1.224-1.439-4.104-2.664-5.184
		c2.088-2.448-10.655-8.496-11.447-9.216l-0.792,0.072c-0.721,0.864-0.433-0.36-1.08,0.504
		C68.23,230.81,68.519,229.585,66.647,230.162z"/>
</g>
<g filter="url(#myGaussianBlur)">
	<path fill="#F58345" d="M161.14,77.969c0.146,1.656,0.792,3.816,1.944,4.248l0.069,1.656c3.456,3.024,19.439,13.32,24.983,6.984
		c2.16-0.144,4.176-3.024,6.336-3.168c-0.071-0.504,1.584-0.072,2.16-0.144c0,0-3.023-4.104-3.023-4.68c0,0-2.951-2.52-2.951-3.024
		c-0.574,0-1.15-0.504-1.654-0.432c-0.072-1.08-0.576,0-0.648-1.08c0.576,0,0.072,1.08-1.08,0.072
		c-0.068-1.08-0.504,0.072-0.574-1.008c-1.078,0.072-2.306-1.512-3.386-1.44c-0.144-1.656-3.96-1.872-5.544-1.8
		c-0.216-3.24-13.535,1.44-14.614,1.512l-0.505,0.576c0.071,1.08-0.505,0.072-0.433,1.152
		C162.723,77.321,162.146,76.312,161.14,77.969z"/>
	
		<path fill="none" stroke="#000000" stroke-width="0.7087" stroke-linecap="round" stroke-linejoin="round" stroke-miterlimit="10" d="
		M161.14,77.969c0.146,1.656,0.792,3.816,1.944,4.248l0.069,1.656c3.456,3.024,19.439,13.32,24.983,6.984
		c2.16-0.144,4.176-3.024,6.336-3.168c-0.071-0.504,1.584-0.072,2.16-0.144c0,0-3.023-4.104-3.023-4.68c0,0-2.951-2.52-2.951-3.024
		c-0.574,0-1.15-0.504-1.654-0.432c-0.072-1.08-0.576,0-0.648-1.08c0.576,0,0.072,1.08-1.08,0.072
		c-0.068-1.08-0.504,0.072-0.574-1.008c-1.078,0.072-2.306-1.512-3.386-1.44c-0.144-1.656-3.96-1.872-5.544-1.8
		c-0.216-3.24-13.535,1.44-14.614,1.512l-0.505,0.576c0.071,1.08-0.505,0.072-0.433,1.152
		C162.723,77.321,162.146,76.312,161.14,77.969z"/>
</g>
<g filter="url(#myGaussianBlur)">
	<path fill="#F58345" d="M13.041,498.866c-1.513,0.646-3.312,1.941-3.384,3.097l-1.513,0.646c-1.8,4.248-6.768,22.536,1.008,25.92
		c0.792,2.02,4.104,3.024,4.896,5.04c0.504-0.216,0.646,1.516,0.792,2.02c0,0,3.021-4.178,3.525-4.32c0,0,1.515-3.528,2.019-3.744
		c-0.146-0.504,0.144-1.224-0.072-1.728c1.008-0.436-0.216-0.504,0.792-0.938c0.216,0.504-1.008,0.436-0.359-1.008
		c1.011-0.36-0.217-0.504,0.792-0.864c-0.433-1.008,0.723-2.664,0.288-3.672c1.515-0.576,0.575-4.318,0-5.832
		c3.023-1.224-5.544-12.384-5.901-13.392l-0.723-0.288c-1.009,0.358-0.217-0.504-1.225-0.146
		C14.192,500.163,14.984,499.298,13.041,498.866z"/>
	
		<path fill="none" stroke="#000000" stroke-width="0.7087" stroke-linecap="round" stroke-linejoin="round" stroke-miterlimit="10" d="
		M13.041,498.866c-1.513,0.646-3.312,1.941-3.384,3.097l-1.513,0.646c-1.8,4.248-6.768,22.536,1.008,25.92
		c0.792,2.02,4.104,3.024,4.896,5.04c0.504-0.216,0.646,1.516,0.792,2.02c0,0,3.021-4.178,3.525-4.32c0,0,1.515-3.528,2.019-3.744
		c-0.146-0.504,0.144-1.224-0.072-1.728c1.008-0.436-0.216-0.504,0.792-0.938c0.216,0.504-1.008,0.436-0.359-1.008
		c1.011-0.36-0.217-0.504,0.792-0.864c-0.433-1.008,0.723-2.664,0.288-3.672c1.515-0.576,0.575-4.318,0-5.832
		c3.023-1.224-5.544-12.384-5.901-13.392l-0.723-0.288c-1.009,0.358-0.217-0.504-1.225-0.146
		C14.192,500.163,14.984,499.298,13.041,498.866z"/>
</g>
<g filter="url(#myGaussianBlur)">
	<path fill="#F58345" d="M800.281,420.602c1.44,0.576,3.24,1.8,3.312,2.952l1.439,0.576c1.729,4.104,6.48,21.672-0.936,24.84
		c-0.792,1.943-3.96,2.952-4.752,4.896c-0.507-0.216-0.576,1.44-0.792,1.872c0,0-2.883-3.96-3.387-4.104
		c0,0-1.438-3.384-1.941-3.601c0.216-0.507-0.072-1.151,0.144-1.655c-1.008-0.36,0.146-0.504-0.792-0.864
		c-0.216,0.504,0.938,0.36,0.36-0.937c-0.938-0.435,0.216-0.507-0.72-0.863c0.356-1.009-0.724-2.521-0.36-3.528
		c-1.439-0.576-0.576-4.104,0-5.616c-2.88-1.148,5.328-11.88,5.76-12.812l0.648-0.288c0.936,0.356,0.216-0.504,1.149-0.146
		C799.2,421.826,798.48,420.962,800.281,420.602z"/>
	
		<path fill="none" stroke="#000000" stroke-width="0.7087" stroke-linecap="round" stroke-linejoin="round" stroke-miterlimit="10" d="
		M800.281,420.602c1.44,0.576,3.24,1.8,3.312,2.952l1.439,0.576c1.729,4.104,6.48,21.672-0.936,24.84
		c-0.792,1.943-3.96,2.952-4.752,4.896c-0.507-0.216-0.576,1.44-0.792,1.872c0,0-2.883-3.96-3.387-4.104
		c0,0-1.438-3.384-1.941-3.601c0.216-0.507-0.072-1.151,0.144-1.655c-1.008-0.36,0.146-0.504-0.792-0.864
		c-0.216,0.504,0.938,0.36,0.36-0.937c-0.938-0.435,0.216-0.507-0.72-0.863c0.356-1.009-0.724-2.521-0.36-3.528
		c-1.439-0.576-0.576-4.104,0-5.616c-2.88-1.148,5.328-11.88,5.76-12.812l0.648-0.288c0.936,0.356,0.216-0.504,1.149-0.146
		C799.2,421.826,798.48,420.962,800.281,420.602z"/>
</g>
</svg>
