<?xml version="1.0" encoding="utf-8"?>
<!-- Generator: Adobe Illustrator 15.0.0, SVG Export Plug-In  -->
<!DOCTYPE svg PUBLIC "-//W3C//DTD SVG 1.1//EN" "http://www.w3.org/Graphics/SVG/1.1/DTD/svg11.dtd" [
	<!ENTITY ns_flows "http://ns.adobe.com/Flows/1.0/">
]>
<svg version="1.1"
	 xmlns="http://www.w3.org/2000/svg" xmlns:xlink="http://www.w3.org/1999/xlink" xmlns:a="http://ns.adobe.com/AdobeSVGViewerExtensions/3.0/"
	 x="0px" y="0px" width="811px" height="565px" viewBox="0 0 811 565" overflow="visible" enable-background="new 0 0 811 565"
	 xml:space="preserve">
<defs>
  <filter id="myGaussianBlur">
    <feGaussianBlur in="SourceGraphic" stdDeviation="1" />
  </filter>
</defs>
<path fill="#F3C108" stroke="#000000" stroke-width="0.7087" stroke-linecap="round" stroke-linejoin="round" stroke-miterlimit="10" d="
	M112.729,3.927c-10.944-3.24-18.576-6.624-26.352,1.296C96.961,9.471,107.905,3.639,112.729,3.927z" style="filter:url(#myGaussianBlur)" />
<path fill="#F3C108" stroke="#000000" stroke-width="0.7087" stroke-linecap="round" stroke-linejoin="round" stroke-miterlimit="10" d="
	M44.545,196.743c23.184,0,40.032-2.088,50.544,17.928C71.905,216.759,54.049,198.831,44.545,196.743z" style="filter:url(#myGaussianBlur)" />
<path fill="#F3C108" stroke="#000000" stroke-width="0.7087" stroke-linecap="round" stroke-linejoin="round" stroke-miterlimit="10" d="
	M3.073,547.239c18.648,0,32.184-1.656,40.608,14.4C25.105,563.295,10.705,548.967,3.073,547.239z" style="filter:url(#myGaussianBlur)" />
<path fill="#F3C108" stroke="#000000" stroke-width="0.7087" stroke-linecap="round" stroke-linejoin="round" stroke-miterlimit="10" d="
	M810.769,471.279c-17.856,0-30.816-1.584-38.952,13.824C789.673,486.687,803.497,472.935,810.769,471.279z" style="filter:url(#myGaussianBlur)" />
<path fill="#F3C108" stroke="#000000" stroke-width="0.7087" stroke-linecap="round" stroke-linejoin="round" stroke-miterlimit="10" d="
	M505.345,245.991c-17.856,0-30.816-1.584-38.952,13.824C484.249,261.399,498.073,247.647,505.345,245.991z" style="filter:url(#myGaussianBlur)" />
<path fill="#F3C108" stroke="#000000" stroke-width="0.7087" stroke-linecap="round" stroke-linejoin="round" stroke-miterlimit="10" d="
	M71.833,518.367c0,16.128-1.44,27.864,12.528,35.208C85.801,537.447,73.345,524.919,71.833,518.367z" style="filter:url(#myGaussianBlur)" />
<path fill="#F3C108" stroke="#000000" stroke-width="0.7087" stroke-linecap="round" stroke-linejoin="round" stroke-miterlimit="10" d="
	M747.409,440.607c0,15.48,1.44,26.712-11.952,33.768C734.089,458.895,746.041,446.943,747.409,440.607z" style="filter:url(#myGaussianBlur)" />
<path fill="#F3C108" stroke="#000000" stroke-width="0.7087" stroke-linecap="round" stroke-linejoin="round" stroke-miterlimit="10" d="
	M441.985,215.319c0,15.48,1.44,26.712-11.952,33.768C428.593,233.607,440.617,221.655,441.985,215.319z" style="filter:url(#myGaussianBlur)" />
<path fill="#F3C108" stroke="#000000" stroke-width="0.7087" stroke-linecap="round" stroke-linejoin="round" stroke-miterlimit="10" d="
	M202.873,544.143c9.864,12.744,15.912,22.968,31.392,20.232C225.553,550.695,208.057,548.463,202.873,544.143z" style="filter:url(#myGaussianBlur)" />
<path fill="#F3C108" stroke="#000000" stroke-width="0.7087" stroke-linecap="round" stroke-linejoin="round" stroke-miterlimit="10" d="
	M501.745,374.007c-9.72,13.104-15.624,23.544-31.392,21.096C478.921,381.063,496.561,378.471,501.745,374.007z" style="filter:url(#myGaussianBlur)" />
<path fill="#F3C108" stroke="#000000" stroke-width="0.7087" stroke-linecap="round" stroke-linejoin="round" stroke-miterlimit="10" d="
	M41.089,55.119c-0.504-13.104-2.088-22.536,8.928-28.944C51.745,39.207,42.097,49.719,41.089,55.119z" style="filter:url(#myGaussianBlur)" />
<path fill="#F3C108" stroke="#000000" stroke-width="0.7087" stroke-linecap="round" stroke-linejoin="round" stroke-miterlimit="10" d="
	M66.001,358.671c14.832-3.384,25.344-7.2,34.92,4.104C86.449,367.455,72.409,358.599,66.001,358.671z" style="filter:url(#myGaussianBlur)" />
<path fill="#F3C108" stroke="#000000" stroke-width="0.7087" stroke-linecap="round" stroke-linejoin="round" stroke-miterlimit="10" d="
	M753.025,287.391c-14.184-3.168-24.264-6.768-33.48,3.96C733.441,295.887,746.977,287.391,753.025,287.391z" style="filter:url(#myGaussianBlur)" />
<path fill="#F3C108" stroke="#000000" stroke-width="0.7087" stroke-linecap="round" stroke-linejoin="round" stroke-miterlimit="10" d="
	M128.281,476.823c0.504,14.184-0.432,24.48,12.024,30.528C141.097,493.167,129.793,482.583,128.281,476.823z" style="filter:url(#myGaussianBlur)" />
<path fill="#F3C108" stroke="#000000" stroke-width="0.7087" stroke-linecap="round" stroke-linejoin="round" stroke-miterlimit="10" d="
	M693.337,400.791c-0.504,13.536,0.432,23.472-11.52,29.232C681.025,416.415,691.897,406.263,693.337,400.791z" style="filter:url(#myGaussianBlur)" />
<path fill="#F3C108" stroke="#000000" stroke-width="0.7087" stroke-linecap="round" stroke-linejoin="round" stroke-miterlimit="10" d="
	M171.697,280.551c-12.456-0.576-21.456-2.016-27.576,8.352C156.505,290.559,166.513,281.415,171.697,280.551z" style="filter:url(#myGaussianBlur)" />
<path fill="#F3C108" stroke="#000000" stroke-width="0.7087" stroke-linecap="round" stroke-linejoin="round" stroke-miterlimit="10" d="
	M651.721,212.439c11.952-0.504,20.52-1.944,26.424,8.136C666.265,222.159,656.617,213.375,651.721,212.439z" style="filter:url(#myGaussianBlur)" />
<path fill="#F3C108" stroke="#000000" stroke-width="0.7087" stroke-linecap="round" stroke-linejoin="round" stroke-miterlimit="10" d="
	M125.545,424.911c-4.68,13.392-9.288,22.68,0.144,32.76C131.593,444.783,124.825,430.815,125.545,424.911z" style="filter:url(#myGaussianBlur)" />
<path fill="#F3C108" stroke="#000000" stroke-width="0.7087" stroke-linecap="round" stroke-linejoin="round" stroke-miterlimit="10" d="
	M695.929,350.967c4.464,12.816,8.928,21.744-0.072,31.464C690.169,369.975,696.577,356.583,695.929,350.967z" style="filter:url(#myGaussianBlur)" />
<path fill="#F3C108" stroke="#000000" stroke-width="0.7087" stroke-linecap="round" stroke-linejoin="round" stroke-miterlimit="10" d="
	M554.233,553.071c-15.192-0.648-26.208-2.52-33.624,10.368C535.729,565.455,547.969,554.151,554.233,553.071z" style="filter:url(#myGaussianBlur)" />
<path fill="#F3C108" stroke="#000000" stroke-width="0.7087" stroke-linecap="round" stroke-linejoin="round" stroke-miterlimit="10" d="
	M334.417,552.135c-15.192-0.576-26.208-2.448-33.624,10.368C315.913,564.519,328.153,553.287,334.417,552.135z" style="filter:url(#myGaussianBlur)" />
<path fill="#F3C108" stroke="#000000" stroke-width="0.7087" stroke-linecap="round" stroke-linejoin="round" stroke-miterlimit="10" d="
	M38.929,75.783c-13.032-0.504-22.536-2.088-28.944,8.928C23.017,86.439,33.529,76.791,38.929,75.783z" style="filter:url(#myGaussianBlur)" />
<path fill="#F3C108" stroke="#000000" stroke-width="0.7087" stroke-linecap="round" stroke-linejoin="round" stroke-miterlimit="10" d="
	M505.417,492.375c-15.192-0.648-26.136-2.52-33.624,10.296C486.913,504.687,499.153,493.455,505.417,492.375z" style="filter:url(#myGaussianBlur)" />
<path fill="#F3C108" stroke="#000000" stroke-width="0.7087" stroke-linecap="round" stroke-linejoin="round" stroke-miterlimit="10" d="
	M325.777,3.423c-13.104-0.576-22.536-2.16-28.944,8.928C309.865,14.079,320.377,4.359,325.777,3.423z" style="filter:url(#myGaussianBlur)" />
<path fill="#F3C108" stroke="#000000" stroke-width="0.7087" stroke-linecap="round" stroke-linejoin="round" stroke-miterlimit="10" d="
	M140.953,316.839c-12.456-0.504-21.456-2.016-27.504,8.496C125.833,326.991,135.841,317.775,140.953,316.839z" style="filter:url(#myGaussianBlur)" />
<path fill="#F3C108" stroke="#000000" stroke-width="0.7087" stroke-linecap="round" stroke-linejoin="round" stroke-miterlimit="10" d="
	M681.169,247.359c11.952-0.504,20.52-1.944,26.424,8.136C695.713,257.079,686.065,248.223,681.169,247.359z" style="filter:url(#myGaussianBlur)" />
<path fill="#F3C108" stroke="#000000" stroke-width="0.7087" stroke-linecap="round" stroke-linejoin="round" stroke-miterlimit="10" d="
	M498.361,414.687c-15.192-0.576-26.136-2.448-33.624,10.368C479.857,427.071,492.097,415.839,498.361,414.687z" style="filter:url(#myGaussianBlur)" />
<path fill="#F3C108" stroke="#000000" stroke-width="0.7087" stroke-linecap="round" stroke-linejoin="round" stroke-miterlimit="10" d="
	M362.857,9.039c-9.144,9.288-14.976,16.92-27.216,13.248C343.993,12.135,358.321,11.991,362.857,9.039z" style="filter:url(#myGaussianBlur)" />
<path fill="#F3C108" stroke="#000000" stroke-width="0.7087" stroke-linecap="round" stroke-linejoin="round" stroke-miterlimit="10" d="
	M136.561,324.255c0.504,12.456,2.016,21.456-8.496,27.576C126.409,339.375,135.625,329.367,136.561,324.255z" style="filter:url(#myGaussianBlur)" />
<path fill="#F3C108" stroke="#000000" stroke-width="0.7087" stroke-linecap="round" stroke-linejoin="round" stroke-miterlimit="10" d="
	M685.417,254.487c-0.504,11.952-1.944,20.52,8.136,26.424C695.137,269.031,686.281,259.383,685.417,254.487z" style="filter:url(#myGaussianBlur)" />
<path fill="#F3C108" stroke="#000000" stroke-width="0.7087" stroke-linecap="round" stroke-linejoin="round" stroke-miterlimit="10" d="
	M135.697,25.239c0.576,13.032,2.16,22.464-8.856,28.872C125.113,41.151,134.761,30.639,135.697,25.239z" style="filter:url(#myGaussianBlur)" />
<path fill="#F3C108" stroke="#000000" stroke-width="0.7087" stroke-linecap="round" stroke-linejoin="round" stroke-miterlimit="10" d="
	M98.545,316.119c0.504,12.456,2.016,21.456-8.496,27.504C88.393,331.239,97.609,321.231,98.545,316.119z" style="filter:url(#myGaussianBlur)" />
<path fill="#F3C108" stroke="#000000" stroke-width="0.7087" stroke-linecap="round" stroke-linejoin="round" stroke-miterlimit="10" d="
	M721.849,246.639c-0.504,11.952-1.944,20.592,8.136,26.424C731.569,261.183,722.713,251.607,721.849,246.639z" style="filter:url(#myGaussianBlur)" />
<path fill="#F3C108" stroke="#000000" stroke-width="0.7087" stroke-linecap="round" stroke-linejoin="round" stroke-miterlimit="10" d="
	M496.273,433.551c0.648,15.192,2.448,26.208-10.368,33.624C483.889,452.055,495.121,439.815,496.273,433.551z" style="filter:url(#myGaussianBlur)" />
<path fill="#F3C108" stroke="#000000" stroke-width="0.7087" stroke-linecap="round" stroke-linejoin="round" stroke-miterlimit="10" d="
	M57.433,451.479c-14.544,0.648-25.056,2.376-32.184-9.864C39.721,439.671,51.457,450.471,57.433,451.479z" style="filter:url(#myGaussianBlur)" />
<path fill="#F3C108" stroke="#000000" stroke-width="0.7087" stroke-linecap="round" stroke-linejoin="round" stroke-miterlimit="10" d="
	M757.201,375.087c13.968,0.648,24.048,2.304,30.888-9.504C774.193,363.783,762.961,374.079,757.201,375.087z" style="filter:url(#myGaussianBlur)" />
<path fill="#F3C108" stroke="#000000" stroke-width="0.7087" stroke-linecap="round" stroke-linejoin="round" stroke-miterlimit="10" d="
	M468.193,554.295c-12.24-6.984-20.592-13.176-32.256-5.76C447.601,556.671,462.577,552.567,468.193,554.295z" style="filter:url(#myGaussianBlur)" />
<path fill="#F3C108" stroke="#000000" stroke-width="0.7087" stroke-linecap="round" stroke-linejoin="round" stroke-miterlimit="10" d="
	M105.169,266.151c0.504-12.384,2.016-21.384-8.496-27.504C95.017,251.031,104.233,261.039,105.169,266.151z" style="filter:url(#myGaussianBlur)" />
<path fill="#F3C108" stroke="#000000" stroke-width="0.7087" stroke-linecap="round" stroke-linejoin="round" stroke-miterlimit="10" d="
	M9.049,193.431c0.504-12.456,2.016-21.456-8.496-27.504C-1.103,178.311,8.113,188.319,9.049,193.431z" style="filter:url(#myGaussianBlur)" />
<path fill="#F3C108" stroke="#000000" stroke-width="0.7087" stroke-linecap="round" stroke-linejoin="round" stroke-miterlimit="10" d="
	M195.457,10.407c13.104-0.576,22.536-2.16,28.944,8.928C211.369,21.063,200.857,11.343,195.457,10.407z" style="filter:url(#myGaussianBlur)" />
<path fill="#F3C108" stroke="#000000" stroke-width="0.7087" stroke-linecap="round" stroke-linejoin="round" stroke-miterlimit="10" d="
	M108.625,36.183c13.032-0.504,22.464-2.088,28.872,8.928C124.537,46.839,114.025,37.191,108.625,36.183z" style="filter:url(#myGaussianBlur)" />
<path fill="#F3C108" stroke="#000000" stroke-width="0.7087" stroke-linecap="round" stroke-linejoin="round" stroke-miterlimit="10" d="
	M6.025,59.511c-0.792,19.296-2.232,34.056,5.544,35.496C13.297,74.991,6.601,66.639,6.025,59.511z" style="filter:url(#myGaussianBlur)" />
<path fill="#F3C108" stroke="#000000" stroke-width="0.7087" stroke-linecap="round" stroke-linejoin="round" stroke-miterlimit="10" d="
	M621.697,564.519c21.816-23.04,37.656-41.688,48.312-34.128C648.265,555.375,630.697,556.959,621.697,564.519z" style="filter:url(#myGaussianBlur)" />
<path fill="#F3C108" stroke="#000000" stroke-width="0.7087" stroke-linecap="round" stroke-linejoin="round" stroke-miterlimit="10" d="
	M138.721,66.711c9.864,10.368,16.992,18.72,21.816,15.336C150.745,70.815,142.825,70.095,138.721,66.711z" style="filter:url(#myGaussianBlur)" />
<path fill="#F3C108" stroke="#000000" stroke-width="0.7087" stroke-linecap="round" stroke-linejoin="round" stroke-miterlimit="10" d="
	M16.177,227.415c20.808,21.96,35.856,39.744,46.08,32.472C41.521,236.127,24.817,234.543,16.177,227.415z" style="filter:url(#myGaussianBlur)" />
<path fill="#F3C108" stroke="#000000" stroke-width="0.7087" stroke-linecap="round" stroke-linejoin="round" stroke-miterlimit="10" d="
	M266.161,14.943c9.72,10.8,15.84,19.512,29.52,15.984C286.969,19.263,271.129,18.471,266.161,14.943z" style="filter:url(#myGaussianBlur)" />
<path fill="#F3C108" stroke="#000000" stroke-width="0.7087" stroke-linecap="round" stroke-linejoin="round" stroke-miterlimit="10" d="
	M418.225,564.951c-10.512-13.68-16.92-24.552-33.552-21.672C394.033,557.967,412.681,560.343,418.225,564.951z" style="filter:url(#myGaussianBlur)" />
<path fill="#F3C108" stroke="#000000" stroke-width="0.7087" stroke-linecap="round" stroke-linejoin="round" stroke-miterlimit="10" d="
	M171.337,34.239c-0.792-14.544,0-25.2-12.888-31.176C157.873,17.679,169.681,28.335,171.337,34.239z" style="filter:url(#myGaussianBlur)" />
<path fill="#F3C108" stroke="#000000" stroke-width="0.7087" stroke-linecap="round" stroke-linejoin="round" stroke-miterlimit="10" d="
	M77.809,316.839c-0.792-15.12,0-26.28-13.464-32.4C63.769,299.631,76.081,310.719,77.809,316.839z" style="filter:url(#myGaussianBlur)" />
<path fill="#F3C108" stroke="#000000" stroke-width="0.7087" stroke-linecap="round" stroke-linejoin="round" stroke-miterlimit="10" d="
	M741.721,247.431c0.792-14.616,0-25.272,12.96-31.248C755.185,230.871,743.377,241.527,741.721,247.431z" style="filter:url(#myGaussianBlur)" />
<path fill="#F3C108" stroke="#000000" stroke-width="0.7087" stroke-linecap="round" stroke-linejoin="round" stroke-miterlimit="10" d="
	M771.097,524.847c-9.576-10.44-15.552-18.864-28.944-15.336C750.793,520.815,766.273,521.463,771.097,524.847z" style="filter:url(#myGaussianBlur)" />
<path fill="#F3C108" stroke="#000000" stroke-width="0.7087" stroke-linecap="round" stroke-linejoin="round" stroke-miterlimit="10" d="
	M465.673,299.487c-9.576-10.368-15.624-18.792-28.944-15.264C445.369,295.455,460.849,296.103,465.673,299.487z" style="filter:url(#myGaussianBlur)" />
<path fill="#F3C108" stroke="#000000" stroke-width="0.7087" stroke-linecap="round" stroke-linejoin="round" stroke-miterlimit="10" d="
	M788.953,520.095c8.424-11.448,15.48-19.008,9.432-31.392C789.025,499.359,791.401,514.623,788.953,520.095z" style="filter:url(#myGaussianBlur)" />
<path fill="#F3C108" stroke="#000000" stroke-width="0.7087" stroke-linecap="round" stroke-linejoin="round" stroke-miterlimit="10" d="
	M483.529,294.735c8.352-11.376,15.48-18.936,9.432-31.32C483.529,274.071,485.905,289.263,483.529,294.735z" style="filter:url(#myGaussianBlur)" />
<path fill="#F3C108" stroke="#000000" stroke-width="0.7087" stroke-linecap="round" stroke-linejoin="round" stroke-miterlimit="10" d="
	M705.001,485.535c-0.576-13.752-2.232-23.688,9.36-30.456C716.161,468.831,706.009,479.847,705.001,485.535z" style="filter:url(#myGaussianBlur)" />
<path fill="#F3C108" stroke="#000000" stroke-width="0.7087" stroke-linecap="round" stroke-linejoin="round" stroke-miterlimit="10" d="
	M679.657,505.623c-0.576,13.752-2.232,23.688,9.36,30.456C690.889,522.327,680.665,511.311,679.657,505.623z" style="filter:url(#myGaussianBlur)" />
<path fill="#F3C108" stroke="#000000" stroke-width="0.7087" stroke-linecap="round" stroke-linejoin="round" stroke-miterlimit="10" d="
	M763.177,533.631c-9.576,10.44-15.624,18.864-29.016,15.336C742.801,537.663,758.281,537.015,763.177,533.631z" style="filter:url(#myGaussianBlur)" />
<path fill="#F3C108" stroke="#000000" stroke-width="0.7087" stroke-linecap="round" stroke-linejoin="round" stroke-miterlimit="10" d="
	M724.513,474.879c-0.576,14.112-2.304,24.408,9.648,31.32C736.033,492.087,725.593,480.711,724.513,474.879z" style="filter:url(#myGaussianBlur)" />
<path fill="#F3C108" stroke="#000000" stroke-width="0.7087" stroke-linecap="round" stroke-linejoin="round" stroke-miterlimit="10" d="
	M699.169,516.279c-0.576-14.184-2.304-24.408,9.648-31.32C710.689,499.071,700.249,510.447,699.169,516.279z" style="filter:url(#myGaussianBlur)" />
<path fill="#F3C108" stroke="#000000" stroke-width="0.7087" stroke-linecap="round" stroke-linejoin="round" stroke-miterlimit="10" d="
	M668.209,480.279c-10.008,11.52-18.288,18.936-12.888,32.76C666.337,502.455,665.185,485.895,668.209,480.279z" style="filter:url(#myGaussianBlur)" />
<path fill="#F3C108" stroke="#000000" stroke-width="0.7087" stroke-linecap="round" stroke-linejoin="round" stroke-miterlimit="10" d="
	M215.545,229.863c13.392-3.168,22.896-6.696,31.68,3.456C234.121,237.711,221.305,229.791,215.545,229.863z" style="filter:url(#myGaussianBlur)" />
<path fill="#F3C108" stroke="#000000" stroke-width="0.7087" stroke-linecap="round" stroke-linejoin="round" stroke-miterlimit="10" d="
	M160.465,234.183c14.04,9.864,23.328,18.288,38.232,10.584C185.521,233.679,167.089,236.919,160.465,234.183z" style="filter:url(#myGaussianBlur)" />
<path fill="#F3C108" stroke="#000000" stroke-width="0.7087" stroke-linecap="round" stroke-linejoin="round" stroke-miterlimit="10" d="
	M782.761,62.319c-9.648-10.44-15.624-18.864-29.016-15.336C762.385,58.287,777.865,58.935,782.761,62.319z" style="filter:url(#myGaussianBlur)" />
<path fill="#F3C108" stroke="#000000" stroke-width="0.7087" stroke-linecap="round" stroke-linejoin="round" stroke-miterlimit="10" d="
	M769.153,74.271c-9.576,10.44-15.552,18.864-28.944,15.336C748.849,78.303,764.329,77.655,769.153,74.271z" style="filter:url(#myGaussianBlur)" />
<path fill="#F3C108" stroke="#000000" stroke-width="0.7087" stroke-linecap="round" stroke-linejoin="round" stroke-miterlimit="10" d="
	M732.073,10.983c-0.576,14.184-2.304,24.408,9.648,31.32C743.593,28.191,733.081,16.815,732.073,10.983z" style="filter:url(#myGaussianBlur)" />
<path fill="#F3C108" stroke="#000000" stroke-width="0.7087" stroke-linecap="round" stroke-linejoin="round" stroke-miterlimit="10" d="
	M577.921,22.719c2.664,14.832,5.904,25.344-5.688,34.416C568.273,42.519,577.705,29.055,577.921,22.719z" style="filter:url(#myGaussianBlur)" />
<path fill="#F3C108" stroke="#000000" stroke-width="0.7087" stroke-linecap="round" stroke-linejoin="round" stroke-miterlimit="10" d="
	M554.521,44.103c-2.592-14.832-5.904-25.344,5.76-34.416C564.241,24.303,554.809,37.839,554.521,44.103z" style="filter:url(#myGaussianBlur)" />
<path fill="#F3C108" stroke="#000000" stroke-width="0.7087" stroke-linecap="round" stroke-linejoin="round" stroke-miterlimit="10" d="
	M598.513,0.903c17.208,11.376,30.96,19.368,27.36,27.072C607.369,16.887,604.345,5.799,598.513,0.903z" style="filter:url(#myGaussianBlur)" />
<path fill="#F3C108" stroke="#000000" stroke-width="0.7087" stroke-linecap="round" stroke-linejoin="round" stroke-miterlimit="10" d="
	M742.009,113.151c-15.264,0-26.28-1.368-33.192,11.808C724.009,126.327,735.745,114.591,742.009,113.151z" style="filter:url(#myGaussianBlur)" />
<path fill="#F3C108" stroke="#000000" stroke-width="0.7087" stroke-linecap="round" stroke-linejoin="round" stroke-miterlimit="10" d="
	M500.377,217.695c-15.264,0-26.28-1.368-33.192,11.736C482.377,230.871,494.113,219.063,500.377,217.695z" style="filter:url(#myGaussianBlur)" />
<path fill="#F3C108" stroke="#000000" stroke-width="0.7087" stroke-linecap="round" stroke-linejoin="round" stroke-miterlimit="10" d="
	M723.577,135.471c15.192,0,26.28,1.368,33.192-11.736C741.505,122.295,729.769,134.031,723.577,135.471z" style="filter:url(#myGaussianBlur)" />
<path fill="#F3C108" stroke="#000000" stroke-width="0.7087" stroke-linecap="round" stroke-linejoin="round" stroke-miterlimit="10" d="
	M714.145,139.359c7.344,6.696,13.32,10.944,10.8,20.376C716.953,153.687,716.521,142.743,714.145,139.359z" style="filter:url(#myGaussianBlur)" />
<path fill="#F3C108" stroke="#000000" stroke-width="0.7087" stroke-linecap="round" stroke-linejoin="round" stroke-miterlimit="10" d="
	M781.537,200.343c-13.104-0.504-22.608-2.088-29.016,9C765.553,211.071,776.137,201.351,781.537,200.343z" style="filter:url(#myGaussianBlur)" />
<path fill="#F3C108" stroke="#000000" stroke-width="0.7087" stroke-linecap="round" stroke-linejoin="round" stroke-miterlimit="10" d="
	M752.809,156.855c10.728,11.952,19.656,19.656,14.256,34.344C755.185,180.255,756.121,162.759,752.809,156.855z" style="filter:url(#myGaussianBlur)" />
<path fill="#F3C108" stroke="#000000" stroke-width="0.7087" stroke-linecap="round" stroke-linejoin="round" stroke-miterlimit="10" d="
	M655.105,246.495c10.728,11.88,19.656,19.584,14.184,34.272C657.481,269.823,658.417,252.327,655.105,246.495z" style="filter:url(#myGaussianBlur)" />
<path fill="#F3C108" stroke="#000000" stroke-width="0.7087" stroke-linecap="round" stroke-linejoin="round" stroke-miterlimit="10" d="
	M630.841,155.775c9.576-10.44,15.624-18.936,28.944-15.336C651.145,151.671,635.737,152.319,630.841,155.775z" style="filter:url(#myGaussianBlur)" />
<path fill="#F3C108" stroke="#000000" stroke-width="0.7087" stroke-linecap="round" stroke-linejoin="round" stroke-miterlimit="10" d="
	M643.081,162.399c9.648,10.44,15.624,18.936,29.016,15.336C663.457,166.503,647.977,165.855,643.081,162.399z" style="filter:url(#myGaussianBlur)" />
<path fill="#F3C108" stroke="#000000" stroke-width="0.7087" stroke-linecap="round" stroke-linejoin="round" stroke-miterlimit="10" d="
	M775.273,8.895c11.88,11.88,21.672,19.512,16.776,35.208C779.089,33.231,779.089,14.871,775.273,8.895z" style="filter:url(#myGaussianBlur)" />
<path fill="#F3C108" stroke="#000000" stroke-width="0.7087" stroke-linecap="round" stroke-linejoin="round" stroke-miterlimit="10" d="
	M692.113,7.167c-10.44,9.576-18.864,15.624-15.336,29.016C688.081,27.543,688.729,12.063,692.113,7.167z" style="filter:url(#myGaussianBlur)" />
<path fill="#F3C108" stroke="#000000" stroke-width="0.7087" stroke-linecap="round" stroke-linejoin="round" stroke-miterlimit="10" d="
	M73.705,351.183c0-20.016,1.8-34.56-15.48-43.632C56.425,327.567,71.905,342.975,73.705,351.183z" style="filter:url(#myGaussianBlur)" />
<path fill="#F3C108" stroke="#000000" stroke-width="0.7087" stroke-linecap="round" stroke-linejoin="round" stroke-miterlimit="10" d="
	M467.761,493.887c0-15.264,1.44-26.424-11.808-33.408C454.585,475.815,466.393,487.623,467.761,493.887z" style="filter:url(#myGaussianBlur)" />
</svg>
