<?xml version="1.0" encoding="utf-8"?>
<!-- Generator: Adobe Illustrator 15.0.0, SVG Export Plug-In  -->
<!DOCTYPE svg PUBLIC "-//W3C//DTD SVG 1.1//EN" "http://www.w3.org/Graphics/SVG/1.1/DTD/svg11.dtd" [
	<!ENTITY ns_flows "http://ns.adobe.com/Flows/1.0/">
]>
<svg version="1.1"
	 xmlns="http://www.w3.org/2000/svg" xmlns:xlink="http://www.w3.org/1999/xlink" xmlns:a="http://ns.adobe.com/AdobeSVGViewerExtensions/3.0/"
	 x="0px" y="0px" width="814px" height="573px" viewBox="-3.277 0 814 573"
	 overflow="visible" enable-background="new -3.277 0 814 573" xml:space="preserve">
<defs>
</defs>
<filter  id="myGaussianBlur">
	<feGaussianBlur  stdDeviation="2" in="SourceGraphic"></feGaussianBlur>
</filter>
<g filter="url(#myGaussianBlur)">
	<path fill="#CA6C38" d="M19.123,5.788l-0.863,32.905c0,1.8,3.099-5.328,3.099-6.192c0.861-2.664,3.6-6.696,3.6-8.928
		c0,6.696,9.721,13.752,9.721,16.92c0-15.552-10.225-18.216,5.328-13.392c3.168,0.936,11.592,4.464,7.562-0.864l-6.192-8.424
		c18.648,0,14.688-5.328-1.367-8.424c-3.96-0.504-8.854-3.168-11.521-3.6l-4.465-0.432C23.586,5.357,20.492,6.724,19.123,5.788z"/>
	
		<path fill="none" stroke="#000000" stroke-width="0.7087" stroke-linecap="round" stroke-linejoin="round" stroke-miterlimit="10" d="
		M19.123,5.788l-0.863,32.905c0,1.8,3.099-5.328,3.099-6.192c0.861-2.664,3.6-6.696,3.6-8.928c0,6.696,9.721,13.752,9.721,16.92
		c0-15.552-10.225-18.216,5.328-13.392c3.168,0.936,11.592,4.464,7.562-0.864l-6.192-8.424c18.648,0,14.688-5.328-1.367-8.424
		c-3.96-0.504-8.854-3.168-11.521-3.6l-4.465-0.432C23.586,5.357,20.492,6.724,19.123,5.788z"/>
</g>
<g filter="url(#myGaussianBlur)">
	<path fill="#CA6C38" d="M325.408,555.039v-31.464c0.069-1.656,2.88,5.184,2.808,6.048c0.792,2.592,3.24,6.479,3.168,8.568
		c0.217-6.336,9.721-12.892,9.792-15.841c-0.432,14.829-10.224,17.137,4.752,12.889c2.952-0.792,11.16-3.96,7.2,1.08l-6.191,7.848
		c17.855,0.504,13.896,5.544-1.513,8.064c-3.815,0.288-8.567,2.732-11.159,3.096l-4.248,0.288
		C329.583,555.615,326.705,554.247,325.408,555.039z"/>
	
		<path fill="none" stroke="#000000" stroke-width="0.7087" stroke-linecap="round" stroke-linejoin="round" stroke-miterlimit="10" d="
		M325.408,555.039v-31.464c0.069-1.656,2.88,5.184,2.808,6.048c0.792,2.592,3.24,6.479,3.168,8.568
		c0.217-6.336,9.721-12.892,9.792-15.841c-0.432,14.829-10.224,17.137,4.752,12.889c2.952-0.792,11.16-3.96,7.2,1.08l-6.191,7.848
		c17.855,0.504,13.896,5.544-1.513,8.064c-3.815,0.288-8.567,2.732-11.159,3.096l-4.248,0.288
		C329.583,555.615,326.705,554.247,325.408,555.039z"/>
</g>
<g filter="url(#myGaussianBlur)">
	<path fill="#CA6C38" d="M437.08,550.503l-29.16-11.808c-1.512-0.648,5.904-0.648,6.696-0.36c2.664,0.288,7.197-0.576,9.144,0.288
		c-5.903-2.52-8.352-13.824-11.088-14.976c13.608,5.9,12.024,15.911,13.681,0.432c0.435-3.096,0.504-11.88,3.672-6.336l5.04,8.712
		c7.128-16.344,10.296-10.872,6.912,4.393c-1.149,3.675-0.721,8.931-1.297,11.447l-1.296,4.104
		C439.167,546.759,436.864,548.991,437.08,550.503z"/>
	
		<path fill="none" stroke="#000000" stroke-width="0.7087" stroke-linecap="round" stroke-linejoin="round" stroke-miterlimit="10" d="
		M437.08,550.503l-29.16-11.808c-1.512-0.648,5.904-0.648,6.696-0.36c2.664,0.288,7.197-0.576,9.144,0.288
		c-5.903-2.52-8.352-13.824-11.088-14.976c13.608,5.9,12.024,15.911,13.681,0.432c0.435-3.096,0.504-11.88,3.672-6.336l5.04,8.712
		c7.128-16.344,10.296-10.872,6.912,4.393c-1.149,3.675-0.721,8.931-1.297,11.447l-1.296,4.104
		C439.167,546.759,436.864,548.991,437.08,550.503z"/>
</g>
<g filter="url(#myGaussianBlur)">
	<path fill="#CA6C38" d="M131.44,525.591l38.304-12.312c2.088-0.576-5.184,5.472-6.264,5.76c-2.812,1.944-6.555,6.479-9.219,7.2
		c7.851-2.232,19.515,6.768,23.187,5.688c-18.288,5.328-24.84-5.76-13.824,10.872c2.088,3.312,9.145,12.024,1.513,9.146
		l-12.021-4.396c6.408,21.892-1.227,19.01-10.368,1.297c-1.872-4.534-6.624-9.357-8.063-12.312l-2.088-5.112
		C132.448,530.919,132.952,526.815,131.44,525.591z"/>
	
		<path fill="none" stroke="#000000" stroke-width="0.7087" stroke-linecap="round" stroke-linejoin="round" stroke-miterlimit="10" d="
		M131.44,525.591l38.304-12.312c2.088-0.576-5.184,5.472-6.264,5.76c-2.812,1.944-6.555,6.479-9.219,7.2
		c7.851-2.232,19.515,6.768,23.187,5.688c-18.288,5.328-24.84-5.76-13.824,10.872c2.088,3.312,9.145,12.024,1.513,9.146
		l-12.021-4.396c6.408,21.892-1.227,19.01-10.368,1.297c-1.872-4.534-6.624-9.357-8.063-12.312l-2.088-5.112
		C132.448,530.919,132.952,526.815,131.44,525.591z"/>
</g>
<g filter="url(#myGaussianBlur)">
	<path fill="#CA6C38" d="M300.305,476.27l36.359-9c1.942-0.504-6.77-1.802-7.774-1.514c-3.169-0.145-8.354-1.872-10.801-1.149
		c7.271-2.089,12.097-14.903,15.553-15.912c-17.062,4.752-16.921,16.773-16.271-1.801c0.071-3.674,1.368-13.97-3.239-7.991
		l-7.416,9.433c-5.615-20.521-10.297-14.473-8.854,3.96c0.793,4.536-0.647,10.729-0.359,13.752l0.864,5.04
		C298.505,471.59,300.881,474.542,300.305,476.27z"/>
	
		<path fill="none" stroke="#000000" stroke-width="0.7087" stroke-linecap="round" stroke-linejoin="round" stroke-miterlimit="10" d="
		M300.305,476.27l36.359-9c1.942-0.504-6.77-1.802-7.774-1.514c-3.169-0.145-8.354-1.872-10.801-1.149
		c7.271-2.089,12.097-14.903,15.553-15.912c-17.062,4.752-16.921,16.773-16.271-1.801c0.071-3.674,1.368-13.97-3.239-7.991
		l-7.416,9.433c-5.615-20.521-10.297-14.473-8.854,3.96c0.793,4.536-0.647,10.729-0.359,13.752l0.864,5.04
		C298.505,471.59,300.881,474.542,300.305,476.27z"/>
</g>
<g filter="url(#myGaussianBlur)">
	<path fill="#CA6C38" d="M800.927,399.016l-34.848-8.643c-1.872-0.504,6.479-1.729,7.416-1.438
		c3.096-0.218,8.062-1.802,10.368-1.152c-6.984-1.943-11.595-14.328-14.904-15.264c16.344,4.535,16.2,16.056,15.552-1.729
		c0-3.526-1.296-13.394,3.169-7.632l7.059,9c5.472-19.656,9.861-13.896,8.493,3.814c-0.72,4.394,0.723,10.297,0.359,13.247
		l-0.792,4.753C802.656,394.479,800.35,397.359,800.927,399.016z"/>
	
		<path fill="none" stroke="#000000" stroke-width="0.7087" stroke-linecap="round" stroke-linejoin="round" stroke-miterlimit="10" d="
		M800.927,399.016l-34.848-8.643c-1.872-0.504,6.479-1.729,7.416-1.438c3.096-0.218,8.062-1.802,10.368-1.152
		c-6.984-1.943-11.595-14.328-14.904-15.264c16.344,4.535,16.2,16.056,15.552-1.729c0-3.526-1.296-13.394,3.169-7.632l7.059,9
		c5.472-19.656,9.861-13.896,8.493,3.814c-0.72,4.394,0.723,10.297,0.359,13.247l-0.792,4.753
		C802.656,394.479,800.35,397.359,800.927,399.016z"/>
</g>
<g filter="url(#myGaussianBlur)">
	<path fill="#CA6C38" d="M513.524,496.711l-1.008,37.439c0,2.017,3.527-6.049,3.527-7.128c1.008-3.023,4.032-7.562,4.032-10.08
		c0,7.561,11.158,15.693,11.158,19.225c0-17.713-11.663-20.736,6.05-15.192c3.525,1.011,13.176,5.04,8.64-1.008l-7.128-9.576
		c21.24,0,16.704-6.117-1.512-9.646c-4.536-0.504-10.08-3.527-13.104-4.031l-5.111-0.505
		C518.564,496.206,515.039,497.719,513.524,496.711z"/>
	
		<path fill="none" stroke="#000000" stroke-width="0.7087" stroke-linecap="round" stroke-linejoin="round" stroke-miterlimit="10" d="
		M513.524,496.711l-1.008,37.439c0,2.017,3.527-6.049,3.527-7.128c1.008-3.023,4.032-7.562,4.032-10.08
		c0,7.561,11.158,15.693,11.158,19.225c0-17.713-11.663-20.736,6.05-15.192c3.525,1.011,13.176,5.04,8.64-1.008l-7.128-9.576
		c21.24,0,16.704-6.117-1.512-9.646c-4.536-0.504-10.08-3.527-13.104-4.031l-5.111-0.505
		C518.564,496.206,515.039,497.719,513.524,496.711z"/>
</g>
<g filter="url(#myGaussianBlur)">
	<path fill="#CA6C38" d="M14.512,537.759l12.815-30.741c0.721-1.585,0.646,6.265,0.288,7.057c-0.288,2.808,0.504,7.632-0.359,9.646
		c2.735-6.118,14.688-8.64,15.983-11.52c-6.479,14.328-16.992,12.6-0.576,14.472c3.168,0.504,12.456,0.72,6.553,3.96L40,535.888
		c17.208,7.704,11.305,10.944-4.752,7.2c-3.815-1.224-9.432-0.792-12.096-1.512l-4.248-1.368
		C18.472,539.991,16.167,537.471,14.512,537.759z"/>
	
		<path fill="none" stroke="#000000" stroke-width="0.7087" stroke-linecap="round" stroke-linejoin="round" stroke-miterlimit="10" d="
		M14.512,537.759l12.815-30.741c0.721-1.585,0.646,6.265,0.288,7.057c-0.288,2.808,0.504,7.632-0.359,9.646
		c2.735-6.118,14.688-8.64,15.983-11.52c-6.479,14.328-16.992,12.6-0.576,14.472c3.168,0.504,12.456,0.72,6.553,3.96L40,535.888
		c17.208,7.704,11.305,10.944-4.752,7.2c-3.815-1.224-9.432-0.792-12.096-1.512l-4.248-1.368
		C18.472,539.991,16.167,537.471,14.512,537.759z"/>
</g>
<g filter="url(#myGaussianBlur)">
	<path fill="#CA6C38" d="M266.224,550.863l-25.197,6.336c-1.368,0.358,3.6-3.312,4.317-3.456c1.872-1.152,4.464-3.888,6.191-4.248
		c-5.111,1.151-12.312-5.185-14.688-4.608c11.952-2.732,15.771,4.684,9.359-6.479c-1.224-2.232-5.472-8.136-0.646-5.978l7.56,3.386
		c-3.168-14.4,1.584-12.24,6.769-0.436c1.011,3.024,3.96,6.268,4.752,8.28l1.08,3.312
		C265.792,547.335,265.36,549.999,266.224,550.863z"/>
	
		<path fill="none" stroke="#000000" stroke-width="0.7087" stroke-linecap="round" stroke-linejoin="round" stroke-miterlimit="10" d="
		M266.224,550.863l-25.197,6.336c-1.368,0.358,3.6-3.312,4.317-3.456c1.872-1.152,4.464-3.888,6.191-4.248
		c-5.111,1.151-12.312-5.185-14.688-4.608c11.952-2.732,15.771,4.684,9.359-6.479c-1.224-2.232-5.472-8.136-0.646-5.978l7.56,3.386
		c-3.168-14.4,1.584-12.24,6.769-0.436c1.011,3.024,3.96,6.268,4.752,8.28l1.08,3.312
		C265.792,547.335,265.36,549.999,266.224,550.863z"/>
</g>
<g filter="url(#myGaussianBlur)">
	<path fill="#CA6C38" d="M682.451,420.82l-11.81,30.745c-0.646,1.653-0.792-6.119-0.434-6.984c0.146-2.807-0.792-7.487,0.072-9.575
		c-2.521,6.192-14.328,9-15.479,11.88c5.978-14.397,16.416-12.889,0.146-14.326c-3.24-0.434-12.386-0.358-6.624-3.743l9-5.475
		c-17.28-7.127-11.521-10.513,4.464-7.271c3.888,1.152,9.433,0.505,12.022,1.152l4.318,1.295
		C678.561,418.661,680.867,421.109,682.451,420.82z"/>
	
		<path fill="none" stroke="#000000" stroke-width="0.7087" stroke-linecap="round" stroke-linejoin="round" stroke-miterlimit="10" d="
		M682.451,420.82l-11.81,30.745c-0.646,1.653-0.792-6.119-0.434-6.984c0.146-2.807-0.792-7.487,0.072-9.575
		c-2.521,6.192-14.328,9-15.479,11.88c5.978-14.397,16.416-12.889,0.146-14.326c-3.24-0.434-12.386-0.358-6.624-3.743l9-5.475
		c-17.28-7.127-11.521-10.513,4.464-7.271c3.888,1.152,9.433,0.505,12.022,1.152l4.318,1.295
		C678.561,418.661,680.867,421.109,682.451,420.82z"/>
</g>
<g filter="url(#myGaussianBlur)">
	<path fill="#CA6C38" d="M20.919,381.807L49.649,400.6c1.584,1.008-3.024-5.688-3.816-6.189c-1.872-2.229-3.96-6.771-5.976-7.992
		c5.976,3.672,17.64-1.148,20.376,0.576c-13.824-8.564-21.744-0.938-8.931-12.021c2.521-2.307,10.296-7.851,3.387-7.199
		l-10.944,0.862c10.296-16.562,3.384-15.983-8.208-3.454c-2.592,3.312-7.632,6.188-9.504,8.276l-2.811,3.744
		C22.936,377.559,22.431,381.087,20.919,381.807z"/>
	
		<path fill="none" stroke="#000000" stroke-width="0.7087" stroke-linecap="round" stroke-linejoin="round" stroke-miterlimit="10" d="
		M20.919,381.807L49.649,400.6c1.584,1.008-3.024-5.688-3.816-6.189c-1.872-2.229-3.96-6.771-5.976-7.992
		c5.976,3.672,17.64-1.148,20.376,0.576c-13.824-8.564-21.744-0.938-8.931-12.021c2.521-2.307,10.296-7.851,3.387-7.199
		l-10.944,0.862c10.296-16.562,3.384-15.983-8.208-3.454c-2.592,3.312-7.632,6.188-9.504,8.276l-2.811,3.744
		C22.936,377.559,22.431,381.087,20.919,381.807z"/>
</g>
<g filter="url(#myGaussianBlur)">
	<path fill="#CA6C38" d="M155.955,427.714l28.655-18.791c1.584-1.008-3.023,5.688-3.815,6.119c-1.871,2.306-3.96,6.84-5.901,8.062
		c5.901-3.671,17.565,1.151,20.376-0.575c-13.824,8.496-21.815,0.937-8.93,12.023c2.521,2.305,10.298,7.849,3.386,7.199
		l-10.944-0.863c10.226,16.561,3.312,15.911-8.208,3.456c-2.592-3.312-7.632-6.191-9.504-8.354l-2.88-3.673
		C157.971,431.892,157.467,428.436,155.955,427.714z"/>
	
		<path fill="none" stroke="#000000" stroke-width="0.7087" stroke-linecap="round" stroke-linejoin="round" stroke-miterlimit="10" d="
		M155.955,427.714l28.655-18.791c1.584-1.008-3.023,5.688-3.815,6.119c-1.871,2.306-3.96,6.84-5.901,8.062
		c5.901-3.671,17.565,1.151,20.376-0.575c-13.824,8.496-21.815,0.937-8.93,12.023c2.521,2.305,10.298,7.849,3.386,7.199
		l-10.944-0.863c10.226,16.561,3.312,15.911-8.208,3.456c-2.592-3.312-7.632-6.191-9.504-8.354l-2.88-3.673
		C157.971,431.892,157.467,428.436,155.955,427.714z"/>
</g>
<g filter="url(#myGaussianBlur)">
	<path fill="#CA6C38" d="M396.685,64.872l-11.089-26.136c-0.646-1.368-0.504,5.328-0.216,6.048c0.288,2.376-0.359,6.48,0.433,8.208
		c-2.376-5.184-12.601-7.272-13.752-9.72c5.615,12.168,14.544,10.584,0.647,12.384c-2.811,0.36-10.656,0.648-5.616,3.384l7.92,4.392
		c-14.688,6.696-9.646,9.432,4.032,6.12c3.312-1.08,8.062-0.72,10.296-1.368l3.672-1.224
		C393.374,66.816,395.318,64.656,396.685,64.872z"/>
	
		<path fill="none" stroke="#000000" stroke-width="0.7087" stroke-linecap="round" stroke-linejoin="round" stroke-miterlimit="10" d="
		M396.685,64.872l-11.089-26.136c-0.646-1.368-0.504,5.328-0.216,6.048c0.288,2.376-0.359,6.48,0.433,8.208
		c-2.376-5.184-12.601-7.272-13.752-9.72c5.615,12.168,14.544,10.584,0.647,12.384c-2.811,0.36-10.656,0.648-5.616,3.384l7.92,4.392
		c-14.688,6.696-9.646,9.432,4.032,6.12c3.312-1.08,8.062-0.72,10.296-1.368l3.672-1.224
		C393.374,66.816,395.318,64.656,396.685,64.872z"/>
</g>
<g filter="url(#myGaussianBlur)">
	<path fill="#CA6C38" d="M107.536,248.175l32.04,19.368c1.729,1.008-3.527-6.048-4.464-6.552c-2.088-2.376-4.536-7.272-6.771-8.496
		c6.624,3.744,19.151-1.944,22.179-0.144c-15.339-8.784-23.763-0.144-10.152-12.816c2.664-2.592,10.872-8.928,3.384-7.992
		l-11.88,1.44c10.513-18.432,3.024-17.496-9.071-3.456c-2.664,3.744-8.062,7.056-10.009,9.432l-2.951,4.176
		C109.552,243.567,109.12,247.383,107.536,248.175z"/>
	
		<path fill="none" stroke="#000000" stroke-width="0.7087" stroke-linecap="round" stroke-linejoin="round" stroke-miterlimit="10" d="
		M107.536,248.175l32.04,19.368c1.729,1.008-3.527-6.048-4.464-6.552c-2.088-2.376-4.536-7.272-6.771-8.496
		c6.624,3.744,19.151-1.944,22.179-0.144c-15.339-8.784-23.763-0.144-10.152-12.816c2.664-2.592,10.872-8.928,3.384-7.992
		l-11.88,1.44c10.513-18.432,3.024-17.496-9.071-3.456c-2.664,3.744-8.062,7.056-10.009,9.432l-2.951,4.176
		C109.552,243.567,109.12,247.383,107.536,248.175z"/>
</g>
<g filter="url(#myGaussianBlur)">
	<path fill="#CA6C38" d="M25.635,111.558l3.238,31.32c0.218,1.656,2.306-5.472,2.232-6.264c0.504-2.664,2.52-6.84,2.229-8.928
		c0.864,6.336,11.02,11.88,11.377,14.832c-1.871-14.76-11.951-16.056,3.455-13.32c3.024,0.432,11.521,2.808,7.058-1.8l-6.982-7.2
		c17.712-2.376,13.248-6.912-2.304-7.848c-3.816,0.072-8.856-1.872-11.448-1.944l-4.248,0.072
		C29.811,110.55,27.075,112.206,25.635,111.558z"/>
	
		<path fill="none" stroke="#000000" stroke-width="0.7087" stroke-linecap="round" stroke-linejoin="round" stroke-miterlimit="10" d="
		M25.635,111.558l3.238,31.32c0.218,1.656,2.306-5.472,2.232-6.264c0.504-2.664,2.52-6.84,2.229-8.928
		c0.864,6.336,11.02,11.88,11.377,14.832c-1.871-14.76-11.951-16.056,3.455-13.32c3.024,0.432,11.521,2.808,7.058-1.8l-6.982-7.2
		c17.712-2.376,13.248-6.912-2.304-7.848c-3.816,0.072-8.856-1.872-11.448-1.944l-4.248,0.072
		C29.811,110.55,27.075,112.206,25.635,111.558z"/>
</g>
<g filter="url(#myGaussianBlur)">
	<path fill="#CA6C38" d="M243.696,43.606l4.897-34.416c0.216-1.872-3.892,5.184-4.032,6.12c-1.228,2.736-4.536,6.552-4.752,8.928
		c0.792-6.984-8.644-15.696-8.208-18.936c-1.944,16.344,8.496,20.376-7.272,13.392c-3.096-1.368-11.592-6.12-7.992,0l5.476,9.576
		c-19.584-2.232-15.984,3.816,0.432,9.072c4.104,0.936,8.929,4.32,11.664,5.112l4.608,1.008
		C238.945,43.534,242.401,42.454,243.696,43.606z"/>
	
		<path fill="none" stroke="#000000" stroke-width="0.7087" stroke-linecap="round" stroke-linejoin="round" stroke-miterlimit="10" d="
		M243.696,43.606l4.897-34.416c0.216-1.872-3.892,5.184-4.032,6.12c-1.228,2.736-4.536,6.552-4.752,8.928
		c0.792-6.984-8.644-15.696-8.208-18.936c-1.944,16.344,8.496,20.376-7.272,13.392c-3.096-1.368-11.592-6.12-7.992,0l5.476,9.576
		c-19.584-2.232-15.984,3.816,0.432,9.072c4.104,0.936,8.929,4.32,11.664,5.112l4.608,1.008
		C238.945,43.534,242.401,42.454,243.696,43.606z"/>
</g>
<g filter="url(#myGaussianBlur)">
	<path fill="#CA6C38" d="M5.865,234.927l31.896,6.336c1.652,0.432-5.832,1.872-6.696,1.656c-2.736,0.288-7.2,1.944-9.36,1.512
		c6.48,1.44,11.16,12.384,14.188,13.032c-14.979-3.384-15.336-13.752-14.04,2.232c0.216,3.24,1.728,12.096-2.521,7.128l-6.768-7.848
		c-4.032,17.856-8.28,12.96-7.776-3.168c0.436-3.888-1.08-9.216-0.936-11.88l0.576-4.392C4.497,239.103,6.441,236.439,5.865,234.927
		z"/>
	
		<path fill="none" stroke="#000000" stroke-width="0.7087" stroke-linecap="round" stroke-linejoin="round" stroke-miterlimit="10" d="
		M5.865,234.927l31.896,6.336c1.652,0.432-5.832,1.872-6.696,1.656c-2.736,0.288-7.2,1.944-9.36,1.512
		c6.48,1.44,11.16,12.384,14.188,13.032c-14.979-3.384-15.336-13.752-14.04,2.232c0.216,3.24,1.728,12.096-2.521,7.128l-6.768-7.848
		c-4.032,17.856-8.28,12.96-7.776-3.168c0.436-3.888-1.08-9.216-0.936-11.88l0.576-4.392C4.497,239.103,6.441,236.439,5.865,234.927
		z"/>
</g>
<g filter="url(#myGaussianBlur)">
	<path fill="#CA6C38" d="M667.121,551.799l-12.384-35.352c-0.723-1.872-1.152,6.912-0.792,7.92c0.144,3.168-1.08,8.496-0.146,10.872
		c-2.735-7.128-15.98-10.656-17.279-13.968c6.336,16.484,18.288,15.188-0.217,16.344c-3.672,0.288-14.111-0.072-7.703,3.96
		l10.079,6.479c-19.871,7.562-13.464,11.596,4.824,8.428c4.393-1.152,10.729-0.288,13.752-0.938l4.896-1.296
		C662.583,554.031,665.392,551.367,667.121,551.799z"/>
	
		<path fill="none" stroke="#000000" stroke-width="0.7087" stroke-linecap="round" stroke-linejoin="round" stroke-miterlimit="10" d="
		M667.121,551.799l-12.384-35.352c-0.723-1.872-1.152,6.912-0.792,7.92c0.144,3.168-1.08,8.496-0.146,10.872
		c-2.735-7.128-15.98-10.656-17.279-13.968c6.336,16.484,18.288,15.188-0.217,16.344c-3.672,0.288-14.111-0.072-7.703,3.96
		l10.079,6.479c-19.871,7.562-13.464,11.596,4.824,8.428c4.393-1.152,10.729-0.288,13.752-0.938l4.896-1.296
		C662.583,554.031,665.392,551.367,667.121,551.799z"/>
</g>
<g filter="url(#myGaussianBlur)">
	<path fill="#CA6C38" d="M788.671,7.871l-34.85,13.68c-1.872,0.792,6.982,0.937,7.92,0.504c3.168-0.216,8.567,0.792,10.871-0.216
		c-6.982,2.952-10.079,16.344-13.319,17.712c16.271-6.912,14.544-18.792,16.346-0.288c0.433,3.6,0.505,14.04,4.318,7.488
		l6.048-10.296c8.28,19.584,12.099,12.96,8.208-5.112c-1.296-4.392-0.646-10.728-1.366-13.68l-1.514-4.896
		C791.12,12.335,788.311,9.671,788.671,7.871z"/>
	
		<path fill="none" stroke="#000000" stroke-width="0.7087" stroke-linecap="round" stroke-linejoin="round" stroke-miterlimit="10" d="
		M788.671,7.871l-34.85,13.68c-1.872,0.792,6.982,0.937,7.92,0.504c3.168-0.216,8.567,0.792,10.871-0.216
		c-6.982,2.952-10.079,16.344-13.319,17.712c16.271-6.912,14.544-18.792,16.346-0.288c0.433,3.6,0.505,14.04,4.318,7.488
		l6.048-10.296c8.28,19.584,12.099,12.96,8.208-5.112c-1.296-4.392-0.646-10.728-1.366-13.68l-1.514-4.896
		C791.12,12.335,788.311,9.671,788.671,7.871z"/>
</g>
<g filter="url(#myGaussianBlur)">
	<path fill="#CA6C38" d="M794.127,175.311l5.328,37.08c0.216,2.016-4.248-5.616-4.32-6.624c-1.367-2.952-4.896-7.056-5.184-9.576
		c0.861,7.488-9.288,16.848-8.855,20.304c-2.016-17.568,9.146-21.888-7.774-14.328c-3.385,1.368-12.454,6.48-8.642,0l5.904-10.368
		c-21.096,2.448-17.28-4.104,0.433-9.72c4.464-1.008,9.647-4.68,12.603-5.544l4.968-1.08
		C789.087,175.383,792.759,176.535,794.127,175.311z"/>
	
		<path fill="none" stroke="#000000" stroke-width="0.7087" stroke-linecap="round" stroke-linejoin="round" stroke-miterlimit="10" d="
		M794.127,175.311l5.328,37.08c0.216,2.016-4.248-5.616-4.32-6.624c-1.367-2.952-4.896-7.056-5.184-9.576
		c0.861,7.488-9.288,16.848-8.855,20.304c-2.016-17.568,9.146-21.888-7.774-14.328c-3.385,1.368-12.454,6.48-8.642,0l5.904-10.368
		c-21.096,2.448-17.28-4.104,0.433-9.72c4.464-1.008,9.647-4.68,12.603-5.544l4.968-1.08
		C789.087,175.383,792.759,176.535,794.127,175.311z"/>
</g>
<g filter="url(#myGaussianBlur)">
	<path fill="#CA6C38" d="M612.903,3.953l-13.104,27.576c-0.647,1.512,4.681-3.384,4.969-4.104c1.8-1.944,5.544-4.32,6.407-6.192
		c-2.52,5.616,3.097,15.336,1.944,18c5.832-13.248-1.872-19.296,9.504-9.288c2.304,1.872,8.136,8.064,6.769,2.016l-2.089-9.504
		c15.841,7.056,14.4,1.008,2.019-7.632c-3.239-1.872-6.407-5.976-8.495-7.344l-3.603-2.088
		C616.864,5.249,613.696,5.249,612.903,3.953z"/>
	
		<path fill="none" stroke="#000000" stroke-width="0.7087" stroke-linecap="round" stroke-linejoin="round" stroke-miterlimit="10" d="
		M612.903,3.953l-13.104,27.576c-0.647,1.512,4.681-3.384,4.969-4.104c1.8-1.944,5.544-4.32,6.407-6.192
		c-2.52,5.616,3.097,15.336,1.944,18c5.832-13.248-1.872-19.296,9.504-9.288c2.304,1.872,8.136,8.064,6.769,2.016l-2.089-9.504
		c15.841,7.056,14.4,1.008,2.019-7.632c-3.239-1.872-6.407-5.976-8.495-7.344l-3.603-2.088
		C616.864,5.249,613.696,5.249,612.903,3.953z"/>
</g>
</svg>
