<?xml version="1.0" encoding="utf-8"?>
<!-- Generator: Adobe Illustrator 15.0.0, SVG Export Plug-In  -->
<!DOCTYPE svg PUBLIC "-//W3C//DTD SVG 1.1//EN" "http://www.w3.org/Graphics/SVG/1.1/DTD/svg11.dtd" [
	<!ENTITY ns_flows "http://ns.adobe.com/Flows/1.0/">
]>

<svg version="1.1"
	 xmlns="http://www.w3.org/2000/svg" xmlns:xlink="http://www.w3.org/1999/xlink" xmlns:a="http://ns.adobe.com/AdobeSVGViewerExtensions/3.0/"
	 x="0px" y="0px" width="814px" height="573px" viewBox="0 0 814 573" overflow="visible" enable-background="new 0 0 814 573"
	 xml:space="preserve">
<defs>
  <filter id="myGaussianBlur">
    <feGaussianBlur in="SourceGraphic" stdDeviation="2" />
  </filter>
</defs>
<path fill="#F58345" stroke="#000000" stroke-width="0.7087" stroke-linecap="round" stroke-linejoin="round" stroke-miterlimit="10" d="
	M168.523,269.643c-1.584,0-3.744,0.576-4.32,1.656h-1.656c-3.24,3.24-14.616,18.36-8.64,24.336c0,2.16,2.664,4.392,2.664,6.552
	c0.576,0,0,1.584,0,2.16c0,0,4.392-2.736,4.896-2.736c0,0,2.736-2.736,3.312-2.736c0-0.504,0.504-1.08,0.504-1.584
	c1.08,0,0-0.576,1.08-0.576c0,0.576-1.08,0,0-1.08c1.08,0,0-0.504,1.08-0.504c0-1.08,1.656-2.16,1.656-3.312
	c1.656,0,2.16-3.672,2.16-5.328c3.24,0-0.504-13.536-0.504-14.688l-0.576-0.504c-1.08,0,0-0.576-1.08-0.576
	C169.099,271.299,170.179,270.723,168.523,269.643z" style="filter:url(#myGaussianBlur)" />
<path fill="#F58345" stroke="#000000" stroke-width="0.7087" stroke-linecap="round" stroke-linejoin="round" stroke-miterlimit="10" d="
	M659.204,202.179c1.584,0,3.672,0.504,4.176,1.584h1.512c3.168,3.096,14.112,17.712,8.352,23.4c0,2.088-2.592,4.176-2.592,6.264
	c-0.504,0,0,1.584,0,2.088c0,0-4.176-2.592-4.68-2.592c0,0-2.592-2.592-3.096-2.592c0-0.576-0.576-1.08-0.576-1.584
	c-1.008,0,0-0.504-1.008-0.504c0,0.504,1.008,0,0-1.08c-1.08,0,0-0.504-1.08-0.504c0-1.008-1.512-2.088-1.512-3.096
	c-1.584,0-2.088-3.672-2.088-5.256c-3.168,0,0.504-13.032,0.504-14.04l0.504-0.504c1.08,0,0-0.504,1.08-0.504
	C658.699,203.763,657.62,203.259,659.204,202.179z" style="filter:url(#myGaussianBlur)" />
<path fill="#F58345" stroke="#000000" stroke-width="0.7087" stroke-linecap="round" stroke-linejoin="round" stroke-miterlimit="10" d="
	M587.275,8.067c1.512,0,3.6,0.504,4.176,1.584h1.512c3.168,3.096,14.04,17.64,8.352,23.4c0,2.088-2.592,4.176-2.592,6.264
	c-0.504,0,0,1.584,0,2.088c0,0-4.176-2.592-4.68-2.592c0,0-2.592-2.664-3.168-2.664c0-0.504-0.504-1.008-0.504-1.512
	c-1.008,0,0-0.504-1.008-0.504c0,0.504,1.008,0,0-1.08c-1.08,0,0-0.504-1.08-0.504c0-1.08-1.584-2.088-1.584-3.168
	c-1.512,0-2.016-3.6-2.016-5.184c-3.168,0,0.504-13.032,0.504-14.04l0.504-0.504c1.008,0,0-0.576,1.008-0.576
	C586.699,9.651,585.691,9.075,587.275,8.067z"  style="filter:url(#myGaussianBlur)" />
<path fill="#F58345" stroke="#000000" stroke-width="0.7087" stroke-linecap="round" stroke-linejoin="round" stroke-miterlimit="10" d="
	M93.427,17.211c-1.584,0-3.744,0.576-4.32,1.656h-1.656c-3.24,3.24-14.616,18.432-8.64,24.408c0,2.16,2.664,4.32,2.664,6.552
	c0.576,0,0,1.584,0,2.16c0,0,4.392-2.736,4.896-2.736c0,0,2.736-2.736,3.312-2.736c0-0.504,0.504-1.08,0.504-1.584
	c1.08,0,0-0.576,1.08-0.576c0,0.576-1.08,0,0-1.08c1.08,0,0-0.504,1.08-0.504c0-1.152,1.656-2.232,1.656-3.312
	c1.584,0,2.16-3.744,2.16-5.4c3.24,0-0.576-13.608-0.576-14.688l-0.504-0.504c-1.08,0,0-0.576-1.08-0.576
	C94.003,18.867,95.083,18.291,93.427,17.211z" style="filter:url(#myGaussianBlur)" />
<path fill="#F58345" stroke="#000000" stroke-width="0.7087" stroke-linecap="round" stroke-linejoin="round" stroke-miterlimit="10" d="
	M66.355,381.963c-1.152,1.152-2.304,3.096-1.944,4.248l-1.152,1.152c0.072,4.608,2.808,23.4,11.232,23.4
	c1.512,1.512,4.968,1.152,6.552,2.664c0.36-0.432,1.152,1.152,1.512,1.512c0,0,1.152-4.968,1.512-5.4c0,0,0-3.816,0.36-4.176
	c-0.36-0.432-0.36-1.152-0.72-1.584c0.72-0.72-0.432-0.36,0.36-1.152c0.36,0.432-0.792,0.792-0.792-0.72
	c0.792-0.792-0.36-0.432,0.432-1.152c-0.792-0.792-0.432-2.736-1.224-3.456c1.152-1.152-1.152-4.248-2.304-5.4
	c2.304-2.304-10.008-9.144-10.728-9.936h-0.792c-0.792,0.792-0.36-0.36-1.152,0.432C67.867,382.755,68.299,381.603,66.355,381.963z"
	 style="filter:url(#myGaussianBlur)" />
<path fill="#F58345" stroke="#000000" stroke-width="0.7087" stroke-linecap="round" stroke-linejoin="round" stroke-miterlimit="10" d="
	M757.268,309.891c1.08,1.152,2.16,2.952,1.8,4.104l1.08,1.08c0,4.392-2.592,22.464-10.728,22.464c-1.44,1.44-4.752,1.08-6.264,2.52
	c-0.36-0.36-1.08,1.08-1.512,1.512c0,0-1.08-4.824-1.44-5.184c0,0,0-3.672-0.36-4.032c0.36-0.36,0.36-1.152,0.792-1.512
	c-0.792-0.72,0.36-0.36-0.432-1.08c-0.36,0.36,0.792,0.72,0.792-0.72c-0.72-0.792,0.36-0.36-0.36-1.152
	c0.72-0.72,0.36-2.592,1.08-3.312c-1.08-1.08,1.152-4.032,2.232-5.112c-2.232-2.232,9.576-8.856,10.368-9.576h0.72
	c0.72,0.792,0.36-0.36,1.08,0.36C755.755,310.683,755.396,309.531,757.268,309.891z" style="filter:url(#myGaussianBlur)" />
<path fill="#F58345" stroke="#000000" stroke-width="0.7087" stroke-linecap="round" stroke-linejoin="round" stroke-miterlimit="10" d="
	M769.003,102.819c1.08,1.08,2.16,2.952,1.8,4.032l1.152,1.08c-0.072,4.464-2.664,22.464-10.8,22.464
	c-1.44,1.44-4.752,1.08-6.264,2.52c-0.36-0.36-1.08,1.152-1.44,1.512c0,0-1.08-4.824-1.44-5.184c0,0,0-3.672-0.36-4.032
	c0.36-0.36,0.36-1.152,0.72-1.512c-0.72-0.72,0.36-0.36-0.36-1.08c-0.36,0.36,0.72,0.72,0.72-0.72c-0.72-0.72,0.36-0.36-0.36-1.152
	c0.72-0.72,0.36-2.52,1.152-3.312c-1.152-1.08,1.08-4.032,2.16-5.112c-2.16-2.232,9.648-8.784,10.368-9.576h0.72
	c0.72,0.792,0.36-0.36,1.152,0.432C767.491,103.539,767.131,102.387,769.003,102.819z" style="filter:url(#myGaussianBlur)" />
<path fill="#F58345" stroke="#000000" stroke-width="0.7087" stroke-linecap="round" stroke-linejoin="round" stroke-miterlimit="10" d="
	M73.267,537.627c-1.152,1.152-2.304,3.096-1.872,4.176l-1.152,1.224c0,4.536,2.736,23.4,11.16,23.328
	c1.584,1.584,5.04,1.152,6.552,2.664c0.36-0.36,1.152,1.152,1.584,1.584c0,0,1.08-5.04,1.512-5.4c0,0-0.072-3.816,0.36-4.248
	c-0.432-0.36-0.432-1.152-0.792-1.512c0.792-0.792-0.36-0.36,0.36-1.152c0.432,0.36-0.72,0.792-0.72-0.792
	c0.72-0.72-0.432-0.36,0.36-1.152c-0.792-0.72-0.432-2.664-1.152-3.456c1.152-1.152-1.152-4.176-2.304-5.328
	c2.232-2.304-10.008-9.216-10.8-9.936h-0.792c-0.72,0.72-0.36-0.432-1.152,0.36C74.851,538.347,75.211,537.195,73.267,537.627z" style="filter:url(#myGaussianBlur)" />
<path fill="#F58345" stroke="#000000" stroke-width="0.7087" stroke-linecap="round" stroke-linejoin="round" stroke-miterlimit="10" d="
	M752.011,463.539c1.152,1.08,2.232,2.952,1.872,4.032l1.08,1.152c0,4.392-2.664,22.464-10.728,22.392
	c-1.512,1.512-4.824,1.08-6.264,2.592c-0.36-0.36-1.152,1.08-1.512,1.44c0,0-1.08-4.752-1.44-5.112c0,0,0-3.744-0.36-4.104
	c0.36-0.36,0.36-1.08,0.72-1.44c-0.72-0.72,0.36-0.36-0.36-1.08c-0.36,0.36,0.72,0.72,0.72-0.792c-0.72-0.72,0.432-0.36-0.36-1.08
	c0.792-0.72,0.432-2.592,1.152-3.312c-1.08-1.08,1.08-4.032,2.232-5.184c-2.232-2.16,9.576-8.784,10.296-9.504h0.792
	c0.72,0.72,0.36-0.36,1.08,0.36C750.571,464.259,750.211,463.179,752.011,463.539z" style="filter:url(#myGaussianBlur)" />
<path fill="#F58345" stroke="#000000" stroke-width="0.7087" stroke-linecap="round" stroke-linejoin="round" stroke-miterlimit="10" d="
	M446.587,238.251c1.08,1.152,2.232,2.952,1.8,4.104l1.152,1.08c0,4.392-2.664,22.464-10.8,22.392
	c-1.44,1.512-4.752,1.152-6.264,2.592c-0.36-0.36-1.08,1.08-1.44,1.44c0,0-1.08-4.752-1.44-5.112c0,0,0-3.672-0.36-4.104
	c0.36-0.36,0.36-1.08,0.72-1.44c-0.72-0.72,0.36-0.36-0.36-1.08c-0.36,0.36,0.72,0.72,0.72-0.72c-0.72-0.792,0.36-0.432-0.36-1.152
	c0.72-0.72,0.36-2.592,1.152-3.312c-1.152-1.08,1.08-4.032,2.232-5.112c-2.232-2.232,9.576-8.856,10.296-9.576h0.72
	c0.792,0.72,0.36-0.36,1.152,0.36C445.147,238.971,444.715,237.891,446.587,238.251z" style="filter:url(#myGaussianBlur)" />
<path fill="#F58345" stroke="#000000" stroke-width="0.7087" stroke-linecap="round" stroke-linejoin="round" stroke-miterlimit="10" d="
	M191.852,546.987c-0.288,1.584-0.144,3.816,0.792,4.536l-0.288,1.584c2.664,3.816,15.624,17.712,22.536,12.816
	c2.16,0.432,4.752-1.872,6.912-1.512c0.072-0.504,1.584,0.288,2.16,0.36c0,0-1.944-4.752-1.872-5.256c0,0-2.16-3.168-2.088-3.672
	c-0.504-0.072-0.936-0.72-1.512-0.792c0.216-1.08-0.504-0.144-0.36-1.224c0.576,0.144-0.144,1.08-1.008-0.144
	c0.144-1.08-0.576-0.144-0.36-1.152c-1.08-0.216-1.872-2.016-2.952-2.232c0.288-1.584-3.312-2.808-4.968-3.024
	c0.576-3.24-13.464-1.872-14.472-2.088l-0.648,0.432c-0.216,1.08-0.576-0.072-0.72,1.008
	C193.507,546.699,193.147,545.547,191.852,546.987z" style="filter:url(#myGaussianBlur)" />
<path fill="#F58345" stroke="#000000" stroke-width="0.7087" stroke-linecap="round" stroke-linejoin="round" stroke-miterlimit="10" d="
	M37.916,406.731c-1.296-0.864-3.456-1.656-4.464-1.08l-1.368-0.936c-4.536,0.864-22.536,6.912-20.952,15.192
	c-1.296,1.8-0.288,5.184-1.512,6.912c0.504,0.36-0.864,1.368-1.224,1.8c0,0,5.112,0.216,5.616,0.576c0,0,3.744-0.72,4.176-0.432
	c0.288-0.432,1.08-0.576,1.368-1.008c0.936,0.576,0.36-0.432,1.224,0.144c-0.288,0.432-0.864-0.576,0.576-0.864
	c0.936,0.576,0.36-0.504,1.224,0.144c0.648-0.864,2.592-0.864,3.168-1.8c1.368,0.936,3.96-1.872,4.896-3.24
	c2.664,1.872,7.2-11.448,7.848-12.384l-0.144-0.72c-0.864-0.648,0.288-0.432-0.576-1.08
	C37.483,408.387,38.635,408.603,37.916,406.731z" style="filter:url(#myGaussianBlur)" />
<path fill="#F58345" stroke="#000000" stroke-width="0.7087" stroke-linecap="round" stroke-linejoin="round" stroke-miterlimit="10" d="
	M780.452,332.355c1.296-0.936,3.24-1.656,4.32-1.08l1.296-0.936c4.32,0.864,21.6,6.696,20.088,14.616
	c1.152,1.728,0.216,4.896,1.368,6.624c-0.432,0.288,0.936,1.296,1.224,1.728c0,0-4.896,0.216-5.328,0.504
	c0,0-3.672-0.648-4.104-0.36c-0.288-0.432-1.008-0.576-1.296-1.008c-0.864,0.576-0.288-0.432-1.152,0.144
	c0.288,0.432,0.864-0.576-0.576-0.864c-0.864,0.648-0.288-0.432-1.152,0.216c-0.576-0.864-2.448-0.864-3.096-1.728
	c-1.224,0.864-3.744-1.8-4.608-3.096c-2.592,1.728-6.984-11.016-7.56-11.88l0.144-0.72c0.864-0.576-0.288-0.432,0.576-1.008
	C780.883,333.939,779.731,334.083,780.452,332.355z" style="filter:url(#myGaussianBlur)" />
<path fill="#F58345" stroke="#000000" stroke-width="0.7087" stroke-linecap="round" stroke-linejoin="round" stroke-miterlimit="10" d="
	M759.283,555.123c-0.144,1.584-0.936,3.6-2.016,3.96l-0.216,1.584c-3.456,2.736-19.224,11.808-24.192,5.472
	c-2.088-0.216-3.888-3.096-5.904-3.312c0.072-0.504-1.584-0.216-2.088-0.288c0,0,3.096-3.816,3.168-4.32c0,0,2.88-2.304,2.952-2.808
	c0.504,0.072,1.08-0.36,1.584-0.288c0.144-1.08,0.504,0,0.648-1.008c-0.504-0.072-0.144,1.008,1.008,0.144
	c0.144-1.08,0.576,0.072,0.648-1.008c1.08,0.144,2.304-1.296,3.312-1.152c0.144-1.584,3.888-1.656,5.4-1.44
	c0.36-3.096,12.888,2.016,13.896,2.16l0.432,0.576c-0.072,1.008,0.576,0.072,0.432,1.08
	C757.843,554.403,758.491,553.467,759.283,555.123z" style="filter:url(#myGaussianBlur)" />
<path fill="#F58345" stroke="#000000" stroke-width="0.7087" stroke-linecap="round" stroke-linejoin="round" stroke-miterlimit="10" d="
	M127.124,348.555c-1.368-0.864-3.456-1.656-4.536-1.08l-1.368-0.936c-4.464,0.864-22.464,6.912-20.952,15.264
	c-1.224,1.728-0.216,5.112-1.44,6.912c0.432,0.288-0.936,1.296-1.224,1.728c0,0,5.112,0.216,5.544,0.576c0,0,3.744-0.72,4.248-0.432
	c0.288-0.432,1.008-0.576,1.368-1.008c0.864,0.576,0.288-0.432,1.152,0.144c-0.288,0.432-0.864-0.576,0.648-0.864
	c0.864,0.576,0.288-0.432,1.224,0.144c0.576-0.864,2.52-0.864,3.168-1.728c1.368,0.864,3.96-1.944,4.824-3.312
	c2.736,1.872,7.272-11.448,7.848-12.384l-0.144-0.72c-0.864-0.648,0.36-0.432-0.576-1.08
	C126.619,350.211,127.844,350.427,127.124,348.555z" style="filter:url(#myGaussianBlur)" />
<path fill="#F58345" stroke="#000000" stroke-width="0.7087" stroke-linecap="round" stroke-linejoin="round" stroke-miterlimit="10" d="
	M698.947,277.995c1.296-0.936,3.312-1.656,4.32-1.08l1.296-0.936c4.32,0.864,21.6,6.696,20.16,14.544
	c1.152,1.728,0.216,4.896,1.368,6.624c-0.432,0.288,0.864,1.296,1.152,1.728c0,0-4.896,0.216-5.328,0.504c0,0-3.6-0.648-4.032-0.36
	c-0.288-0.432-1.008-0.576-1.296-1.008c-0.864,0.576-0.288-0.432-1.152,0.144c0.288,0.432,0.864-0.576-0.576-0.864
	c-0.864,0.648-0.36-0.432-1.152,0.216c-0.648-0.864-2.52-0.864-3.096-1.728c-1.296,0.864-3.744-1.8-4.68-3.096
	c-2.52,1.728-6.912-10.944-7.488-11.808l0.144-0.72c0.864-0.648-0.288-0.432,0.504-1.008
	C699.452,279.507,698.299,279.723,698.947,277.995z" style="filter:url(#myGaussianBlur)" />
<path fill="#F58345" stroke="#000000" stroke-width="0.7087" stroke-linecap="round" stroke-linejoin="round" stroke-miterlimit="10" d="
	M644.875,261.651c1.296-0.864,3.312-1.656,4.32-1.08l1.296-0.864c4.392,0.792,21.6,6.624,20.16,14.616
	c1.152,1.656,0.216,4.896,1.368,6.624c-0.432,0.288,0.864,1.224,1.224,1.656c0,0-4.968,0.216-5.4,0.504c0,0-3.6-0.648-4.032-0.36
	c-0.288-0.432-1.008-0.576-1.296-1.008c-0.864,0.648-0.288-0.432-1.152,0.216c0.288,0.432,0.864-0.648-0.576-0.864
	c-0.864,0.576-0.288-0.432-1.152,0.144c-0.576-0.864-2.52-0.864-3.096-1.728c-1.296,0.936-3.744-1.8-4.608-3.096
	c-2.592,1.8-6.984-11.016-7.56-11.88l0.144-0.72c0.864-0.576-0.288-0.432,0.576-1.008
	C645.379,263.235,644.228,263.379,644.875,261.651z" style="filter:url(#myGaussianBlur)" />
<path fill="#F58345" stroke="#000000" stroke-width="0.7087" stroke-linecap="round" stroke-linejoin="round" stroke-miterlimit="10" d="
	M83.995,16.059c-0.504-1.584-1.728-3.456-2.952-3.6l-0.504-1.512c-4.176-2.088-22.248-7.92-25.92-0.36
	c-2.088,0.72-3.24,3.96-5.328,4.68c0.216,0.504-1.512,0.504-2.016,0.648c0,0,3.96,3.24,4.104,3.744c0,0,3.456,1.728,3.6,2.232
	c0.576-0.144,1.224,0.144,1.728,0c0.36,1.008,0.504-0.144,0.864,0.864c-0.504,0.144-0.36-1.008,1.08-0.36
	c0.288,1.008,0.504-0.144,0.864,0.864c1.008-0.36,2.52,0.864,3.6,0.504c0.504,1.512,4.248,0.792,5.832,0.288
	c1.008,3.096,12.672-4.896,13.68-5.256l0.36-0.648c-0.36-1.08,0.504-0.216,0.144-1.224C82.627,17.067,83.491,17.931,83.995,16.059z"
	 style="filter:url(#myGaussianBlur)" />
<path fill="#F58345" stroke="#000000" stroke-width="0.7087" stroke-linecap="round" stroke-linejoin="round" stroke-miterlimit="10" d="
	M34.459,480.819c-1.152,1.152-2.376,3.024-2.088,4.176l-1.152,1.08c-0.216,4.608,1.584,23.544,10.008,23.904
	c1.512,1.584,4.968,1.368,6.408,2.952c0.432-0.36,1.152,1.224,1.512,1.584c0,0,1.368-4.896,1.728-5.256c0,0,0.216-3.816,0.576-4.176
	c-0.36-0.432-0.288-1.224-0.648-1.584c0.792-0.72-0.432-0.432,0.432-1.152c0.36,0.432-0.864,0.72-0.792-0.792
	c0.864-0.72-0.36-0.432,0.432-1.152c-0.72-0.792-0.216-2.664-0.936-3.528c1.152-1.08-1.008-4.248-2.088-5.472
	c2.376-2.16-9.576-9.648-10.296-10.44h-0.792c-0.792,0.72-0.36-0.432-1.152,0.288C35.971,481.683,36.403,480.531,34.459,480.819z" style="filter:url(#myGaussianBlur)" />
<path fill="#F58345" stroke="#000000" stroke-width="0.7087" stroke-linecap="round" stroke-linejoin="round" stroke-miterlimit="10" d="
	M783.691,403.419c1.152,1.008,2.376,2.808,2.016,3.96l1.152,1.008c0.216,4.464-1.512,22.608-9.648,22.968
	c-1.368,1.512-4.68,1.296-6.12,2.808c-0.36-0.36-1.08,1.152-1.44,1.584c0,0-1.296-4.752-1.656-5.112c0,0-0.144-3.672-0.576-4.032
	c0.36-0.36,0.36-1.08,0.72-1.512c-0.792-0.72,0.288-0.36-0.432-1.08c-0.36,0.36,0.72,0.72,0.648-0.792
	c-0.72-0.648,0.36-0.36-0.36-1.08c0.648-0.72,0.216-2.592,0.936-3.312c-1.152-1.08,0.937-4.104,1.944-5.256
	c-2.304-2.088,9.216-9.288,9.864-10.008l0.792-0.072c0.72,0.72,0.36-0.36,1.08,0.36
	C782.251,404.211,781.892,403.131,783.691,403.419z" style="filter:url(#myGaussianBlur)" />
<path fill="#F58345" stroke="#000000" stroke-width="0.7087" stroke-linecap="round" stroke-linejoin="round" stroke-miterlimit="10" d="
	M706.075,547.707c0,1.584-0.504,3.672-1.512,4.248l0.072,1.512c-3.096,3.24-17.424,14.472-23.256,8.856
	c-2.088,0.072-4.248-2.52-6.336-2.448c0-0.504-1.584,0.072-2.088,0.072c0,0,2.52-4.248,2.52-4.752c0,0,2.52-2.664,2.52-3.168
	c0.504-0.072,1.008-0.576,1.584-0.576c-0.072-1.08,0.504,0,0.504-1.08c-0.576,0,0,1.08,1.008,0c0-1.008,0.504,0,0.504-1.08
	c1.008,0,2.016-1.584,3.096-1.584c-0.072-1.584,3.6-2.16,5.184-2.232c-0.072-3.096,12.96,0.288,14.04,0.216l0.504,0.504
	c0.072,1.08,0.576,0,0.576,1.08C704.491,547.275,704.996,546.195,706.075,547.707z" style="filter:url(#myGaussianBlur)" />
<path fill="#F58345" stroke="#000000" stroke-width="0.7087" stroke-linecap="round" stroke-linejoin="round" stroke-miterlimit="10" d="
	M82.627,510.987c-0.432,1.584-0.504,3.816,0.432,4.68l-0.504,1.512c2.304,4.032,13.896,19.08,21.24,14.976
	c2.088,0.576,4.896-1.512,6.984-0.864c0.144-0.576,1.584,0.432,2.088,0.576c0,0-1.44-4.968-1.296-5.472c0,0-1.872-3.312-1.728-3.888
	c-0.504-0.144-0.936-0.792-1.44-0.936c0.288-1.008-0.504-0.144-0.216-1.152c0.504,0.144-0.288,1.008-1.08-0.288
	c0.288-1.08-0.504-0.216-0.216-1.224c-1.008-0.288-1.656-2.16-2.664-2.448c0.432-1.584-3.096-3.096-4.68-3.528
	c0.864-3.168-13.176-3.168-14.256-3.456l-0.648,0.432c-0.288,1.008-0.504-0.144-0.864,0.864
	C84.355,510.915,84.139,509.763,82.627,510.987z" style="filter:url(#myGaussianBlur)" />
<path fill="#F58345" stroke="#000000" stroke-width="0.7087" stroke-linecap="round" stroke-linejoin="round" stroke-miterlimit="10" d="
	M741.644,433.659c0.432,1.512,0.432,3.672-0.432,4.464l0.432,1.512c-2.16,3.816-13.248,18.288-20.304,14.328
	c-2.016,0.504-4.752-1.44-6.768-0.864c-0.144-0.504-1.44,0.432-1.944,0.576c0,0,1.368-4.752,1.224-5.256c0,0,1.8-3.168,1.656-3.672
	c0.504-0.144,0.864-0.792,1.368-0.936c-0.288-1.008,0.504-0.144,0.216-1.152c-0.504,0.144,0.288,1.008,1.008-0.288
	c-0.288-0.936,0.504-0.072,0.216-1.08c1.008-0.288,1.584-2.088,2.592-2.376c-0.432-1.512,2.952-2.952,4.464-3.384
	c-0.864-3.024,12.672-3.024,13.68-3.312l0.648,0.36c0.288,1.008,0.504-0.144,0.792,0.864
	C739.987,433.587,740.204,432.435,741.644,433.659z" style="filter:url(#myGaussianBlur)" />
<path fill="#F58345" stroke="#000000" stroke-width="0.7087" stroke-linecap="round" stroke-linejoin="round" stroke-miterlimit="10" d="
	M657.691,563.763c-0.792,1.296-2.304,2.808-3.456,2.736l-0.792,1.368c-4.248,1.08-22.392,3.024-24.408-4.824
	c-1.8-1.08-2.232-4.392-4.032-5.4c0.288-0.504-1.296-0.864-1.8-1.08c0,0,4.392-2.304,4.68-2.736c0,0,3.528-0.864,3.816-1.368
	c0.432,0.288,1.152,0.144,1.584,0.36c0.576-0.864,0.432,0.288,1.008-0.576c-0.432-0.288-0.576,0.864,0.864,0.504
	c0.576-0.864,0.504,0.288,1.008-0.648c0.864,0.576,2.592-0.288,3.456,0.288c0.792-1.368,4.248,0.072,5.544,0.864
	c1.584-2.664,10.944,7.128,11.808,7.632l0.216,0.72c-0.576,0.864,0.432,0.288-0.072,1.152
	C656.611,562.467,657.62,561.891,657.691,563.763z" style="filter:url(#myGaussianBlur)" />
<path fill="#F58345" stroke="#000000" stroke-width="0.7087" stroke-linecap="round" stroke-linejoin="round" stroke-miterlimit="10" d="
	M97.819,437.115c0.072,1.584,0.648,3.744,1.728,4.32l0.072,1.584c3.312,3.168,18.72,14.256,24.552,8.136
	c2.232,0,4.32-2.808,6.48-2.808c0-0.576,1.656-0.072,2.16-0.072c0,0-2.808-4.248-2.808-4.824c0,0-2.808-2.664-2.808-3.168
	c-0.504,0-1.08-0.504-1.584-0.504c-0.072-1.08-0.576,0-0.576-1.08c0.504,0,0,1.08-1.08,0c-0.072-1.08-0.576,0-0.576-1.08
	c-1.08,0.072-2.232-1.584-3.312-1.512c0-1.656-3.816-2.088-5.472-2.088c-0.072-3.24-13.536,0.864-14.616,0.864l-0.576,0.576
	c0.072,1.08-0.504,0-0.504,1.08C99.475,436.539,98.899,435.459,97.819,437.115z" style="filter:url(#myGaussianBlur)" />
<path fill="#F58345" stroke="#000000" stroke-width="0.7087" stroke-linecap="round" stroke-linejoin="round" stroke-miterlimit="10" d="
	M727.027,362.811c0,1.512-0.576,3.6-1.656,4.104v1.584c-3.24,3.024-18,13.68-23.616,7.776c-2.088,0-4.104-2.664-6.192-2.736
	c0-0.504-1.584,0-2.088,0c0,0,2.664-4.104,2.664-4.68c0,0,2.664-2.52,2.736-3.024c0.504,0,1.008-0.504,1.512-0.504
	c0.072-1.008,0.576,0,0.576-1.008c-0.504,0,0,1.008,1.008,0c0.072-1.008,0.576,0,0.576-1.008c1.008,0,2.088-1.512,3.168-1.512
	c0-1.584,3.672-2.016,5.256-1.944c0.072-3.168,12.96,0.792,14.04,0.792l0.504,0.576c0,1.008,0.504,0,0.504,1.008
	C725.515,362.235,726.02,361.227,727.027,362.811z" style="filter:url(#myGaussianBlur)" />
<path fill="#F58345" stroke="#000000" stroke-width="0.7087" stroke-linecap="round" stroke-linejoin="round" stroke-miterlimit="10" d="
	M275.587,559.731c0.432,1.584,1.44,3.528,2.664,3.744l0.432,1.584c3.96,2.376,21.528,9.576,25.776,2.304
	c2.088-0.504,3.528-3.672,5.616-4.248c-0.144-0.504,1.584-0.36,2.16-0.504c0,0-3.744-3.528-3.888-4.104c0,0-3.312-1.944-3.456-2.448
	c-0.504,0.144-1.152-0.216-1.656-0.144c-0.288-1.008-0.576,0.144-0.864-0.864c0.576-0.144,0.288,1.008-1.008,0.216
	c-0.288-1.008-0.504,0.144-0.792-0.864c-1.08,0.216-2.52-1.08-3.6-0.792c-0.36-1.584-4.176-1.152-5.76-0.72
	c-0.864-3.168-13.032,3.888-14.04,4.176l-0.432,0.648c0.288,1.08-0.504,0.144-0.216,1.224
	C277.027,558.795,276.235,557.859,275.587,559.731z" style="filter:url(#myGaussianBlur)" />
<path fill="#F58345" stroke="#000000" stroke-width="0.7087" stroke-linecap="round" stroke-linejoin="round" stroke-miterlimit="10" d="
	M5.875,232.275c1.296,1.008,3.312,1.872,4.392,1.296l1.368,1.008c4.536-0.648,22.752-6.048,21.528-14.4
	c1.296-1.728,0.432-5.112,1.728-6.84c-0.432-0.288,1.008-1.296,1.296-1.728c0,0-5.112-0.432-5.544-0.72c0,0-3.744,0.504-4.176,0.216
	c-0.36,0.432-1.08,0.504-1.44,0.936c-0.864-0.648-0.288,0.432-1.224-0.216c0.36-0.432,0.936,0.648-0.648,0.864
	c-0.864-0.648-0.288,0.432-1.152-0.216c-0.648,0.864-2.592,0.792-3.24,1.656c-1.296-1.008-4.032,1.728-5.04,3.024
	c-2.592-1.944-7.632,11.232-8.28,12.096l0.072,0.72c0.864,0.72-0.288,0.504,0.576,1.152C6.379,230.691,5.228,230.475,5.875,232.275z
	" style="filter:url(#myGaussianBlur)" />
<path fill="#F58345" stroke="#000000" stroke-width="0.7087" stroke-linecap="round" stroke-linejoin="round" stroke-miterlimit="10" d="
	M3.787,141.843c-1.152,0.936-2.376,2.448-2.16,3.528l-1.152,0.864c-0.432,4.032-0.072,20.808,7.344,21.672
	c1.152,1.512,4.248,1.584,5.4,3.096c0.36-0.36,0.864,1.08,1.152,1.512c0,0,1.584-4.248,1.944-4.608c0,0,0.432-3.312,0.792-3.6
	c-0.288-0.432-0.216-1.08-0.504-1.44c0.72-0.576-0.288-0.36,0.432-1.008c0.288,0.432-0.72,0.648-0.576-0.72
	c0.72-0.576-0.288-0.36,0.432-1.008c-0.576-0.72,0-2.376-0.648-3.096c1.152-0.936-0.576-3.816-1.44-4.968
	c2.304-1.8-7.776-9.144-8.352-9.864l-0.648-0.072c-0.792,0.576-0.288-0.432-1.08,0.216C5.011,142.707,5.515,141.699,3.787,141.843z"
	 style="filter:url(#myGaussianBlur)" />
<path fill="#F58345" stroke="#000000" stroke-width="0.7087" stroke-linecap="round" stroke-linejoin="round" stroke-miterlimit="10" d="
	M403.604,561.531c-0.432,1.584-1.512,3.528-2.664,3.816l-0.432,1.512c-3.96,2.376-21.528,9.648-25.776,2.304
	c-2.16-0.504-3.528-3.672-5.688-4.248c0.144-0.504-1.584-0.36-2.088-0.504c0,0,3.744-3.528,3.888-4.032c0,0,3.312-2.016,3.384-2.52
	c0.576,0.144,1.224-0.216,1.728-0.072c0.288-1.08,0.504,0.072,0.792-0.936c-0.504-0.144-0.288,1.008,1.08,0.288
	c0.288-1.08,0.504,0.072,0.792-0.936c1.08,0.288,2.52-1.08,3.528-0.792c0.432-1.584,4.248-1.152,5.832-0.72
	c0.792-3.168,13.032,3.888,14.04,4.176l0.432,0.648c-0.288,1.08,0.504,0.144,0.216,1.224
	C402.164,560.595,402.956,559.659,403.604,561.531z" style="filter:url(#myGaussianBlur)" />
<path fill="#F58345" stroke="#000000" stroke-width="0.7087" stroke-linecap="round" stroke-linejoin="round" stroke-miterlimit="10" d="
	M107.107,190.587c-0.432,1.584-1.44,3.6-2.664,3.816l-0.432,1.584c-3.96,2.304-21.528,9.576-25.776,2.304
	c-2.088-0.504-3.528-3.744-5.616-4.248c0.072-0.504-1.584-0.432-2.16-0.576c0,0,3.744-3.528,3.888-4.032
	c0,0,3.312-1.944,3.456-2.448c0.504,0.144,1.152-0.288,1.656-0.144c0.288-1.008,0.576,0.144,0.792-0.936
	c-0.504-0.072-0.216,1.08,1.08,0.288c0.288-1.008,0.504,0.144,0.792-0.936c1.08,0.288,2.52-1.008,3.6-0.72
	c0.36-1.584,4.176-1.152,5.76-0.792c0.792-3.096,13.032,3.96,14.04,4.248l0.432,0.648c-0.288,1.008,0.504,0.144,0.216,1.152
	C105.667,189.651,106.459,188.787,107.107,190.587z" style="filter:url(#myGaussianBlur)" />
<path fill="#F58345" stroke="#000000" stroke-width="0.7087" stroke-linecap="round" stroke-linejoin="round" stroke-miterlimit="10" d="
	M6.235,317.019c-0.432,1.584-0.504,3.816,0.432,4.608l-0.432,1.584c2.232,3.96,13.824,19.08,21.168,14.904
	c2.088,0.576,4.896-1.44,7.056-0.864c0.144-0.504,1.512,0.432,2.088,0.576c0,0-1.512-4.896-1.368-5.4c0,0-1.872-3.384-1.728-3.888
	c-0.504-0.144-0.864-0.792-1.368-0.936c0.288-1.08-0.576-0.144-0.288-1.224c0.576,0.144-0.288,1.08-1.008-0.288
	c0.288-1.08-0.504-0.144-0.216-1.224c-1.08-0.288-1.656-2.088-2.736-2.448c0.432-1.512-3.096-3.096-4.608-3.528
	c0.864-3.096-13.248-3.096-14.328-3.384l-0.648,0.36c-0.288,1.08-0.504-0.144-0.792,0.936
	C7.963,316.947,7.747,315.723,6.235,317.019z" style="filter:url(#myGaussianBlur)" />
<path fill="#F58345" stroke="#000000" stroke-width="0.7087" stroke-linecap="round" stroke-linejoin="round" stroke-miterlimit="10" d="
	M810.835,246.315c0.36,1.512,0.432,3.672-0.432,4.392l0.432,1.512c-2.16,3.888-13.248,18.288-20.304,14.328
	c-2.016,0.576-4.752-1.368-6.768-0.792c-0.144-0.504-1.512,0.36-2.016,0.504c0,0,1.44-4.68,1.296-5.184c0,0,1.8-3.24,1.656-3.744
	c0.504-0.144,0.864-0.72,1.368-0.864c-0.288-1.008,0.504-0.144,0.216-1.152c-0.504,0.144,0.288,1.008,1.008-0.288
	c-0.288-1.008,0.504-0.144,0.216-1.152c1.008-0.288,1.584-2.088,2.592-2.376c-0.432-1.44,2.952-2.952,4.464-3.384
	c-0.864-3.024,12.672-2.952,13.68-3.24l0.648,0.36c0.288,1.008,0.504-0.144,0.792,0.864
	C809.179,246.243,809.396,245.091,810.835,246.315z" style="filter:url(#myGaussianBlur)" />
<path fill="#F58345" stroke="#000000" stroke-width="0.7087" stroke-linecap="round" stroke-linejoin="round" stroke-miterlimit="10" d="
	M67.364,443.667c-0.432,1.584-0.504,3.816,0.36,4.68l-0.432,1.512c2.304,4.032,13.896,19.08,21.24,14.976
	c2.088,0.576,4.896-1.512,6.984-0.864c0.144-0.576,1.584,0.432,2.088,0.576c0,0-1.44-4.968-1.296-5.472c0,0-1.872-3.312-1.728-3.888
	c-0.504-0.144-0.936-0.792-1.44-0.936c0.288-1.008-0.504-0.144-0.216-1.152c0.504,0.144-0.288,1.008-1.08-0.288
	c0.288-1.08-0.504-0.144-0.216-1.224c-1.008-0.288-1.656-2.16-2.664-2.448c0.432-1.584-3.096-3.096-4.68-3.528
	c0.864-3.168-13.248-3.096-14.256-3.456l-0.648,0.432c-0.288,1.008-0.576-0.144-0.864,0.864
	C69.091,443.595,68.803,442.443,67.364,443.667z" style="filter:url(#myGaussianBlur)" />
<path fill="#F58345" stroke="#000000" stroke-width="0.7087" stroke-linecap="round" stroke-linejoin="round" stroke-miterlimit="10" d="
	M756.259,369.147c0.432,1.512,0.504,3.6-0.36,4.392l0.432,1.512c-2.232,3.888-13.32,18.288-20.376,14.328
	c-2.016,0.576-4.68-1.368-6.696-0.864c-0.144-0.504-1.512,0.432-2.016,0.576c0,0,1.368-4.68,1.224-5.184c0,0,1.872-3.24,1.728-3.744
	c0.504-0.144,0.864-0.792,1.368-0.936c-0.288-1.008,0.504-0.144,0.216-1.152c-0.504,0.144,0.288,1.008,1.008-0.216
	c-0.288-1.008,0.504-0.144,0.216-1.152c1.008-0.288,1.584-2.088,2.592-2.376c-0.432-1.512,2.952-2.952,4.464-3.384
	c-0.864-3.024,12.672-3.024,13.68-3.312l0.576,0.432c0.288,0.936,0.504-0.144,0.792,0.864
	C754.604,369.003,754.819,367.923,756.259,369.147z" style="filter:url(#myGaussianBlur)" />
<path fill="#F58345" stroke="#000000" stroke-width="0.7087" stroke-linecap="round" stroke-linejoin="round" stroke-miterlimit="10" d="
	M487.051,443.379c-1.512,0.504-3.384,1.728-3.6,2.952l-1.512,0.504c-2.088,4.104-8.064,22.104-0.576,25.92
	c0.72,2.016,3.96,3.24,4.68,5.328c0.504-0.216,0.504,1.512,0.648,2.016c0,0,3.312-3.96,3.816-4.104c0,0,1.728-3.456,2.232-3.6
	c-0.216-0.504,0.144-1.224,0-1.728c1.008-0.36-0.216-0.504,0.864-0.864c0.144,0.504-1.08,0.36-0.36-1.008
	c1.008-0.36-0.144-0.504,0.864-0.864c-0.36-1.008,0.864-2.592,0.504-3.6c1.584-0.504,0.864-4.32,0.36-5.832
	c3.096-1.008-4.824-12.744-5.184-13.752l-0.648-0.36c-1.008,0.36-0.216-0.504-1.224-0.144
	C488.131,444.747,488.923,443.883,487.051,443.379z" style="filter:url(#myGaussianBlur)" />
<path fill="#F58345" stroke="#000000" stroke-width="0.7087" stroke-linecap="round" stroke-linejoin="round" stroke-miterlimit="10" d="
	M104.083,271.947c-1.584-0.432-3.816-0.576-4.68,0.288l-1.512-0.504c-4.104,2.16-19.512,13.32-15.552,20.736
	c-0.648,2.016,1.296,4.896,0.648,6.984c0.504,0.216-0.504,1.584-0.648,2.088c0,0,4.968-1.296,5.472-1.152c0,0,3.384-1.8,3.96-1.584
	c0.144-0.576,0.792-0.936,0.936-1.44c1.08,0.36,0.216-0.504,1.224-0.216c-0.144,0.576-1.008-0.288,0.36-1.008
	c1.008,0.36,0.144-0.504,1.152-0.216c0.36-1.008,2.232-1.584,2.52-2.592c1.584,0.504,3.24-3.024,3.672-4.464
	c3.168,0.864,3.528-13.176,3.816-14.184l-0.36-0.648c-1.008-0.36,0.216-0.576-0.864-0.864
	C104.083,273.675,105.307,273.459,104.083,271.947z" style="filter:url(#myGaussianBlur)" />
<path fill="#F58345" stroke="#000000" stroke-width="0.7087" stroke-linecap="round" stroke-linejoin="round" stroke-miterlimit="10" d="
	M721.051,204.411c1.512-0.504,3.672-0.576,4.464,0.216l1.512-0.432c3.888,2.088,18.648,12.744,14.904,19.944
	c0.576,1.944-1.296,4.68-0.648,6.696c-0.504,0.144,0.432,1.512,0.576,2.016c0,0-4.752-1.296-5.256-1.152c0,0-3.24-1.656-3.744-1.512
	c-0.144-0.504-0.792-0.864-0.936-1.368c-1.008,0.288-0.144-0.504-1.152-0.144c0.144,0.432,1.008-0.36-0.288-1.008
	c-1.008,0.288-0.144-0.504-1.152-0.216c-0.36-1.008-2.16-1.512-2.448-2.52c-1.512,0.504-3.024-2.88-3.528-4.32
	c-2.952,0.864-3.384-12.6-3.672-13.608l0.36-0.648c1.008-0.288-0.144-0.504,0.864-0.792
	C721.051,206.067,719.899,205.851,721.051,204.411z" style="filter:url(#myGaussianBlur)" />
<path fill="#F58345" stroke="#000000" stroke-width="0.7087" stroke-linecap="round" stroke-linejoin="round" stroke-miterlimit="10" d="
	M649.124,10.299c1.512-0.504,3.6-0.576,4.464,0.216l1.44-0.432c3.96,2.016,18.72,12.744,14.904,19.872
	c0.648,2.016-1.224,4.752-0.648,6.768c-0.432,0.144,0.504,1.512,0.648,2.016c0,0-4.752-1.296-5.256-1.152
	c0,0-3.24-1.728-3.744-1.512c-0.144-0.504-0.792-0.864-0.936-1.368c-1.008,0.288-0.216-0.504-1.152-0.216
	c0.144,0.504,0.936-0.288-0.36-0.936c-0.936,0.288-0.144-0.504-1.152-0.216c-0.288-1.008-2.088-1.512-2.376-2.52
	c-1.512,0.432-3.096-2.88-3.528-4.392c-3.024,0.936-3.384-12.528-3.672-13.536l0.36-0.648c0.936-0.36-0.144-0.504,0.792-0.792
	C649.051,11.883,647.971,11.739,649.124,10.299z" style="filter:url(#myGaussianBlur)" />
<path fill="#F58345" stroke="#000000" stroke-width="0.7087" stroke-linecap="round" stroke-linejoin="round" stroke-miterlimit="10" d="
	M195.452,19.371c-1.368-0.936-3.456-1.728-4.536-1.152l-1.296-0.936c-4.536,0.792-22.608,6.696-21.168,15.048
	c-1.224,1.728-0.288,5.112-1.512,6.84c0.432,0.36-0.936,1.368-1.224,1.8c0,0,5.112,0.288,5.544,0.576c0,0,3.816-0.648,4.248-0.36
	c0.288-0.432,1.08-0.576,1.368-1.008c0.864,0.648,0.288-0.432,1.224,0.216c-0.36,0.432-0.936-0.648,0.576-0.936
	c0.936,0.648,0.36-0.432,1.224,0.216c0.648-0.936,2.592-0.864,3.168-1.728c1.368,0.936,3.96-1.872,4.896-3.24
	c2.664,1.872,7.344-11.376,7.992-12.312l-0.144-0.72c-0.864-0.648,0.36-0.432-0.576-1.08
	C194.947,21.027,196.171,21.243,195.452,19.371z" style="filter:url(#myGaussianBlur)" />
<path fill="#F58345" stroke="#000000" stroke-width="0.7087" stroke-linecap="round" stroke-linejoin="round" stroke-miterlimit="10" d="
	M404.54,16.851c-0.36-1.584-1.368-3.6-2.52-3.888l-0.36-1.584c-3.888-2.448-21.168-10.368-25.704-3.312
	c-2.16,0.504-3.672,3.6-5.832,4.032c0.144,0.576-1.584,0.36-2.088,0.504c0,0,3.6,3.672,3.672,4.176c0,0,3.24,2.088,3.384,2.592
	c0.504-0.072,1.152,0.288,1.656,0.216c0.288,1.008,0.576-0.144,0.792,0.936c-0.504,0.072-0.216-1.08,1.08-0.216
	c0.216,1.008,0.504-0.144,0.72,0.936c1.08-0.216,2.448,1.152,3.528,0.864c0.36,1.584,4.176,1.368,5.76,1.008
	c0.72,3.168,13.176-3.456,14.256-3.672l0.36-0.648c-0.216-1.008,0.576-0.072,0.36-1.152
	C403.027,17.787,403.819,18.723,404.54,16.851z" style="filter:url(#myGaussianBlur)" />
<path fill="#F58345" stroke="#000000" stroke-width="0.7087" stroke-linecap="round" stroke-linejoin="round" stroke-miterlimit="10" d="
	M12.283,438.483c-1.152,1.08-2.376,2.952-2.016,4.176l-1.224,1.08c-0.144,4.608,1.944,23.472,10.368,23.76
	c1.512,1.584,4.968,1.296,6.48,2.88c0.36-0.36,1.08,1.224,1.44,1.584c0,0,1.368-4.896,1.728-5.328c0,0,0.144-3.816,0.504-4.176
	c-0.36-0.432-0.288-1.152-0.72-1.584c0.792-0.72-0.36-0.36,0.432-1.152c0.36,0.432-0.792,0.792-0.72-0.792
	c0.792-0.72-0.36-0.36,0.432-1.08c-0.792-0.792-0.288-2.736-1.08-3.528c1.224-1.08-1.008-4.248-2.088-5.4
	c2.376-2.232-9.72-9.576-10.44-10.368h-0.792c-0.792,0.72-0.36-0.432-1.152,0.36C13.795,439.275,14.228,438.123,12.283,438.483z" style="filter:url(#myGaussianBlur)" />
<path fill="#F58345" stroke="#000000" stroke-width="0.7087" stroke-linecap="round" stroke-linejoin="round" stroke-miterlimit="10" d="
	M805.003,362.739c1.152,1.08,2.304,2.88,1.944,4.032l1.152,1.008c0.144,4.464-1.872,22.536-9.936,22.824
	c-1.44,1.512-4.752,1.224-6.192,2.808c-0.36-0.36-1.08,1.08-1.44,1.512c0,0-1.224-4.752-1.584-5.112c0,0-0.144-3.672-0.504-4.032
	c0.36-0.432,0.288-1.152,0.648-1.512c-0.72-0.72,0.36-0.36-0.36-1.08c-0.36,0.36,0.72,0.72,0.72-0.792
	c-0.792-0.72,0.288-0.36-0.432-1.08c0.72-0.792,0.288-2.592,1.008-3.312c-1.152-1.08,0.936-4.104,2.016-5.256
	c-2.304-2.16,9.288-9.144,10.008-9.936h0.72c0.792,0.72,0.36-0.36,1.152,0.36C803.563,363.531,803.131,362.451,805.003,362.739z" style="filter:url(#myGaussianBlur)" />
<path fill="#F58345" stroke="#000000" stroke-width="0.7087" stroke-linecap="round" stroke-linejoin="round" stroke-miterlimit="10" d="
	M696.139,497.019c0,1.584-0.504,3.672-1.512,4.176v1.584c-3.096,3.168-17.568,14.256-23.328,8.568c-2.088,0-4.176-2.592-6.264-2.52
	c0-0.576-1.584,0-2.088,0c0,0,2.52-4.176,2.52-4.752c0,0,2.592-2.592,2.592-3.096c0.504,0,1.008-0.576,1.584-0.576
	c0-1.008,0.504,0,0.504-1.008c-0.504,0,0,1.008,1.008,0c0-1.08,0.504-0.072,0.504-1.08c1.08,0,2.088-1.584,3.096-1.584
	c0-1.584,3.672-2.088,5.256-2.16c-0.072-3.096,12.96,0.432,14.04,0.432l0.504,0.504c0,1.008,0.504,0,0.576,1.008
	C694.555,496.515,695.06,495.507,696.139,497.019z" style="filter:url(#myGaussianBlur)" />
<path fill="#F58345" stroke="#000000" stroke-width="0.7087" stroke-linecap="round" stroke-linejoin="round" stroke-miterlimit="10" d="
	M475.387,539.931c-0.864,1.368-1.512,3.528-0.936,4.536l-0.792,1.368c1.008,4.536,7.992,22.176,16.2,20.232
	c1.872,1.152,5.112,0,6.984,1.152c0.288-0.504,1.368,0.864,1.8,1.08c0,0,0-5.112,0.288-5.544c0,0-0.864-3.744-0.576-4.176
	c-0.504-0.288-0.648-1.08-1.152-1.368c0.576-0.864-0.432-0.288,0.144-1.152c0.432,0.288-0.576,0.864-0.936-0.576
	c0.576-0.936-0.432-0.288,0.072-1.224c-0.864-0.576-0.936-2.52-1.872-3.096c0.864-1.368-2.088-3.888-3.456-4.68
	c1.656-2.808-11.88-6.696-12.816-7.272l-0.72,0.216c-0.576,0.864-0.432-0.288-1.008,0.576
	C477.043,540.291,477.188,539.139,475.387,539.931z" style="filter:url(#myGaussianBlur)" />
<path fill="#F58345" stroke="#000000" stroke-width="0.7087" stroke-linecap="round" stroke-linejoin="round" stroke-miterlimit="10" d="
	M435.788,499.755c-0.144,1.656,0.216,3.816,1.224,4.464l-0.144,1.656c2.952,3.528,17.064,16.2,23.544,10.8
	c2.16,0.216,4.608-2.304,6.768-2.088c0-0.576,1.584,0.144,2.16,0.144c0,0-2.304-4.536-2.304-5.112c0,0-2.448-2.88-2.376-3.456
	c-0.576-0.072-1.008-0.648-1.584-0.72c0.072-1.08-0.504,0-0.432-1.08c0.504,0-0.072,1.08-1.08-0.144c0.072-1.08-0.576,0-0.432-1.08
	c-1.08-0.144-2.016-1.872-3.096-1.944c0.144-1.584-3.6-2.52-5.256-2.664c0.288-3.24-13.536-0.648-14.616-0.72l-0.576,0.504
	c-0.144,1.08-0.576-0.072-0.648,1.008C437.443,499.395,437.011,498.243,435.788,499.755z" style="filter:url(#myGaussianBlur)" />
<path fill="#F58345" stroke="#000000" stroke-width="0.7087" stroke-linecap="round" stroke-linejoin="round" stroke-miterlimit="10" d="
	M29.563,287.859c-1.08,1.296-2.088,3.168-1.656,4.32l-1.08,1.224c0.36,4.608,4.464,23.184,12.888,22.536
	c1.584,1.44,5.04,0.792,6.696,2.232c0.36-0.432,1.224,1.008,1.584,1.368c0,0,0.792-5.04,1.152-5.472c0,0-0.288-3.816,0.072-4.248
	c-0.36-0.36-0.432-1.08-0.864-1.44c0.72-0.864-0.432-0.36,0.288-1.152c0.432,0.288-0.72,0.792-0.792-0.72
	c0.72-0.864-0.432-0.36,0.288-1.224c-0.792-0.648-0.576-2.592-1.44-3.312c1.08-1.224-1.44-4.176-2.664-5.184
	c2.16-2.52-10.656-8.424-11.448-9.144l-0.792,0.072c-0.648,0.864-0.36-0.36-1.08,0.504
	C31.147,288.579,31.436,287.355,29.563,287.859z" style="filter:url(#myGaussianBlur)" />
<path fill="#F58345" stroke="#000000" stroke-width="0.7087" stroke-linecap="round" stroke-linejoin="round" stroke-miterlimit="10" d="
	M788.515,218.307c1.008,1.152,1.944,3.096,1.512,4.176l1.008,1.152c-0.288,4.464-4.248,22.248-12.312,21.672
	c-1.584,1.368-4.824,0.72-6.408,2.088c-0.36-0.36-1.224,1.008-1.584,1.368c0,0-0.72-4.896-1.08-5.256c0,0,0.288-3.672-0.072-4.032
	c0.36-0.36,0.432-1.08,0.864-1.44c-0.72-0.792,0.36-0.36-0.288-1.152c-0.432,0.36,0.648,0.792,0.792-0.648
	c-0.72-0.792,0.36-0.36-0.288-1.152c0.792-0.648,0.504-2.52,1.296-3.24c-1.008-1.152,1.44-3.96,2.592-4.968
	c-2.016-2.376,10.224-8.136,11.016-8.784l0.72,0.072c0.648,0.792,0.36-0.36,1.08,0.432
	C786.931,218.955,786.644,217.803,788.515,218.307z" style="filter:url(#myGaussianBlur)" />
<path fill="#F58345" stroke="#000000" stroke-width="0.7087" stroke-linecap="round" stroke-linejoin="round" stroke-miterlimit="10" d="
	M508.868,237.315c1.008,1.152,1.944,3.096,1.512,4.176l1.008,1.152c-0.288,4.464-4.248,22.248-12.312,21.672
	c-1.584,1.368-4.824,0.72-6.408,2.088c-0.36-0.432-1.152,1.008-1.584,1.368c0,0-0.72-4.896-1.08-5.256c0,0,0.288-3.672-0.072-4.104
	c0.36-0.288,0.432-1.008,0.864-1.368c-0.72-0.792,0.36-0.36-0.288-1.152c-0.432,0.36,0.648,0.792,0.792-0.648
	c-0.72-0.792,0.36-0.36-0.288-1.152c0.792-0.648,0.504-2.52,1.296-3.24c-1.008-1.152,1.44-3.96,2.592-4.968
	c-2.016-2.376,10.224-8.136,11.016-8.784l0.72,0.072c0.648,0.792,0.36-0.36,1.08,0.432
	C507.283,237.963,506.996,236.811,508.868,237.315z" style="filter:url(#myGaussianBlur)" />
<path fill="#F58345" stroke="#000000" stroke-width="0.7087" stroke-linecap="round" stroke-linejoin="round" stroke-miterlimit="10" d="
	M716.515,24.195c1.008,1.152,2.016,3.096,1.584,4.176l1.008,1.152c-0.36,4.392-4.248,22.248-12.312,21.672
	c-1.584,1.296-4.824,0.72-6.408,2.088c-0.36-0.432-1.224,1.008-1.584,1.368c0,0-0.792-4.896-1.08-5.256c0,0,0.216-3.672-0.072-4.104
	c0.36-0.288,0.432-1.08,0.792-1.368c-0.648-0.792,0.432-0.36-0.288-1.152c-0.36,0.36,0.72,0.792,0.792-0.648
	c-0.648-0.792,0.432-0.36-0.288-1.152c0.792-0.72,0.576-2.52,1.368-3.24c-1.008-1.152,1.368-3.96,2.592-4.968
	c-2.016-2.376,10.224-8.136,10.944-8.784l0.792,0.072c0.648,0.792,0.36-0.36,1.08,0.432
	C715.003,24.843,714.715,23.691,716.515,24.195z" style="filter:url(#myGaussianBlur)" />
<path fill="#F58345" stroke="#000000" stroke-width="0.7087" stroke-linecap="round" stroke-linejoin="round" stroke-miterlimit="10" d="
	M793.195,125.643c1.008-1.152,2.016-3.096,1.584-4.176l1.008-1.152c-0.36-4.392-4.248-22.248-12.312-21.6
	c-1.584-1.368-4.824-0.792-6.408-2.16c-0.36,0.432-1.224-1.008-1.584-1.296c0,0-0.792,4.824-1.08,5.184c0,0,0.216,3.672-0.072,4.104
	c0.36,0.36,0.432,1.08,0.792,1.44c-0.648,0.792,0.432,0.288-0.288,1.08c-0.36-0.288,0.72-0.792,0.792,0.72
	c-0.648,0.792,0.432,0.288-0.288,1.08c0.792,0.72,0.576,2.592,1.368,3.24c-1.008,1.224,1.44,3.96,2.592,4.968
	c-2.016,2.376,10.224,8.136,10.944,8.784h0.792c0.648-0.792,0.36,0.288,1.08-0.504C791.684,125.067,791.396,126.147,793.195,125.643
	z" style="filter:url(#myGaussianBlur)" />
<path fill="#F58345" stroke="#000000" stroke-width="0.7087" stroke-linecap="round" stroke-linejoin="round" stroke-miterlimit="10" d="
	M709.675,138.603c0.144,1.512-0.216,3.672-1.224,4.248l0.072,1.584c-2.88,3.312-16.632,15.264-22.752,10.008
	c-2.088,0.144-4.32-2.304-6.408-2.16c-0.072-0.504-1.584,0.144-2.088,0.144c0,0,2.304-4.32,2.232-4.824c0,0,2.448-2.808,2.376-3.312
	c0.576-0.072,1.008-0.576,1.512-0.648c-0.072-1.008,0.576-0.072,0.504-1.08c-0.576,0.072,0.072,1.008,1.008-0.072
	c-0.072-1.008,0.504-0.072,0.432-1.08c1.08-0.072,1.944-1.728,3.024-1.8c-0.144-1.512,3.456-2.304,5.04-2.448
	c-0.216-3.096,13.032-0.432,14.04-0.504l0.576,0.504c0.072,1.008,0.504-0.072,0.576,1.008
	C708.091,138.171,708.523,137.091,709.675,138.603z" style="filter:url(#myGaussianBlur)" />
<path fill="#F58345" stroke="#000000" stroke-width="0.7087" stroke-linecap="round" stroke-linejoin="round" stroke-miterlimit="10" d="
	M672.883,171.147c-1.008,1.152-2.808,2.376-3.888,2.088l-1.008,1.224c-4.464,0.288-22.608-0.936-23.184-9
	c-1.584-1.368-1.512-4.752-3.024-6.12c0.288-0.36-1.224-1.008-1.584-1.296c0,0,4.68-1.512,5.04-1.872c0,0,3.672-0.288,3.96-0.648
	c0.432,0.288,1.152,0.288,1.512,0.576c0.72-0.792,0.432,0.36,1.08-0.432c-0.36-0.36-0.648,0.792,0.792,0.72
	c0.72-0.792,0.432,0.288,1.08-0.504c0.792,0.72,2.592,0.216,3.384,0.864c1.008-1.152,4.104,0.864,5.328,1.872
	c2.016-2.376,9.504,8.856,10.296,9.576l0.072,0.72c-0.72,0.792,0.36,0.36-0.288,1.152C672.02,169.707,673.1,169.275,672.883,171.147
	z" style="filter:url(#myGaussianBlur)" />
<path fill="#F58345" stroke="#000000" stroke-width="0.7087" stroke-linecap="round" stroke-linejoin="round" stroke-miterlimit="10" d="
	M763.963,158.475c0.144,1.584-0.216,3.672-1.224,4.248l0.072,1.584c-2.88,3.384-16.632,15.336-22.752,10.008
	c-2.088,0.144-4.32-2.232-6.408-2.088c-0.072-0.576-1.584,0.072-2.088,0.144c0,0,2.304-4.392,2.232-4.896
	c0,0,2.448-2.808,2.376-3.312c0.576,0,1.008-0.576,1.512-0.648c-0.072-1.008,0.576,0,0.504-1.008c-0.576,0,0.072,1.008,1.008-0.144
	c-0.072-1.008,0.504,0,0.432-1.08c1.08-0.072,1.944-1.656,3.024-1.728c-0.144-1.584,3.456-2.376,5.04-2.448
	c-0.216-3.168,13.032-0.504,14.04-0.576l0.576,0.504c0.072,1.08,0.504,0,0.576,1.008
	C762.379,158.115,762.812,157.035,763.963,158.475z" style="filter:url(#myGaussianBlur)" />
<path fill="#F58345" stroke="#000000" stroke-width="0.7087" stroke-linecap="round" stroke-linejoin="round" stroke-miterlimit="10" d="
	M131.228,273.603c1.008,1.224,1.944,3.096,1.512,4.176l1.008,1.224c-0.288,4.392-4.176,22.104-12.312,21.528
	c-1.584,1.368-4.824,0.72-6.408,2.088c-0.36-0.36-1.152,1.008-1.584,1.368c0,0-0.72-4.824-1.08-5.256c0,0,0.288-3.672-0.072-4.032
	c0.432-0.36,0.432-1.08,0.864-1.44c-0.72-0.792,0.36-0.36-0.288-1.152c-0.432,0.36,0.648,0.792,0.792-0.648
	c-0.72-0.792,0.36-0.36-0.288-1.152c0.792-0.648,0.504-2.448,1.296-3.168c-1.008-1.152,1.44-3.96,2.592-4.968
	c-2.016-2.376,10.224-8.064,11.016-8.784l0.72,0.072c0.72,0.792,0.432-0.36,1.08,0.432
	C129.715,274.251,129.427,273.099,131.228,273.603z" style="filter:url(#myGaussianBlur)" />
<path fill="#F58345" stroke="#000000" stroke-width="0.7087" stroke-linecap="round" stroke-linejoin="round" stroke-miterlimit="10" d="
	M455.587,264.171c1.08,1.224,2.016,3.096,1.584,4.176l1.008,1.224c-0.36,4.392-4.248,22.104-12.312,21.528
	c-1.584,1.368-4.824,0.72-6.408,2.088c-0.36-0.36-1.224,1.008-1.584,1.368c0,0-0.792-4.824-1.08-5.256c0,0,0.288-3.6-0.072-3.96
	c0.36-0.36,0.432-1.08,0.792-1.44c-0.648-0.792,0.432-0.36-0.216-1.152c-0.432,0.36,0.648,0.792,0.72-0.648
	c-0.648-0.792,0.432-0.36-0.216-1.152c0.72-0.648,0.504-2.52,1.296-3.168c-1.008-1.224,1.44-3.96,2.592-5.04
	c-2.016-2.304,10.224-8.064,11.016-8.784l0.72,0.072c0.648,0.792,0.36-0.36,1.08,0.432
	C454.075,264.819,453.788,263.667,455.587,264.171z" style="filter:url(#myGaussianBlur)" />
<path fill="#F58345" stroke="#000000" stroke-width="0.7087" stroke-linecap="round" stroke-linejoin="round" stroke-miterlimit="10" d="
	M523.124,224.571c-0.72,1.368-2.088,2.952-3.24,2.952l-0.72,1.368c-4.248,1.368-22.248,4.32-24.696-3.384
	c-1.8-0.936-2.448-4.248-4.32-5.184c0.216-0.432-1.368-0.72-1.872-0.936c0,0,4.248-2.52,4.464-2.952c0,0,3.528-1.152,3.816-1.584
	c0.432,0.216,1.152,0,1.584,0.216c0.504-0.936,0.504,0.288,0.937-0.648c-0.432-0.288-0.432,0.936,0.936,0.432
	c0.504-0.864,0.432,0.288,0.936-0.648c0.936,0.504,2.592-0.432,3.528,0.072c0.72-1.44,4.176-0.216,5.544,0.504
	c1.44-2.736,11.304,6.48,12.24,6.984l0.216,0.648c-0.432,0.936,0.504,0.288,0,1.224
	C522.043,223.347,522.979,222.699,523.124,224.571z" style="filter:url(#myGaussianBlur)" />
<path fill="#F58345" stroke="#000000" stroke-width="0.7087" stroke-linecap="round" stroke-linejoin="round" stroke-miterlimit="10" d="
	M190.916,258.483c1.152,1.224,2.952,2.448,4.176,2.16l1.08,1.152c4.608,0.216,23.544-1.584,23.904-10.008
	c1.584-1.44,1.368-4.896,3.024-6.336c-0.36-0.432,1.152-1.152,1.584-1.512c0,0-4.968-1.368-5.328-1.8c0,0-3.816-0.144-4.176-0.576
	c-0.432,0.36-1.152,0.36-1.584,0.72c-0.72-0.792-0.36,0.36-1.152-0.432c0.432-0.36,0.792,0.792-0.792,0.72
	c-0.72-0.792-0.36,0.36-1.08-0.432c-0.864,0.72-2.736,0.288-3.528,1.008c-1.08-1.224-4.248,0.936-5.472,2.016
	c-2.232-2.376-9.648,9.576-10.512,10.296v0.72c0.72,0.792-0.432,0.36,0.288,1.224C191.779,256.971,190.627,256.539,190.916,258.483z
	" style="filter:url(#myGaussianBlur)" />
<path fill="#F58345" stroke="#000000" stroke-width="0.7087" stroke-linecap="round" stroke-linejoin="round" stroke-miterlimit="10" d="
	M26.251,79.347c1.08,1.224,2.952,2.448,4.176,2.088l1.08,1.224c4.608,0.216,23.472-1.584,23.904-10.008
	c1.584-1.44,1.368-4.896,2.952-6.408c-0.36-0.36,1.224-1.08,1.656-1.44c0,0-4.968-1.368-5.328-1.8c0,0-3.816-0.144-4.176-0.576
	c-0.432,0.36-1.152,0.36-1.584,0.72c-0.72-0.792-0.432,0.36-1.152-0.432c0.432-0.36,0.72,0.792-0.792,0.72
	c-0.72-0.792-0.36,0.36-1.152-0.432c-0.792,0.72-2.664,0.216-3.456,0.936c-1.08-1.152-4.32,1.008-5.472,2.088
	c-2.232-2.448-9.72,9.504-10.512,10.224v0.792c0.72,0.792-0.432,0.36,0.288,1.152C27.115,77.835,25.963,77.403,26.251,79.347z" style="filter:url(#myGaussianBlur)" />
<path fill="#F58345" stroke="#000000" stroke-width="0.7087" stroke-linecap="round" stroke-linejoin="round" stroke-miterlimit="10" d="
	M130.795,77.979c1.08,1.224,2.952,2.448,4.104,2.16l1.08,1.152c4.608,0.216,23.544-1.584,23.904-10.008
	c1.656-1.44,1.44-4.896,3.024-6.408c-0.36-0.36,1.224-1.08,1.584-1.44c0,0-4.896-1.368-5.256-1.8c0,0-3.888-0.144-4.248-0.576
	c-0.36,0.36-1.152,0.36-1.512,0.72c-0.792-0.792-0.432,0.36-1.152-0.432c0.36-0.36,0.72,0.792-0.792,0.72
	c-0.792-0.792-0.432,0.36-1.152-0.432c-0.792,0.72-2.736,0.216-3.528,1.008c-1.08-1.224-4.248,0.936-5.472,2.016
	c-2.16-2.376-9.648,9.504-10.44,10.296l-0.072,0.72c0.72,0.792-0.36,0.36,0.36,1.152C131.587,76.467,130.507,76.035,130.795,77.979z
	" style="filter:url(#myGaussianBlur)" />
<path fill="#F58345" stroke="#000000" stroke-width="0.7087" stroke-linecap="round" stroke-linejoin="round" stroke-miterlimit="10" d="
	M48.067,43.275c-0.36,1.584-0.216,3.816,0.72,4.608l-0.36,1.584c2.592,3.816,15.192,18.072,22.248,13.392
	c2.088,0.432,4.752-1.8,6.912-1.368c0.072-0.504,1.584,0.36,2.088,0.432c0,0-1.8-4.752-1.656-5.328c0,0-2.088-3.168-2.016-3.744
	c-0.504-0.072-0.936-0.72-1.512-0.864c0.216-1.008-0.504-0.072-0.288-1.152c0.504,0.144-0.216,1.08-1.08-0.216
	c0.216-1.08-0.504-0.072-0.288-1.152c-1.08-0.216-1.8-2.016-2.88-2.232c0.36-1.656-3.312-2.88-4.896-3.24
	c0.648-3.168-13.392-2.16-14.472-2.376l-0.648,0.432c-0.216,1.008-0.504-0.144-0.72,0.936
	C49.723,43.059,49.436,41.907,48.067,43.275z" style="filter:url(#myGaussianBlur)" />
<path fill="#F58345" stroke="#000000" stroke-width="0.7087" stroke-linecap="round" stroke-linejoin="round" stroke-miterlimit="10" d="
	M70.243,394.851c-0.144,1.584,0.216,3.816,1.224,4.464l-0.144,1.584c2.952,3.528,17.064,16.272,23.544,10.872
	c2.16,0.144,4.608-2.304,6.768-2.16c0-0.504,1.584,0.144,2.16,0.216c0,0-2.304-4.536-2.304-5.112c0,0-2.448-2.952-2.376-3.456
	c-0.576-0.072-1.08-0.648-1.584-0.72c0.072-1.08-0.576-0.072-0.432-1.152c0.504,0.072-0.144,1.08-1.08-0.072
	c0.072-1.08-0.576-0.072-0.432-1.152c-1.08-0.072-2.016-1.8-3.096-1.872c0.144-1.656-3.6-2.52-5.256-2.664
	c0.288-3.24-13.536-0.648-14.616-0.792l-0.576,0.504c-0.144,1.08-0.576-0.072-0.648,1.008
	C71.899,394.419,71.468,393.267,70.243,394.851z" style="filter:url(#myGaussianBlur)" />
<path fill="#F58345" stroke="#000000" stroke-width="0.7087" stroke-linecap="round" stroke-linejoin="round" stroke-miterlimit="10" d="
	M753.523,322.203c0.144,1.584-0.216,3.744-1.224,4.32l0.144,1.584c-2.808,3.384-16.344,15.552-22.608,10.368
	c-2.016,0.216-4.32-2.232-6.408-2.016c-0.072-0.504-1.584,0.144-2.088,0.144c0,0,2.232-4.392,2.16-4.896
	c0,0,2.376-2.808,2.304-3.312c0.504-0.072,1.008-0.648,1.512-0.648c-0.072-1.08,0.504-0.072,0.432-1.08
	c-0.504,0,0.072,1.008,1.08-0.144c-0.144-1.008,0.504,0,0.36-1.08c1.08-0.072,1.944-1.728,3.024-1.8
	c-0.144-1.584,3.456-2.448,4.968-2.52c-0.288-3.168,13.032-0.648,14.04-0.792l0.576,0.504c0.072,1.008,0.504-0.072,0.648,1.008
	C751.868,321.843,752.299,320.763,753.523,322.203z" style="filter:url(#myGaussianBlur)" />
<path fill="#F58345" stroke="#000000" stroke-width="0.7087" stroke-linecap="round" stroke-linejoin="round" stroke-miterlimit="10" d="
	M765.259,115.131c0.144,1.512-0.216,3.672-1.152,4.248l0.144,1.584c-2.88,3.384-16.416,15.552-22.608,10.368
	c-2.088,0.216-4.392-2.232-6.48-2.016c-0.072-0.504-1.584,0.144-2.088,0.216c0,0,2.232-4.392,2.16-4.968
	c0,0,2.376-2.808,2.376-3.312c0.504-0.072,0.936-0.576,1.512-0.648c-0.144-1.08,0.504-0.072,0.36-1.08
	c-0.504,0,0.144,1.008,1.08-0.072c-0.072-1.08,0.504-0.072,0.432-1.152c1.008-0.072,1.944-1.728,2.952-1.8
	c-0.144-1.584,3.456-2.376,5.04-2.52c-0.288-3.168,12.96-0.648,14.04-0.792l0.504,0.504c0.144,1.008,0.576-0.072,0.648,1.008
	C763.675,114.699,764.107,113.619,765.259,115.131z" style="filter:url(#myGaussianBlur)" />
<path fill="#F58345" stroke="#000000" stroke-width="0.7087" stroke-linecap="round" stroke-linejoin="round" stroke-miterlimit="10" d="
	M758.635,524.739c-1.08,1.224-2.808,2.448-3.96,2.16l-1.008,1.152c-4.392,0.288-22.608-1.08-23.112-9.144
	c-1.584-1.368-1.44-4.752-3.024-6.12c0.36-0.36-1.152-1.008-1.512-1.368c0,0,4.68-1.368,5.04-1.8c0,0,3.672-0.216,3.96-0.648
	c0.432,0.36,1.152,0.288,1.584,0.648c0.648-0.792,0.36,0.36,1.008-0.432c-0.36-0.36-0.648,0.792,0.792,0.72
	c0.72-0.792,0.432,0.288,1.08-0.504c0.792,0.72,2.592,0.216,3.384,0.936c1.08-1.224,4.104,0.792,5.328,1.8
	c2.016-2.304,9.432,9,10.224,9.648l0.072,0.792c-0.72,0.792,0.36,0.288-0.288,1.08C757.771,523.371,758.852,522.867,758.635,524.739
	z" style="filter:url(#myGaussianBlur)" />
<path fill="#F58345" stroke="#000000" stroke-width="0.7087" stroke-linecap="round" stroke-linejoin="round" stroke-miterlimit="10" d="
	M77.156,550.443c-0.144,1.656,0.216,3.816,1.224,4.464l-0.144,1.656c2.952,3.528,17.136,16.2,23.616,10.8
	c2.16,0.216,4.536-2.304,6.696-2.088c0.072-0.576,1.656,0.144,2.16,0.144c0,0-2.304-4.536-2.232-5.04c0,0-2.52-2.952-2.448-3.528
	c-0.504-0.072-1.008-0.648-1.584-0.648c0.144-1.08-0.504-0.072-0.432-1.152c0.576,0.072-0.072,1.08-1.08-0.072
	c0.072-1.08-0.504-0.072-0.432-1.152c-1.08-0.144-2.016-1.8-3.096-1.944c0.144-1.584-3.6-2.448-5.256-2.664
	c0.36-3.24-13.536-0.648-14.616-0.72l-0.576,0.504c-0.072,1.08-0.576-0.072-0.648,1.008
	C78.883,550.083,78.379,548.931,77.156,550.443z" style="filter:url(#myGaussianBlur)" />
<path fill="#F58345" stroke="#000000" stroke-width="0.7087" stroke-linecap="round" stroke-linejoin="round" stroke-miterlimit="10" d="
	M748.268,475.851c0.144,1.584-0.144,3.672-1.152,4.32l0.144,1.512c-2.808,3.384-16.416,15.624-22.608,10.44
	c-2.088,0.144-4.392-2.232-6.48-2.088c0-0.504-1.512,0.144-2.016,0.216c0,0,2.16-4.392,2.16-4.896c0,0,2.376-2.808,2.304-3.312
	c0.504-0.072,1.008-0.648,1.512-0.72c-0.072-1.008,0.504,0,0.432-1.08c-0.504,0.072,0.072,1.08,1.008-0.072
	c-0.072-1.008,0.504-0.072,0.432-1.08c1.008-0.072,1.944-1.728,2.952-1.872c-0.144-1.512,3.456-2.376,5.04-2.52
	c-0.288-3.096,13.032-0.648,14.04-0.72l0.576,0.432c0.072,1.08,0.504,0,0.576,1.008
	C746.684,475.491,747.115,474.411,748.268,475.851z" style="filter:url(#myGaussianBlur)" />
<path fill="#F58345" stroke="#000000" stroke-width="0.7087" stroke-linecap="round" stroke-linejoin="round" stroke-miterlimit="10" d="
	M98.539,221.547c-0.144,1.368,0.144,3.168,1.008,3.744l-0.072,1.296c2.448,2.952,14.184,13.536,19.512,9
	c1.8,0.216,3.816-1.872,5.616-1.728c0.072-0.432,1.368,0.144,1.8,0.144c0,0-1.944-3.816-1.872-4.248c0,0-2.088-2.448-2.016-2.88
	c-0.432-0.072-0.864-0.504-1.296-0.576c0.072-0.864-0.432-0.072-0.36-0.936c0.432,0.072-0.072,0.864-0.936-0.072
	c0.072-0.936-0.432-0.072-0.36-0.936c-0.864-0.072-1.656-1.512-2.592-1.584c0.144-1.368-2.952-2.088-4.32-2.232
	c0.288-2.664-11.232-0.576-12.168-0.648l-0.504,0.432c-0.072,0.864-0.432-0.072-0.504,0.864
	C99.907,221.187,99.547,220.251,98.539,221.547z" style="filter:url(#myGaussianBlur)" />
<path fill="#F58345" stroke="#000000" stroke-width="0.7087" stroke-linecap="round" stroke-linejoin="round" stroke-miterlimit="10" d="
	M50.659,349.779c-0.144,1.656,0.216,3.888,1.296,4.536l-0.144,1.584c2.952,3.528,17.064,16.272,23.544,10.872
	c2.16,0.144,4.536-2.376,6.696-2.16c0.072-0.504,1.656,0.144,2.16,0.216c0,0-2.304-4.608-2.232-5.112c0,0-2.448-2.952-2.448-3.528
	c-0.504,0-1.008-0.576-1.584-0.648c0.144-1.08-0.504-0.072-0.432-1.152c0.576,0.072-0.072,1.08-1.08-0.072
	c0.144-1.08-0.504-0.072-0.432-1.152c-1.08-0.072-2.016-1.8-3.096-1.872c0.144-1.656-3.6-2.52-5.184-2.664
	c0.288-3.24-13.608-0.72-14.688-0.792l-0.576,0.504c-0.072,1.08-0.504-0.072-0.648,1.008
	C52.387,349.419,51.955,348.267,50.659,349.779z" style="filter:url(#myGaussianBlur)" />
<path fill="#F58345" stroke="#000000" stroke-width="0.7087" stroke-linecap="round" stroke-linejoin="round" stroke-miterlimit="10" d="
	M772.244,279.147c0.144,1.512-0.216,3.672-1.152,4.248l0.144,1.584c-2.88,3.384-16.416,15.48-22.608,10.296
	c-2.088,0.216-4.392-2.232-6.48-2.016c0-0.504-1.512,0.144-2.088,0.216c0,0,2.232-4.32,2.232-4.824c0,0,2.304-2.88,2.304-3.384
	c0.504-0.072,0.936-0.576,1.512-0.648c-0.144-1.008,0.504-0.072,0.432-1.08c-0.576,0.072,0.072,1.008,1.008-0.072
	c-0.072-1.08,0.504-0.072,0.432-1.08c1.008-0.144,1.944-1.8,2.952-1.872c-0.144-1.584,3.456-2.376,5.04-2.52
	c-0.288-3.096,12.96-0.648,14.04-0.72l0.576,0.432c0.072,1.08,0.504-0.072,0.576,1.008
	C770.66,278.787,771.091,277.635,772.244,279.147z" style="filter:url(#myGaussianBlur)" />
<path fill="#F58345" stroke="#000000" stroke-width="0.7087" stroke-linecap="round" stroke-linejoin="round" stroke-miterlimit="10" d="
	M689.66,254.667c0.144,1.512-0.216,3.672-1.224,4.248l0.144,1.584c-2.808,3.384-16.344,15.552-22.608,10.368
	c-2.016,0.216-4.32-2.16-6.408-2.016c-0.072-0.504-1.584,0.144-2.088,0.216c0,0,2.232-4.392,2.16-4.896c0,0,2.376-2.88,2.304-3.384
	c0.504,0,1.008-0.576,1.512-0.648c-0.072-1.008,0.504-0.072,0.432-1.08c-0.504,0.072,0.072,1.008,1.08-0.072
	c-0.144-1.08,0.504-0.072,0.36-1.08c1.08-0.144,1.944-1.8,3.024-1.872c-0.144-1.512,3.456-2.376,4.968-2.52
	c-0.288-3.096,13.032-0.648,14.04-0.72l0.576,0.432c0.072,1.08,0.504-0.072,0.648,1.008
	C688.003,254.307,688.436,253.155,689.66,254.667z" style="filter:url(#myGaussianBlur)" />
<path fill="#F58345" stroke="#000000" stroke-width="0.7087" stroke-linecap="round" stroke-linejoin="round" stroke-miterlimit="10" d="
	M783.979,71.931c0.144,1.584-0.144,3.672-1.152,4.32l0.144,1.512c-2.808,3.384-16.344,15.624-22.608,10.368
	c-2.088,0.216-4.392-2.16-6.408-2.016c-0.072-0.504-1.584,0.144-2.088,0.216c0,0,2.232-4.392,2.16-4.896
	c0,0,2.376-2.808,2.304-3.384c0.504,0,1.008-0.576,1.512-0.648c-0.072-1.008,0.504,0,0.432-1.08
	c-0.504,0.072,0.072,1.08,1.008-0.072c-0.072-1.08,0.576-0.072,0.432-1.08c1.08-0.144,1.944-1.728,3.024-1.872
	c-0.144-1.512,3.384-2.376,4.968-2.52c-0.288-3.096,13.032-0.648,14.04-0.72l0.576,0.432c0.072,1.08,0.504,0,0.576,1.008
	C782.396,71.571,782.828,70.491,783.979,71.931z" style="filter:url(#myGaussianBlur)" />
<path fill="#F58345" stroke="#000000" stroke-width="0.7087" stroke-linecap="round" stroke-linejoin="round" stroke-miterlimit="10" d="
	M503.467,280.515c0.144,1.512-0.216,3.672-1.152,4.248l0.072,1.584c-2.808,3.312-16.344,15.48-22.536,10.296
	c-2.088,0.216-4.392-2.232-6.48-2.016c-0.072-0.504-1.584,0.144-2.088,0.144c0,0,2.232-4.32,2.16-4.896c0,0,2.376-2.736,2.376-3.24
	c0.504-0.072,0.936-0.648,1.44-0.648c-0.072-1.08,0.576-0.072,0.432-1.08c-0.504,0,0.144,1.008,1.08-0.144
	c-0.072-1.008,0.504,0,0.432-1.08c1.008-0.072,1.944-1.728,2.952-1.8c-0.144-1.584,3.456-2.376,4.968-2.52
	c-0.216-3.168,13.032-0.648,14.112-0.792l0.504,0.504c0.144,1.008,0.576-0.072,0.648,1.008
	C501.883,280.083,502.315,279.003,503.467,280.515z" style="filter:url(#myGaussianBlur)" />
<path fill="#F58345" stroke="#000000" stroke-width="0.7087" stroke-linecap="round" stroke-linejoin="round" stroke-miterlimit="10" d="
	M251.684,9.507c0.576,1.512,1.8,3.312,3.024,3.456l0.576,1.512c4.176,1.944,22.392,7.344,25.92-0.288
	c2.016-0.792,3.168-4.104,5.184-4.824c-0.216-0.504,1.512-0.576,2.016-0.792c0,0-4.032-3.096-4.248-3.6c0,0-3.456-1.584-3.672-2.088
	c-0.504,0.144-1.224-0.144-1.728,0c-0.36-1.008-0.504,0.216-0.864-0.792c0.504-0.216,0.36,1.008-1.008,0.36
	c-0.36-1.008-0.504,0.216-0.864-0.792c-1.08,0.36-2.664-0.792-3.672-0.432c-0.576-1.512-4.32-0.72-5.832-0.144
	c-1.152-3.024-12.528,5.256-13.536,5.616l-0.36,0.648c0.432,1.08-0.504,0.216-0.072,1.224
	C253.051,8.427,252.115,7.563,251.684,9.507z" style="filter:url(#myGaussianBlur)" />
<path fill="#F58345" stroke="#000000" stroke-width="0.7087" stroke-linecap="round" stroke-linejoin="round" stroke-miterlimit="10" d="
	M235.268,240.267c1.008,1.368,2.736,2.736,3.888,2.52l1.008,1.368c4.536,0.648,23.544,0.792,24.768-7.488
	c1.8-1.296,1.872-4.824,3.672-6.12c-0.36-0.432,1.296-0.936,1.728-1.224c0,0-4.752-1.944-5.112-2.376c0,0-3.744-0.576-4.104-1.008
	c-0.432,0.36-1.152,0.216-1.584,0.576c-0.648-0.936-0.504,0.288-1.152-0.576c0.504-0.36,0.648,0.864-0.864,0.648
	c-0.648-0.864-0.432,0.288-1.08-0.576c-0.864,0.648-2.664,0-3.6,0.648c-0.936-1.296-4.32,0.504-5.616,1.44
	c-1.944-2.592-10.584,8.496-11.448,9.144l-0.144,0.792c0.648,0.864-0.432,0.288,0.216,1.152
	C236.275,238.899,235.195,238.323,235.268,240.267z" style="filter:url(#myGaussianBlur)" />
<path fill="#F58345" stroke="#000000" stroke-width="0.7087" stroke-linecap="round" stroke-linejoin="round" stroke-miterlimit="10" d="
	M339.235,7.347c-0.432,1.368-0.648,3.384,0.144,4.176l-0.504,1.368c1.8,3.672,11.304,17.64,18,14.328
	c1.872,0.648,4.464-1.008,6.264-0.36c0.216-0.432,1.44,0.504,1.872,0.648c0,0-1.008-4.464-0.864-4.896c0,0-1.512-3.096-1.368-3.528
	c-0.432-0.144-0.72-0.792-1.224-0.936c0.36-0.936-0.432-0.144-0.144-1.08c0.504,0.144-0.288,0.936-0.864-0.288
	c0.288-0.936-0.504-0.216-0.144-1.08c-0.936-0.36-1.368-2.016-2.304-2.304c0.504-1.368-2.52-2.952-3.888-3.456
	c0.936-2.736-11.592-3.456-12.528-3.744l-0.576,0.288c-0.36,0.864-0.432-0.144-0.792,0.72
	C340.748,7.347,340.675,6.339,339.235,7.347z" style="filter:url(#myGaussianBlur)" />
<path fill="#F58345" stroke="#000000" stroke-width="0.7087" stroke-linecap="round" stroke-linejoin="round" stroke-miterlimit="10" d="
	M93.931,313.563c-0.144,1.656,0.216,3.888,1.224,4.464l-0.144,1.656c2.952,3.528,17.064,16.272,23.544,10.8
	c2.16,0.216,4.536-2.304,6.768-2.088c0-0.504,1.584,0.144,2.16,0.216c0,0-2.376-4.608-2.304-5.112c0,0-2.448-2.952-2.376-3.528
	c-0.576,0-1.08-0.648-1.584-0.648c0.072-1.08-0.576-0.072-0.432-1.152c0.504,0.072-0.144,1.08-1.08-0.072
	c0.072-1.08-0.576-0.072-0.504-1.152c-1.08-0.072-2.016-1.8-3.096-1.872c0.144-1.656-3.6-2.52-5.184-2.664
	c0.288-3.24-13.536-0.72-14.616-0.792l-0.648,0.504c-0.072,1.08-0.504-0.072-0.576,1.008
	C95.587,313.203,95.156,312.051,93.931,313.563z" style="filter:url(#myGaussianBlur)" />
<path fill="#F58345" stroke="#000000" stroke-width="0.7087" stroke-linecap="round" stroke-linejoin="round" stroke-miterlimit="10" d="
	M730.771,244.371c0.144,1.584-0.144,3.672-1.152,4.32l0.144,1.512c-2.88,3.384-16.416,15.624-22.608,10.44
	c-2.088,0.144-4.392-2.232-6.48-2.088c0-0.504-1.512,0.144-2.088,0.216c0,0,2.232-4.392,2.232-4.896c0,0,2.304-2.808,2.304-3.312
	c0.504-0.072,1.008-0.648,1.512-0.72c-0.144-1.008,0.504,0,0.432-1.08c-0.576,0.072,0.072,1.08,1.008-0.072
	c-0.072-1.008,0.504-0.072,0.432-1.08c1.008-0.072,1.944-1.728,2.952-1.8c-0.144-1.584,3.456-2.448,5.04-2.592
	c-0.288-3.096,12.96-0.648,14.04-0.72l0.576,0.504c0.072,1.008,0.504-0.072,0.576,0.936
	C729.188,244.011,729.62,242.931,730.771,244.371z" style="filter:url(#myGaussianBlur)" />
<path fill="#F58345" stroke="#000000" stroke-width="0.7087" stroke-linecap="round" stroke-linejoin="round" stroke-miterlimit="10" d="
	M103.867,16.851c-0.144,1.656,0.216,3.888,1.224,4.536l-0.144,1.584c2.952,3.528,17.064,16.272,23.544,10.872
	c2.16,0.144,4.608-2.376,6.768-2.16c0-0.504,1.584,0.144,2.16,0.216c0,0-2.304-4.608-2.304-5.112c0,0-2.448-2.952-2.376-3.528
	c-0.576,0-1.08-0.576-1.584-0.648c0.072-1.08-0.576-0.072-0.432-1.152c0.504,0.072-0.144,1.08-1.08-0.072
	c0.072-1.08-0.576-0.072-0.432-1.152c-1.08-0.072-2.016-1.8-3.096-1.872c0.144-1.656-3.6-2.52-5.256-2.664
	c0.288-3.24-13.536-0.72-14.616-0.792l-0.576,0.504c-0.144,1.08-0.576-0.072-0.648,1.008
	C105.523,16.491,105.091,15.339,103.867,16.851z" style="filter:url(#myGaussianBlur)" />
<path fill="#F58345" stroke="#000000" stroke-width="0.7087" stroke-linecap="round" stroke-linejoin="round" stroke-miterlimit="10" d="
	M439.244,454.323c-0.144,1.584,0.216,3.816,1.224,4.464l-0.144,1.656c2.952,3.528,17.064,16.2,23.544,10.8
	c2.16,0.216,4.608-2.304,6.768-2.088c0-0.576,1.584,0.144,2.16,0.144c0,0-2.304-4.536-2.304-5.112c0,0-2.448-2.952-2.376-3.456
	c-0.576-0.072-1.08-0.648-1.584-0.72c0.072-1.08-0.576,0-0.432-1.08c0.504,0-0.144,1.08-1.08-0.144c0.072-1.08-0.576,0-0.432-1.08
	c-1.08-0.144-2.016-1.872-3.096-1.944c0.144-1.584-3.6-2.52-5.256-2.664c0.288-3.24-13.536-0.648-14.616-0.72l-0.576,0.432
	c-0.144,1.08-0.576,0-0.648,1.08C440.899,453.891,440.467,452.811,439.244,454.323z" style="filter:url(#myGaussianBlur)" />
<path fill="#F58345" stroke="#000000" stroke-width="0.7087" stroke-linecap="round" stroke-linejoin="round" stroke-miterlimit="10" d="
	M58.795,253.011c-1.08,1.224-2.016,3.24-1.584,4.32l-1.08,1.224c0.36,4.608,4.392,23.184,12.816,22.536
	c1.656,1.44,5.112,0.792,6.696,2.232c0.36-0.432,1.296,1.008,1.656,1.368c0,0,0.792-5.04,1.152-5.472c0,0-0.288-3.816,0.072-4.176
	c-0.432-0.36-0.432-1.152-0.864-1.512c0.72-0.792-0.432-0.36,0.288-1.152c0.432,0.36-0.72,0.792-0.792-0.72
	c0.648-0.864-0.432-0.36,0.288-1.152c-0.864-0.72-0.576-2.664-1.44-3.384c1.08-1.224-1.44-4.104-2.664-5.184
	c2.088-2.448-10.656-8.496-11.448-9.216l-0.792,0.072c-0.72,0.864-0.432-0.36-1.08,0.504
	C60.379,253.659,60.667,252.435,58.795,253.011z" style="filter:url(#myGaussianBlur)" />
<path fill="#F58345" stroke="#000000" stroke-width="0.7087" stroke-linecap="round" stroke-linejoin="round" stroke-miterlimit="10" d="
	M246.644,27.579c0.144,1.656,0.792,3.816,1.944,4.248l0.072,1.656c3.456,3.024,19.44,13.32,24.984,6.984
	c2.16-0.144,4.176-3.024,6.336-3.168c-0.072-0.504,1.584-0.072,2.16-0.144c0,0-3.024-4.104-3.024-4.68c0,0-2.952-2.52-2.952-3.024
	c-0.576,0-1.152-0.504-1.656-0.432c-0.072-1.08-0.576,0-0.648-1.08c0.576,0,0.072,1.08-1.08,0.072
	c-0.072-1.08-0.504,0.072-0.576-1.008c-1.08,0.072-2.304-1.512-3.384-1.44c-0.144-1.656-3.96-1.872-5.544-1.8
	c-0.216-3.24-13.536,1.44-14.616,1.512l-0.504,0.576c0.072,1.08-0.504,0.072-0.432,1.152
	C248.228,26.931,247.651,25.923,246.644,27.579z" style="filter:url(#myGaussianBlur)" />
<path fill="#F58345" stroke="#000000" stroke-width="0.7087" stroke-linecap="round" stroke-linejoin="round" stroke-miterlimit="10" d="
	M10.987,501.771c-1.512,0.648-3.312,1.944-3.384,3.096l-1.512,0.648c-1.8,4.248-6.768,22.536,1.008,25.92
	c0.792,2.016,4.104,3.024,4.896,5.04c0.504-0.216,0.648,1.512,0.792,2.016c0,0,3.024-4.176,3.528-4.32c0,0,1.512-3.528,2.016-3.744
	c-0.144-0.504,0.144-1.224-0.072-1.728c1.008-0.432-0.216-0.504,0.792-0.936c0.216,0.504-1.008,0.432-0.36-1.008
	c1.008-0.36-0.216-0.504,0.792-0.864c-0.432-1.008,0.72-2.664,0.288-3.672c1.512-0.576,0.576-4.32,0-5.832
	c3.024-1.224-5.544-12.384-5.904-13.392l-0.72-0.288c-1.008,0.36-0.216-0.504-1.224-0.144
	C12.139,503.067,12.931,502.203,10.987,501.771z" style="filter:url(#myGaussianBlur)" />
<path fill="#F58345" stroke="#000000" stroke-width="0.7087" stroke-linecap="round" stroke-linejoin="round" stroke-miterlimit="10" d="
	M806.228,423.507c1.44,0.576,3.24,1.8,3.312,2.952l1.44,0.576c1.728,4.104,6.48,21.672-0.936,24.84
	c-0.792,1.944-3.96,2.952-4.752,4.896c-0.504-0.216-0.576,1.44-0.792,1.872c0,0-2.88-3.96-3.384-4.104c0,0-1.44-3.384-1.944-3.6
	c0.216-0.504-0.072-1.152,0.144-1.656c-1.008-0.36,0.144-0.504-0.792-0.864c-0.216,0.504,0.936,0.36,0.36-0.936
	c-0.936-0.432,0.216-0.504-0.72-0.864c0.36-1.008-0.72-2.52-0.36-3.528c-1.44-0.576-0.576-4.104,0-5.616
	c-2.88-1.152,5.328-11.88,5.76-12.816l0.648-0.288c0.936,0.36,0.216-0.504,1.152-0.144
	C805.147,424.731,804.427,423.867,806.228,423.507z" style="filter:url(#myGaussianBlur)" />
</svg>
