<?xml version="1.0" encoding="utf-8"?>
<!-- Generator: Adobe Illustrator 15.0.0, SVG Export Plug-In  -->
<!DOCTYPE svg PUBLIC "-//W3C//DTD SVG 1.1//EN" "http://www.w3.org/Graphics/SVG/1.1/DTD/svg11.dtd" [
	<!ENTITY ns_flows "http://ns.adobe.com/Flows/1.0/">
]>
<svg version="1.1"
	 xmlns="http://www.w3.org/2000/svg" xmlns:xlink="http://www.w3.org/1999/xlink" xmlns:a="http://ns.adobe.com/AdobeSVGViewerExtensions/3.0/"
	 x="0px" y="0px" width="815px" height="578px" viewBox="0 0 815 578" overflow="visible" enable-background="new 0 0 815 578"
	 xml:space="preserve">
<defs>
  <filter id="myGaussianBlur">
    <feGaussianBlur in="SourceGraphic" stdDeviation="1.5" />
  </filter>
</defs>
<path fill="#CA6C38" stroke="#000000" stroke-width="0.7087" stroke-linecap="round" stroke-linejoin="round" stroke-miterlimit="10" d="
	M92.514,47.802L91.65,80.706c0,1.8,3.096-5.328,3.096-6.192c0.864-2.664,3.6-6.696,3.6-8.928c0,6.696,9.72,13.752,9.72,16.92
	c0-15.552-10.224-18.216,5.328-13.392c3.168,0.936,11.592,4.464,7.56-0.864l-6.192-8.424c18.648,0,14.688-5.328-1.368-8.424
	c-3.96-0.504-8.856-3.168-11.52-3.6L97.41,47.37C96.978,47.37,93.882,48.738,92.514,47.802z" style="filter:url(#myGaussianBlur)" />
<path fill="#CA6C38" stroke="#000000" stroke-width="0.7087" stroke-linecap="round" stroke-linejoin="round" stroke-miterlimit="10" d="
	M0.354,336.234l22.968,29.448c1.296,1.584-1.08-6.912-1.728-7.704c-1.152-2.952-1.728-8.424-3.312-10.368
	c4.824,5.904,18.576,5.04,20.808,7.776c-11.304-13.68-22.176-8.64-4.968-15.552c3.384-1.512,13.32-4.464,5.976-6.264l-11.592-2.88
	c16.416-13.536,9.072-15.336-7.272-6.479c-3.816,2.52-10.008,3.672-12.672,5.256l-4.248,2.808
	C3.882,332.562,2.154,336.018,0.354,336.234z" style="filter:url(#myGaussianBlur)" />
<path fill="#CA6C38" stroke="#000000" stroke-width="0.7087" stroke-linecap="round" stroke-linejoin="round" stroke-miterlimit="10" d="
	M814.819,264.666l-22.032,28.224c-1.296,1.512,1.08-6.552,1.656-7.344c1.08-2.808,1.656-8.064,3.168-9.936
	c-4.608,5.616-17.784,4.824-19.944,7.416c10.8-13.104,21.24-8.208,4.752-14.904c-3.24-1.44-12.816-4.248-5.76-5.976l11.16-2.808
	c-15.768-12.96-8.64-14.688,6.984-6.192c3.672,2.376,9.648,3.528,12.168,5.04l4.032,2.736
	C811.434,261.21,813.09,264.45,814.819,264.666z" style="filter:url(#myGaussianBlur)" />
<path fill="#CA6C38" stroke="#000000" stroke-width="0.7087" stroke-linecap="round" stroke-linejoin="round" stroke-miterlimit="10" d="
	M332.13,569.586v-31.464c0.072-1.656,2.88,5.184,2.808,6.048c0.792,2.592,3.24,6.48,3.168,8.568
	c0.216-6.336,9.72-12.888,9.792-15.84c-0.432,14.832-10.224,17.136,4.752,12.888c2.952-0.792,11.16-3.96,7.2,1.08l-6.192,7.848
	c17.856,0.504,13.896,5.544-1.512,8.064c-3.816,0.288-8.568,2.736-11.16,3.096l-4.248,0.288
	C336.306,570.162,333.427,568.794,332.13,569.586z" style="filter:url(#myGaussianBlur)" />
<path fill="#CA6C38" stroke="#000000" stroke-width="0.7087" stroke-linecap="round" stroke-linejoin="round" stroke-miterlimit="10" d="
	M443.802,565.05l-29.16-11.808c-1.512-0.648,5.904-0.648,6.696-0.36c2.664,0.288,7.2-0.576,9.144,0.288
	c-5.904-2.52-8.352-13.824-11.088-14.976c13.608,5.904,12.024,15.912,13.68,0.432c0.432-3.096,0.504-11.88,3.672-6.336l5.04,8.712
	c7.128-16.344,10.296-10.872,6.912,4.392c-1.152,3.672-0.72,8.928-1.296,11.448l-1.296,4.104
	C445.89,561.306,443.586,563.538,443.802,565.05z" style="filter:url(#myGaussianBlur)" />
<path fill="#CA6C38" stroke="#000000" stroke-width="0.7087" stroke-linecap="round" stroke-linejoin="round" stroke-miterlimit="10" d="
	M138.162,540.138l38.304-12.312c2.088-0.576-5.184,5.472-6.264,5.76c-2.808,1.944-6.552,6.48-9.216,7.2
	c7.848-2.232,19.512,6.768,23.184,5.688c-18.288,5.328-24.84-5.76-13.824,10.872c2.088,3.312,9.144,12.024,1.512,9.144
	l-12.024-4.392c6.408,21.888-1.224,19.008-10.368,1.296c-1.872-4.536-6.624-9.36-8.064-12.312l-2.088-5.112
	C139.17,545.466,139.674,541.362,138.162,540.138z" style="filter:url(#myGaussianBlur)" />
<path fill="#CA6C38" stroke="#000000" stroke-width="0.7087" stroke-linecap="round" stroke-linejoin="round" stroke-miterlimit="10" d="
	M457.482,410.682l35.64,11.448c1.944,0.576-4.824-5.112-5.76-5.4c-2.664-1.8-6.192-5.976-8.568-6.696
	c7.272,2.088,18.144-6.336,21.528-5.328c-16.992-4.968-23.184,5.4-12.888-10.08c2.016-3.096,8.568-11.16,1.44-8.496l-11.16,4.104
	c5.904-20.376-1.152-17.712-9.648-1.224c-1.8,4.176-6.264,8.712-7.56,11.448l-1.944,4.752
	C458.418,405.642,458.922,409.53,457.482,410.682z" style="filter:url(#myGaussianBlur)" />
<path fill="#CA6C38" stroke="#000000" stroke-width="0.7087" stroke-linecap="round" stroke-linejoin="round" stroke-miterlimit="10" d="
	M3.666,491.466l36.36-9c1.944-0.504-6.768-1.8-7.776-1.512c-3.168-0.144-8.352-1.872-10.8-1.152
	c7.272-2.088,12.096-14.904,15.552-15.912c-17.064,4.752-16.92,16.776-16.272-1.8c0.072-3.672,1.368-13.968-3.24-7.992l-7.416,9.432
	c-5.616-20.52-10.296-14.472-8.856,3.96c0.792,4.536-0.648,10.728-0.36,13.752l0.864,5.04
	C1.866,486.786,4.242,489.738,3.666,491.466z" style="filter:url(#myGaussianBlur)" />
<path fill="#CA6C38" stroke="#000000" stroke-width="0.7087" stroke-linecap="round" stroke-linejoin="round" stroke-miterlimit="10" d="
	M811.65,413.562l-34.848-8.64c-1.872-0.504,6.48-1.728,7.416-1.44c3.096-0.216,8.064-1.8,10.368-1.152
	c-6.984-1.944-11.592-14.328-14.904-15.264c16.344,4.536,16.2,16.056,15.552-1.728c0-3.528-1.296-13.392,3.168-7.632l7.056,9
	c5.472-19.656,9.864-13.896,8.496,3.816c-0.72,4.392,0.72,10.296,0.36,13.248l-0.792,4.752
	C813.378,409.026,811.074,411.906,811.65,413.562z" style="filter:url(#myGaussianBlur)" />
<path fill="#CA6C38" stroke="#000000" stroke-width="0.7087" stroke-linecap="round" stroke-linejoin="round" stroke-miterlimit="10" d="
	M121.386,563.178l-1.08-40.176c0-2.16,3.816,6.552,3.816,7.632c1.08,3.24,4.32,8.136,4.32,10.8c0-8.136,11.952-16.776,11.952-20.592
	c0,19.008-12.456,22.248,6.48,16.272c3.816-1.08,14.184-5.4,9.288,1.08l-7.632,10.296c22.824,0,17.928,6.552-1.656,10.368
	c-4.824,0.504-10.8,3.744-14.112,4.32l-5.4,0.576C126.858,563.754,123.042,562.098,121.386,563.178z" style="filter:url(#myGaussianBlur)" />
<path fill="#CA6C38" stroke="#000000" stroke-width="0.7087" stroke-linecap="round" stroke-linejoin="round" stroke-miterlimit="10" d="
	M702.786,483.69l1.008-38.592c0-2.016-3.6,6.264-3.6,7.344c-1.08,3.096-4.176,7.776-4.176,10.368
	c0-7.776-11.448-16.128-11.448-19.728c0,18.216,11.952,21.312-6.264,15.624c-3.672-1.08-13.536-5.256-8.856,1.008l7.272,9.864
	c-21.816,0-17.136,6.264,1.584,9.936c4.68,0.504,10.44,3.6,13.536,4.176l5.184,0.504C697.602,484.194,701.202,482.61,702.786,483.69
	z" style="filter:url(#myGaussianBlur)" />
<path fill="#CA6C38" stroke="#000000" stroke-width="0.7087" stroke-linecap="round" stroke-linejoin="round" stroke-miterlimit="10" d="
	M461.658,503.274l-1.008,37.44c0,2.016,3.528-6.048,3.528-7.128c1.008-3.024,4.032-7.56,4.032-10.08
	c0,7.56,11.16,15.696,11.16,19.224c0-17.712-11.664-20.736,6.048-15.192c3.528,1.008,13.176,5.04,8.64-1.008l-7.128-9.576
	c21.24,0,16.704-6.12-1.512-9.648c-4.536-0.504-10.08-3.528-13.104-4.032l-5.112-0.504
	C466.698,502.77,463.17,504.282,461.658,503.274z" style="filter:url(#myGaussianBlur)" />
<path fill="#CA6C38" stroke="#000000" stroke-width="0.7087" stroke-linecap="round" stroke-linejoin="round" stroke-miterlimit="10" d="
	M21.234,552.306l12.816-30.744c0.72-1.584,0.648,6.264,0.288,7.056c-0.288,2.808,0.504,7.632-0.36,9.648
	c2.736-6.12,14.688-8.64,15.984-11.52c-6.48,14.328-16.992,12.6-0.576,14.472c3.168,0.504,12.456,0.72,6.552,3.96l-9.216,5.256
	c17.208,7.704,11.304,10.944-4.752,7.2c-3.816-1.224-9.432-0.792-12.096-1.512l-4.248-1.368
	C25.194,554.538,22.89,552.018,21.234,552.306z" style="filter:url(#myGaussianBlur)" />
<path fill="#CA6C38" stroke="#000000" stroke-width="0.7087" stroke-linecap="round" stroke-linejoin="round" stroke-miterlimit="10" d="
	M794.73,471.882l-12.24-29.448c-0.72-1.584-0.648,5.904-0.288,6.696c0.288,2.736-0.504,7.344,0.36,9.288
	c-2.592-5.904-14.112-8.28-15.336-11.088c6.192,13.824,16.272,12.096,0.576,13.968c-3.096,0.432-11.952,0.648-6.336,3.744
	l8.856,5.04c-16.488,7.416-10.872,10.512,4.536,6.912c3.744-1.152,9.072-0.792,11.664-1.44l4.104-1.368
	C790.987,474.042,793.219,471.594,794.73,471.882z" style="filter:url(#myGaussianBlur)" />
<path fill="#CA6C38" stroke="#000000" stroke-width="0.7087" stroke-linecap="round" stroke-linejoin="round" stroke-miterlimit="10" d="
	M489.306,246.594l-12.24-29.448c-0.72-1.584-0.648,5.976-0.288,6.768c0.288,2.664-0.504,7.272,0.36,9.216
	c-2.592-5.904-14.112-8.28-15.336-11.016c6.192,13.752,16.272,12.024,0.576,13.896c-3.096,0.432-11.952,0.648-6.336,3.744
	l8.856,5.04c-16.488,7.416-10.872,10.512,4.536,6.912c3.672-1.152,9.072-0.72,11.592-1.44l4.176-1.368
	C485.562,248.754,487.794,246.306,489.306,246.594z" style="filter:url(#myGaussianBlur)" />
<path fill="#CA6C38" stroke="#000000" stroke-width="0.7087" stroke-linecap="round" stroke-linejoin="round" stroke-miterlimit="10" d="
	M272.947,565.41l-25.2,6.336c-1.368,0.36,3.6-3.312,4.32-3.456c1.872-1.152,4.464-3.888,6.192-4.248
	c-5.112,1.152-12.312-5.184-14.688-4.608c11.952-2.736,15.768,4.68,9.36-6.48c-1.224-2.232-5.472-8.136-0.648-5.976l7.56,3.384
	c-3.168-14.4,1.584-12.24,6.768-0.432c1.008,3.024,3.96,6.264,4.752,8.28l1.08,3.312
	C272.514,561.882,272.082,564.546,272.947,565.41z" style="filter:url(#myGaussianBlur)" />
<path fill="#CA6C38" stroke="#000000" stroke-width="0.7087" stroke-linecap="round" stroke-linejoin="round" stroke-miterlimit="10" d="
	M433.722,430.338l34.056,15.408c1.872,0.792-4.176-5.616-5.112-5.976c-2.448-2.16-5.4-6.696-7.776-7.704
	c6.984,2.952,18.792-4.176,22.032-2.808c-16.344-6.84-23.616,2.736-11.664-11.448c2.304-2.88,9.792-10.152,2.448-8.28l-11.592,2.736
	c8.208-19.512,0.864-17.712-9.504-2.304c-2.16,4.032-7.128,7.992-8.784,10.584l-2.448,4.464
	C435.234,425.442,435.234,429.33,433.722,430.338z" style="filter:url(#myGaussianBlur)" />
<path fill="#CA6C38" stroke="#000000" stroke-width="0.7087" stroke-linecap="round" stroke-linejoin="round" stroke-miterlimit="10" d="
	M71.922,470.514l12.312,32.04c0.648,1.728,0.864-6.408,0.504-7.272c-0.216-2.88,0.72-7.848-0.144-9.936
	c2.664,6.408,14.904,9.36,16.2,12.384c-6.264-15.048-17.136-13.536-0.216-15.048c3.384-0.36,12.96-0.288,6.912-3.888l-9.36-5.616
	c18-7.488,12.024-11.016-4.68-7.632c-4.032,1.152-9.792,0.576-12.528,1.224l-4.464,1.296
	C76.026,468.282,73.578,470.802,71.922,470.514z" style="filter:url(#myGaussianBlur)" />
<path fill="#CA6C38" stroke="#000000" stroke-width="0.7087" stroke-linecap="round" stroke-linejoin="round" stroke-miterlimit="10" d="
	M750.234,394.77l-11.808,30.744c-0.648,1.656-0.792-6.12-0.432-6.984c0.144-2.808-0.792-7.488,0.072-9.576
	c-2.52,6.192-14.328,9-15.48,11.88c5.976-14.4,16.416-12.888,0.144-14.328c-3.24-0.432-12.384-0.36-6.624-3.744l9-5.472
	c-17.28-7.128-11.52-10.512,4.464-7.272c3.888,1.152,9.432,0.504,12.024,1.152l4.32,1.296
	C746.346,392.61,748.65,395.058,750.234,394.77z" style="filter:url(#myGaussianBlur)" />
<path fill="#CA6C38" stroke="#000000" stroke-width="0.7087" stroke-linecap="round" stroke-linejoin="round" stroke-miterlimit="10" d="
	M27.642,396.354l28.728,18.792c1.584,1.008-3.024-5.688-3.816-6.192c-1.872-2.232-3.96-6.768-5.976-7.992
	c5.976,3.672,17.64-1.152,20.376,0.576c-13.824-8.568-21.744-0.936-8.928-12.024c2.52-2.304,10.296-7.848,3.384-7.2l-10.944,0.864
	c10.296-16.56,3.384-15.984-8.208-3.456c-2.592,3.312-7.632,6.192-9.504,8.28l-2.808,3.744
	C29.658,392.106,29.154,395.634,27.642,396.354z" style="filter:url(#myGaussianBlur)" />
<path fill="#CA6C38" stroke="#000000" stroke-width="0.7087" stroke-linecap="round" stroke-linejoin="round" stroke-miterlimit="10" d="
	M788.611,322.266l-27.504,18.072c-1.512,0.936,2.88-5.472,3.672-5.904c1.8-2.16,3.816-6.552,5.688-7.776
	c-5.688,3.528-16.92-1.008-19.584,0.576c13.32-8.136,20.952-0.864,8.568-11.52c-2.376-2.232-9.864-7.56-3.24-6.912l10.512,0.864
	c-9.864-15.912-3.168-15.336,7.92-3.312c2.448,3.168,7.272,5.904,9.072,7.92l2.736,3.6
	C786.666,318.234,787.17,321.618,788.611,322.266z" style="filter:url(#myGaussianBlur)" />
<path fill="#CA6C38" stroke="#000000" stroke-width="0.7087" stroke-linecap="round" stroke-linejoin="round" stroke-miterlimit="10" d="
	M690.042,173.946l-27.576,18.072c-1.512,0.936,2.88-5.472,3.672-5.904c1.8-2.16,3.816-6.552,5.688-7.776
	c-5.688,3.528-16.92-1.008-19.512,0.576c13.248-8.136,20.88-0.864,8.496-11.52c-2.376-2.232-9.864-7.56-3.168-6.912l10.44,0.864
	c-9.792-15.912-3.168-15.336,7.92-3.312c2.448,3.168,7.344,5.904,9.072,7.92l2.736,3.6
	C688.027,169.914,688.531,173.298,690.042,173.946z" style="filter:url(#myGaussianBlur)" />
<path fill="#CA6C38" stroke="#000000" stroke-width="0.7087" stroke-linecap="round" stroke-linejoin="round" stroke-miterlimit="10" d="
	M98.706,389.442l28.656-18.792c1.584-1.008-3.024,5.688-3.816,6.12c-1.872,2.304-3.96,6.84-5.904,8.064
	c5.904-3.672,17.568,1.152,20.376-0.576c-13.824,8.496-21.816,0.936-8.928,12.024c2.52,2.304,10.296,7.848,3.384,7.2l-10.944-0.864
	c10.224,16.56,3.312,15.912-8.208,3.456c-2.592-3.312-7.632-6.192-9.504-8.352l-2.88-3.672
	C100.722,393.618,100.218,390.162,98.706,389.442z" style="filter:url(#myGaussianBlur)" />
<path fill="#CA6C38" stroke="#000000" stroke-width="0.7087" stroke-linecap="round" stroke-linejoin="round" stroke-miterlimit="10" d="
	M724.602,317.01l-27.576-18.072c-1.512-0.936,2.88,5.472,3.672,5.976c1.8,2.16,3.816,6.48,5.688,7.704
	c-5.688-3.528-16.848,1.08-19.512-0.576c13.248,8.208,20.88,0.864,8.496,11.52c-2.376,2.232-9.864,7.56-3.168,6.912l10.44-0.864
	c-9.792,15.912-3.168,15.336,7.92,3.312c2.448-3.168,7.344-5.904,9.072-7.92l2.736-3.6
	C722.586,321.042,723.09,317.73,724.602,317.01z" style="filter:url(#myGaussianBlur)" />
<path fill="#CA6C38" stroke="#000000" stroke-width="0.7087" stroke-linecap="round" stroke-linejoin="round" stroke-miterlimit="10" d="
	M330.978,29.946L319.89,3.81c-0.648-1.368-0.504,5.328-0.216,6.048c0.288,2.376-0.36,6.48,0.432,8.208
	c-2.376-5.184-12.6-7.272-13.752-9.72c5.616,12.168,14.544,10.584,0.648,12.384c-2.808,0.36-10.656,0.648-5.616,3.384l7.92,4.392
	c-14.688,6.696-9.648,9.432,4.032,6.12c3.312-1.08,8.064-0.72,10.296-1.368l3.672-1.224C327.666,31.89,329.611,29.73,330.978,29.946
	z" style="filter:url(#myGaussianBlur)" />
<path fill="#CA6C38" stroke="#000000" stroke-width="0.7087" stroke-linecap="round" stroke-linejoin="round" stroke-miterlimit="10" d="
	M390.666,6.474l-9,21.312c-0.576,1.152-0.432-4.32-0.216-4.896c0.216-1.944-0.288-5.328,0.36-6.768
	c-1.944,4.32-10.296,5.976-11.232,7.992c4.536-9.936,11.88-8.712,0.504-10.08c-2.232-0.36-8.712-0.576-4.608-2.808l6.48-3.6
	c-11.952-5.472-7.848-7.704,3.312-5.04c2.664,0.936,6.624,0.648,8.424,1.152l3.024,1.008C388.002,4.89,389.586,6.618,390.666,6.474z
	" style="filter:url(#myGaussianBlur)" />
<path fill="#CA6C38" stroke="#000000" stroke-width="0.7087" stroke-linecap="round" stroke-linejoin="round" stroke-miterlimit="10" d="
	M114.258,262.722l32.04,19.368c1.728,1.008-3.528-6.048-4.464-6.552c-2.088-2.376-4.536-7.272-6.768-8.496
	c6.624,3.744,19.152-1.944,22.176-0.144c-15.336-8.784-23.76-0.144-10.152-12.816c2.664-2.592,10.872-8.928,3.384-7.992l-11.88,1.44
	c10.512-18.432,3.024-17.496-9.072-3.456c-2.664,3.744-8.064,7.056-10.008,9.432l-2.952,4.176
	C116.274,258.114,115.842,261.93,114.258,262.722z" style="filter:url(#myGaussianBlur)" />
<path fill="#CA6C38" stroke="#000000" stroke-width="0.7087" stroke-linecap="round" stroke-linejoin="round" stroke-miterlimit="10" d="
	M6.618,183.018l3.24,31.32c0.216,1.656,2.304-5.472,2.232-6.264c0.504-2.664,2.52-6.84,2.232-8.928
	c0.864,6.336,11.016,11.88,11.376,14.832c-1.872-14.76-11.952-16.056,3.456-13.32c3.024,0.432,11.52,2.808,7.056-1.8l-6.984-7.2
	c17.712-2.376,13.248-6.912-2.304-7.848c-3.816,0.072-8.856-1.872-11.448-1.944l-4.248,0.072
	C10.794,182.01,8.058,183.666,6.618,183.018z" style="filter:url(#myGaussianBlur)" />
<path fill="#CA6C38" stroke="#000000" stroke-width="0.7087" stroke-linecap="round" stroke-linejoin="round" stroke-miterlimit="10" d="
	M148.314,45.642l37.224-3.6c2.016-0.288-6.48-2.808-7.488-2.664c-3.096-0.648-7.992-3.024-10.512-2.736
	c7.56-0.936,14.184-12.96,17.712-13.464c-17.568,2.232-19.152,14.112-15.84-4.104c0.576-3.672,3.384-13.68-2.088-8.424l-8.64,8.208
	c-2.592-21.024-8.064-15.768-9.288,2.736c0,4.536-2.304,10.44-2.448,13.536l0.144,5.112
	C147.162,40.746,149.106,44.058,148.314,45.642z" style="filter:url(#myGaussianBlur)" />
<path fill="#CA6C38" stroke="#000000" stroke-width="0.7087" stroke-linecap="round" stroke-linejoin="round" stroke-miterlimit="10" d="
	M248.97,50.826l4.896-34.416c0.216-1.872-3.888,5.184-4.032,6.12c-1.224,2.736-4.536,6.552-4.752,8.928
	c0.792-6.984-8.64-15.696-8.208-18.936c-1.944,16.344,8.496,20.376-7.272,13.392c-3.096-1.368-11.592-6.12-7.992,0l5.472,9.576
	c-19.584-2.232-15.984,3.816,0.432,9.072c4.104,0.936,8.928,4.32,11.664,5.112l4.608,1.008
	C244.219,50.754,247.675,49.674,248.97,50.826z" style="filter:url(#myGaussianBlur)" />
<path fill="#CA6C38" stroke="#000000" stroke-width="0.7087" stroke-linecap="round" stroke-linejoin="round" stroke-miterlimit="10" d="
	M159.546,207.21l-19.512-31.968c-1.08-1.728,0.36,6.984,0.864,7.848c0.864,3.096,0.792,8.568,2.16,10.728
	c-4.176-6.408-17.856-7.128-19.8-10.08c9.576,14.832,21.024,11.088,3.168,15.984c-3.528,1.08-13.824,2.88-6.696,5.544l11.16,4.176
	c-17.784,11.592-10.728,14.184,6.48,7.272c4.104-2.016,10.44-2.52,13.248-3.744l4.536-2.304
	C155.586,210.378,157.746,207.21,159.546,207.21z" style="filter:url(#myGaussianBlur)" />
<path fill="#CA6C38" stroke="#000000" stroke-width="0.7087" stroke-linecap="round" stroke-linejoin="round" stroke-miterlimit="10" d="
	M61.77,268.482l26.424-26.496c1.368-1.512-6.768,1.944-7.488,2.664c-2.808,1.512-8.136,2.736-9.864,4.608
	c5.256-5.544,2.664-19.08,5.112-21.6c-12.168,12.816-5.76,23.04-14.832,6.84c-1.872-3.168-6.048-12.672-6.912-5.184l-1.44,11.88
	c-15.48-14.616-16.344-7.056-5.544,7.992c2.952,3.528,4.968,9.504,6.768,11.952l3.384,3.888
	C57.738,265.386,61.338,266.682,61.77,268.482z" style="filter:url(#myGaussianBlur)" />
<path fill="#CA6C38" stroke="#000000" stroke-width="0.7087" stroke-linecap="round" stroke-linejoin="round" stroke-miterlimit="10" d="
	M4.674,7.122l6.912,36.792c0.432,1.944,2.16-6.696,1.944-7.704c0.36-3.168,2.376-8.208,1.8-10.728
	c1.656,7.416,14.184,13.032,14.976,16.488c-3.744-17.352-15.768-17.856,2.736-16.128c3.672,0.216,13.896,2.16,8.136-2.808
	l-8.928-7.92c20.808-4.464,15.048-9.432-3.456-9.072C24.186,6.546,18.138,4.746,15.042,4.89l-5.04,0.576
	C9.498,5.538,6.402,7.77,4.674,7.122z" style="filter:url(#myGaussianBlur)" />
<path fill="#CA6C38" stroke="#000000" stroke-width="0.7087" stroke-linecap="round" stroke-linejoin="round" stroke-miterlimit="10" d="
	M4.89,249.474l31.896,6.336c1.656,0.432-5.832,1.872-6.696,1.656c-2.736,0.288-7.2,1.944-9.36,1.512
	c6.48,1.44,11.16,12.384,14.184,13.032c-14.976-3.384-15.336-13.752-14.04,2.232c0.216,3.24,1.728,12.096-2.52,7.128l-6.768-7.848
	c-4.032,17.856-8.28,12.96-7.776-3.168c0.432-3.888-1.08-9.216-0.936-11.88l0.576-4.392C3.522,253.65,5.466,250.986,4.89,249.474z"
	 style="filter:url(#myGaussianBlur)" />
<path fill="#CA6C38" stroke="#000000" stroke-width="0.7087" stroke-linecap="round" stroke-linejoin="round" stroke-miterlimit="10" d="
	M806.034,565.986l-37.368-1.512c-2.016-0.144,6.264-3.096,7.272-3.024c3.096-0.864,7.848-3.528,10.368-3.384
	c-7.56-0.504-14.904-12.168-18.432-12.384c17.64,1.152,19.872,12.96,15.552-5.04c-0.792-3.6-4.176-13.464,1.584-8.496l9.072,7.704
	c1.44-21.168,7.2-16.272,9.504,2.16c0.216,4.536,2.88,10.296,3.168,13.392l0.144,5.04
	C806.898,560.946,805.098,564.402,806.034,565.986z" style="filter:url(#myGaussianBlur)" />
<path fill="#CA6C38" stroke="#000000" stroke-width="0.7087" stroke-linecap="round" stroke-linejoin="round" stroke-miterlimit="10" d="
	M697.242,555.33l33.408,16.776c1.872,0.864-3.96-5.76-4.896-6.192c-2.304-2.232-5.112-6.912-7.416-7.92
	c6.84,3.168,18.936-3.456,22.104-1.944c-15.984-7.488-23.688,1.728-11.16-11.952c2.448-2.736,10.152-9.72,2.736-8.208l-11.664,2.376
	c9-19.296,1.584-17.712-9.36-2.736c-2.376,3.888-7.488,7.632-9.288,10.152l-2.592,4.392
	C698.898,550.506,698.826,554.394,697.242,555.33z" style="filter:url(#myGaussianBlur)" />
<path fill="#CA6C38" stroke="#000000" stroke-width="0.7087" stroke-linecap="round" stroke-linejoin="round" stroke-miterlimit="10" d="
	M673.843,566.346l-12.384-35.352c-0.72-1.872-1.152,6.912-0.792,7.92c0.144,3.168-1.08,8.496-0.144,10.872
	c-2.736-7.128-15.984-10.656-17.28-13.968c6.336,16.488,18.288,15.192-0.216,16.344c-3.672,0.288-14.112-0.072-7.704,3.96
	l10.08,6.48c-19.872,7.56-13.464,11.592,4.824,8.424c4.392-1.152,10.728-0.288,13.752-0.936l4.896-1.296
	C669.306,568.578,672.115,565.914,673.843,566.346z" style="filter:url(#myGaussianBlur)" />
<path fill="#CA6C38" stroke="#000000" stroke-width="0.7087" stroke-linecap="round" stroke-linejoin="round" stroke-miterlimit="10" d="
	M773.85,1.29l-34.848,13.68c-1.872,0.792,6.984,0.936,7.92,0.504c3.168-0.216,8.568,0.792,10.872-0.216
	c-6.984,2.952-10.08,16.344-13.32,17.712c16.272-6.912,14.544-18.792,16.344-0.288c0.432,3.6,0.504,14.04,4.32,7.488l6.048-10.296
	c8.28,19.584,12.096,12.96,8.208-5.112c-1.296-4.392-0.648-10.728-1.368-13.68l-1.512-4.896C776.298,5.754,773.49,3.09,773.85,1.29z
	" style="filter:url(#myGaussianBlur)" />
<path fill="#CA6C38" stroke="#000000" stroke-width="0.7087" stroke-linecap="round" stroke-linejoin="round" stroke-miterlimit="10" d="
	M698.754,0.354l-34.848,13.752c-1.872,0.792,6.984,0.864,7.92,0.504c3.168-0.288,8.568,0.72,10.872-0.288
	c-6.984,3.024-10.08,16.416-13.32,17.784c16.272-6.912,14.544-18.792,16.344-0.36c0.432,3.672,0.504,14.04,4.32,7.488l6.048-10.224
	c8.28,19.512,12.096,12.96,8.208-5.184c-1.296-4.392-0.648-10.728-1.368-13.68l-1.584-4.824
	C701.202,4.818,698.394,2.154,698.754,0.354z" style="filter:url(#myGaussianBlur)" />
<path fill="#CA6C38" stroke="#000000" stroke-width="0.7087" stroke-linecap="round" stroke-linejoin="round" stroke-miterlimit="10" d="
	M696.594,201.378l-0.936-36.432c0-1.944,3.456,5.904,3.456,6.912c0.936,2.952,3.888,7.344,3.888,9.864
	c0-7.416,10.8-15.264,10.8-18.72c0,17.208-11.304,20.16,5.904,14.76c3.456-1.008,12.816-4.896,8.352,1.008l-6.84,9.288
	c20.664,0,16.2,5.904-1.512,9.36c-4.392,0.504-9.792,3.456-12.744,3.96l-4.896,0.432C701.562,201.81,698.106,200.37,696.594,201.378
	z" style="filter:url(#myGaussianBlur)" />
<path fill="#CA6C38" stroke="#000000" stroke-width="0.7087" stroke-linecap="round" stroke-linejoin="round" stroke-miterlimit="10" d="
	M421.051,315.282l-1.008-36.288c0-1.944,3.456,5.904,3.456,6.912c1.008,2.88,3.96,7.272,3.96,9.72c0-7.344,10.8-15.12,10.8-18.576
	c0,17.136-11.304,20.088,5.904,14.688c3.456-1.008,12.744-4.896,8.352,0.936l-6.912,9.36c20.664,0,16.272,5.904-1.44,9.36
	c-4.464,0.504-9.864,3.456-12.816,3.888l-4.896,0.504C425.947,315.786,422.49,314.346,421.051,315.282z" style="filter:url(#myGaussianBlur)" />
<path fill="#CA6C38" stroke="#000000" stroke-width="0.7087" stroke-linecap="round" stroke-linejoin="round" stroke-miterlimit="10" d="
	M770.034,139.89l36.216,3.528c1.944,0.288-6.264,2.664-7.272,2.592c-3.024,0.576-7.776,2.952-10.224,2.664
	c7.272,0.936,13.752,12.6,17.208,13.032c-17.136-2.088-18.648-13.68-15.408,4.032c0.576,3.528,3.312,13.32-2.016,8.208l-8.424-7.992
	c-2.52,20.448-7.848,15.336-9.072-2.664c0.072-4.464-2.16-10.152-2.304-13.176l0.144-4.896
	C768.882,144.714,770.826,141.474,770.034,139.89z" style="filter:url(#myGaussianBlur)" />
<path fill="#CA6C38" stroke="#000000" stroke-width="0.7087" stroke-linecap="round" stroke-linejoin="round" stroke-miterlimit="10" d="
	M375.546,245.802l19.944,31.68c1.08,1.656-0.432-7.056-1.008-7.848c-0.792-3.096-0.864-8.568-2.232-10.656
	c4.176,6.264,17.856,6.84,19.872,9.792c-9.792-14.76-21.168-10.8-3.384-15.984c3.456-1.152,13.752-3.096,6.552-5.616l-11.088-4.104
	c17.568-11.736,10.44-14.256-6.624-7.128c-4.104,2.088-10.368,2.664-13.176,3.96l-4.464,2.376
	C379.506,242.562,377.418,245.802,375.546,245.802z" style="filter:url(#myGaussianBlur)" />
<path fill="#CA6C38" stroke="#000000" stroke-width="0.7087" stroke-linecap="round" stroke-linejoin="round" stroke-miterlimit="10" d="
	M168.186,236.73l12.384,35.28c0.72,1.944,1.08-6.912,0.72-7.848c-0.072-3.168,1.08-8.496,0.216-10.872
	c2.664,7.056,15.984,10.656,17.208,13.968c-6.264-16.56-18.216-15.192,0.288-16.344c3.672-0.288,14.112,0.072,7.704-3.96
	l-10.08-6.48c19.872-7.56,13.464-11.592-4.824-8.424c-4.464,1.152-10.728,0.288-13.752,0.864l-4.896,1.368
	C172.722,234.426,169.914,237.09,168.186,236.73z" style="filter:url(#myGaussianBlur)" />
<path fill="#CA6C38" stroke="#000000" stroke-width="0.7087" stroke-linecap="round" stroke-linejoin="round" stroke-miterlimit="10" d="
	M504.066,8.778l10.656,26.496c0.576,1.44,0.648-5.328,0.288-5.976c-0.216-2.448,0.576-6.552-0.216-8.352
	c2.304,5.328,12.528,7.632,13.608,10.08c-5.328-12.384-14.4-10.944-0.36-12.456c2.808-0.36,10.728-0.432,5.688-3.24l-7.848-4.608
	c14.904-6.408,9.864-9.288-3.96-6.264c-3.312,1.008-8.136,0.576-10.368,1.152l-3.744,1.152
	C507.45,6.906,505.434,9.066,504.066,8.778z" style="filter:url(#myGaussianBlur)" />
<path fill="#CA6C38" stroke="#000000" stroke-width="0.7087" stroke-linecap="round" stroke-linejoin="round" stroke-miterlimit="10" d="
	M709.987,209.658l5.328,37.08c0.216,2.016-4.248-5.616-4.392-6.624c-1.296-2.952-4.824-7.128-5.112-9.576
	c0.864,7.488-9.288,16.848-8.856,20.304c-2.088-17.568,9.144-21.888-7.776-14.328c-3.384,1.368-12.528,6.48-8.64,0l5.904-10.368
	c-21.096,2.448-17.28-4.104,0.432-9.72c4.464-1.008,9.576-4.68,12.528-5.544l4.968-1.08
	C704.874,209.73,708.618,210.81,709.987,209.658z" style="filter:url(#myGaussianBlur)" />
<path fill="#CA6C38" stroke="#000000" stroke-width="0.7087" stroke-linecap="round" stroke-linejoin="round" stroke-miterlimit="10" d="
	M800.85,189.858l5.328,37.08c0.216,2.016-4.248-5.616-4.32-6.624c-1.368-2.952-4.896-7.056-5.184-9.576
	c0.864,7.488-9.288,16.848-8.855,20.304c-2.016-17.568,9.144-21.888-7.776-14.328c-3.384,1.368-12.456,6.48-8.64,0l5.904-10.368
	c-21.096,2.448-17.28-4.104,0.432-9.72c4.464-1.008,9.648-4.68,12.6-5.544l4.968-1.08C795.81,189.93,799.482,191.082,800.85,189.858
	z" style="filter:url(#myGaussianBlur)" />
<path fill="#CA6C38" stroke="#000000" stroke-width="0.7087" stroke-linecap="round" stroke-linejoin="round" stroke-miterlimit="10" d="
	M720.498,99.066l30.168-22.176c1.584-1.224-6.984,0.936-7.776,1.584c-3.024,1.08-8.496,1.44-10.512,3.024
	c6.048-4.68,5.544-18.432,8.352-20.592c-13.968,10.872-9.216,21.888-15.696,4.536c-1.368-3.384-4.104-13.464-6.048-6.192
	l-3.24,11.52c-13.032-16.776-15.048-9.432-6.696,7.056c2.448,3.96,3.456,10.152,4.896,12.888l2.736,4.32
	C716.97,95.394,720.354,97.266,720.498,99.066z" style="filter:url(#myGaussianBlur)" />
<path fill="#CA6C38" stroke="#000000" stroke-width="0.7087" stroke-linecap="round" stroke-linejoin="round" stroke-miterlimit="10" d="
	M619.626,12.018l-13.104,27.576c-0.648,1.512,4.68-3.384,4.968-4.104c1.8-1.944,5.544-4.32,6.408-6.192
	c-2.52,5.616,3.096,15.336,1.944,18c5.832-13.248-1.872-19.296,9.504-9.288c2.304,1.872,8.136,8.064,6.768,2.016l-2.088-9.504
	c15.84,7.056,14.4,1.008,2.016-7.632c-3.24-1.872-6.408-5.976-8.496-7.344l-3.6-2.088C623.586,13.314,620.418,13.314,619.626,12.018
	z" style="filter:url(#myGaussianBlur)" />
<path fill="#CA6C38" stroke="#000000" stroke-width="0.7087" stroke-linecap="round" stroke-linejoin="round" stroke-miterlimit="10" d="
	M573.762,25.41l-36.648,7.488c-2.016,0.504,6.696,2.088,7.704,1.872c3.168,0.288,8.28,2.232,10.728,1.656
	c-7.344,1.728-12.744,14.4-16.2,15.192c17.28-4.032,17.568-16.056,16.2,2.448c-0.216,3.672-1.944,13.968,2.952,8.136l7.704-9.072
	c4.824,20.664,9.72,14.832,9-3.672c-0.504-4.536,1.152-10.656,1.008-13.68l-0.72-5.04C575.418,30.234,573.115,27.138,573.762,25.41z
	" style="filter:url(#myGaussianBlur)" />
</svg>
