<?xml version="1.0" encoding="utf-8"?>
<!-- Generator: Adobe Illustrator 15.0.0, SVG Export Plug-In  -->
<!DOCTYPE svg PUBLIC "-//W3C//DTD SVG 1.1//EN" "http://www.w3.org/Graphics/SVG/1.1/DTD/svg11.dtd" [
	<!ENTITY ns_flows "http://ns.adobe.com/Flows/1.0/">
]>
<svg version="1.1"
	 xmlns="http://www.w3.org/2000/svg" xmlns:xlink="http://www.w3.org/1999/xlink" xmlns:a="http://ns.adobe.com/AdobeSVGViewerExtensions/3.0/"
	 x="0px" y="0px" width="275px" height="407px" viewBox="0 0 256 407" overflow="visible" enable-background="new 0 0 256 407"
	 xml:space="preserve">
<defs>
  <filter id="dropshadow" height="130%">
    <feGaussianBlur in="SourceAlpha" stdDeviation="3"/> <!-- stdDeviation is how much to blur -->
    <feOffset dx="2" dy="2" result="offsetblur"/> <!-- how much to offset -->
    <feMerge>
      <feMergeNode/> <!-- this contains the offset blurred image -->
      <feMergeNode in="SourceGraphic"/> <!-- this contains the element that the filter is applied to -->
    </feMerge>
  </filter>
</defs>
<path fill="#EFE3DB" stroke="#000000" stroke-width="0.7087" stroke-linecap="round" stroke-linejoin="round" stroke-miterlimit="10" d="
	M201.996,274.553c15.912,0,8.855-25.92-5.616-21.24c-6.12,2.305-7.776,11.017-5.399,16.776
	C193.572,276.354,200.412,277.648,201.996,274.553z" style="filter:url(#dropshadow)" />
<path fill="#E3B08E" stroke="#000000" stroke-width="0.7087" stroke-linecap="round" stroke-linejoin="round" stroke-miterlimit="10" d="
	M183.636,371.682c0-11.377,13.68-25.992,13.68-41.473c0-33.984,10.08-35.928-1.297-65.88l-91.439,5.976
	c-6.696,13.896-11.304,31.32-1.584,46.225c2.592,3.6,22.608,18,22.608,22.607c0,6.696-3.024,11.305-3.024,18
	c-5.616,5.545-36.072,21.456-27.792,31.465c7.488,9,17.208-2.881,23.976-6.192c6.48-3.168,24.335-10.08,23.616-15.912
	c0-9.288,13.464-17.567,13.464-34.056c0-14.473-11.376-26.856-11.376-46.44c14.472,8.28,12.456,26.28,18.648,38.664
	c3.096,6.192,10.224,38.735,4.032,38.735c-4.32,13.033-36.937,25.201-16.272,35.209c8.64,4.176,15.12-7.992,17.424-12.528
	C170.171,382.409,181.116,371.393,183.636,371.682z" style="filter:url(#dropshadow)" />
<path fill="#E3B08E" stroke="#000000" stroke-width="0.7087" stroke-linecap="round" stroke-linejoin="round" stroke-miterlimit="10" d="
	M18.396,185.417c-2.448,0.504-9.72,4.248-9.864,6.192c-2.304,1.584-10.008,8.496-7.776,11.232c2.232,2.736,6.84-1.44,9.648-1.944
	c0.216-0.072-11.808,2.232-9.576,8.208c1.008,2.664,4.392,1.295,6.192,0.576l5.04-2.377c7.416-3.384-4.896,1.512-6.768,3.024
	c-2.088,1.728,4.176,3.744,5.832,3.312c3.816-1.008,10.008-1.224,13.176-3.815c3.312-2.664,5.544-0.937,4.032-4.896l-6.048-15.049
	C21.492,188.009,20.844,185.489,18.396,185.417z" style="filter:url(#dropshadow)" />
<path fill="#E3B08E" stroke="#000000" stroke-width="0.7087" stroke-linecap="round" stroke-linejoin="round" stroke-miterlimit="10" d="
	M219.06,236.105c-2.593,2.592-9.072,19.224-2.088,19.224c2.088,0,3.312-7.2,2.951-5.112l-0.359,1.225
	c-1.369,5.472,4.319,6.336,5.832,1.512c2.231-7.057-1.656,2.232,1.728,3.24c4.823,1.584,8.928-9.576,8.928-13.176
	C236.052,238.337,223.523,235.961,219.06,236.105z" style="filter:url(#dropshadow)" />
<path fill="#457EAD" stroke="#000000" stroke-width="0.7087" stroke-linecap="round" stroke-linejoin="round" stroke-miterlimit="10" d="
	M186.515,134.081c25.561,0,52.776,28.224,66.385,41.832c8.783,8.784-8.713,51.983-14.76,64.368
	c-2.664,5.472-12.457,0.504-17.281-2.016c-2.592-1.369-3.672-3.889,0.361-9.217c5.903-7.92,8.567-20.16,9.575-39.384
	c-1.8-9.792-18.647-16.128-30.888-21.816c-8.641-4.032-5.616,5.544-6.336,17.136c-0.793,12.6-1.225,15.264-0.288,23.041
	l3.528,59.184c-9.576,0-20.377,4.896-31.104,4.752l-61.128-0.792l1.656-60.479c0.288-12.168-2.952-27.721-7.92-26.784
	c-8.28,1.512-22.968,6.408-31.176,9.432l-39.096,14.399c-6.696,2.449-16.992-19.943-9.936-23.039l56.304-24.84
	c13.464-5.976,13.464-13.896,28.224-16.272l50.184-1.8l28.728-8.28L186.515,134.081z" style="filter:url(#dropshadow)" />
<path fill="#E3B08E" stroke="#000000" stroke-width="0.7087" stroke-linecap="round" stroke-linejoin="round" stroke-miterlimit="10" d="
	M112.14,81.233c17.064-11.088-0.432-48.672,5.112-66.168c3.456-10.224,10.728-11.088,21.385-7.704
	c15.336,5.184,5.111,42.696,5.111,55.08c0,19.656,14.473,4.68,14.473-9.792c0-8.568-3.385-38.88,4.752-42.696
	c5.975-2.952,4.248-11.088,13.607-9.36c35.424,6.768,12.816,52.92,3.023,72.504c-5.111,10.728,6.408,31.608,6.408,43.56
	c0,17.208-7.92,28.872-23.328,32.976c-1.8,0.432-6.191,2.808-8.207,3.096c-5.473,0.72-8.424-0.144-13.393-0.072
	c-21.888,0.432-37.872-0.72-37.872-30.456C103.21,113.273,102.418,94.625,112.14,81.233z" style="filter:url(#dropshadow)" />
<path fill="#DEAF8E" stroke="#000000" stroke-width="0.7087" stroke-linecap="round" stroke-linejoin="round" stroke-miterlimit="10" d="
	M125.675,104.561c-9.576,4.752-16.704,27.36-8.352,35.64c7.344,7.416,10.008,8.352,20.664,10.944
	c22.607,5.472,23.328-16.128,23.328-31.536C161.314,101.969,135.179,105.065,125.675,104.561z"/>
<path stroke="#000000" stroke-width="0.7087" stroke-linecap="round" stroke-linejoin="round" stroke-miterlimit="10" d="
	M129.204,111.761c0.792,5.184,4.752,7.272,4.896,12.384l0.072,6.984c0.145,9.288,2.16-2.592,2.16-6.12
	c0-6.912,4.896-4.392,9.216-8.712c0.864-0.936,7.704-7.056,1.944-4.176c-1.944,0.864-5.328,1.8-6.696,3.168
	c-2.088,2.016-4.68,3.96-6.479,1.224C133.595,115.361,128.988,107.657,129.204,111.761z"/>
<path fill="#FCD3C1" stroke="#000000" stroke-width="0.7087" stroke-linecap="round" stroke-linejoin="round" stroke-miterlimit="10" d="
	M123.299,82.601c-5.76,0.936-7.704,10.008-8.856,14.616c-2.376,9.648,14.472,4.752,16.848-0.144
	c4.176-8.568,4.319-12.384-2.16-14.328C127.764,82.313,125.458,81.593,123.299,82.601z"/>
<path fill="#FCD3C1" stroke="#000000" stroke-width="0.7087" stroke-linecap="round" stroke-linejoin="round" stroke-miterlimit="10" d="
	M165.204,88.577c-7.2,0.936-10.368,7.92-9.072,12.96c1.584,6.408,9.36,10.152,16.272,0
	C176.002,96.209,176.076,88.649,165.204,88.577z" />
<path fill="#DEAF8E" d="M118.116,76.481c7.632,3.888,16.2,0.864,23.399,0.864c3.312,0,4.104-2.16,2.592-5.4
	c-4.68-9.864,1.729-32.328,1.729-43.992c-0.936-2.376-0.504-6.768-0.792-9.36c-0.864-6.624-4.608-11.664-11.304-11.664
	c-3.024,0-5.616-0.288-8.424,0.864c-3.888,1.584-7.992,9.216-8.568,13.752c-0.792,5.976,1.944,11.448,1.944,17.064l2.232,22.824
	c0.288,2.52-0.144,5.76-0.792,8.136C119.916,70.433,117.18,76.625,118.116,76.481z"/>
<path fill="#58595B" stroke="#000000" stroke-width="0.7087" stroke-linecap="round" stroke-linejoin="round" stroke-miterlimit="10" d="
	M138.708,134.369c-5.112,0-7.92-0.936-12.6-2.52c-0.36-0.072-5.544-3.6-3.96-0.36c1.656,3.312,6.624,3.96,9.72,4.608
	c2.159,0.432,8.64,0.144,10.008-0.432c3.097-1.224,5.761-4.752,7.2-6.264c1.584-1.512,0.72-2.088-0.936-1.08
	C145.116,130.409,142.019,134.225,138.708,134.369z"/>
<path fill="#FCD3C1" stroke="#000000" stroke-width="0.7087" stroke-linecap="round" stroke-linejoin="round" stroke-miterlimit="10" d="
	M121.571,71.945c4.824-16.848-0.504-36.072-0.504-54.432c0-9.288,15.624-8.496,18.792-2.376c6.984,13.752,0.793,35.136,0.793,50.832
	c0,5.184,1.584,7.128-6.192,7.128C131.002,73.097,122.076,76.265,121.571,71.945z"/>
<path fill="#DEAF8E" d="M154.187,70.073c-0.863,6.624,12.312,11.088,17.064,11.088c7.057,0,3.312-4.464,7.775-9.576
	c3.312-3.888,2.305-10.656,5.185-13.968c2.16-2.52,3.168-11.304,4.177-14.976c1.439-5.328,2.879-12.816,2.879-18.648
	c0-8.64-5.184-18.576-13.535-18.576c-15.769,0-19.369,14.112-19.225,30.096l0.145,21.6C158.65,60.425,156.492,70.865,154.187,70.073
	z"/>
<path fill="#FCD3C1" stroke="#000000" stroke-width="0.7087" stroke-linecap="round" stroke-linejoin="round" stroke-miterlimit="10" d="
	M155.339,73.097c11.881-11.952,9.721-32.616,9.721-49.32c0-7.2,4.176-16.488,12.168-14.976c5.903,1.08,10.655,8.856,10.655,17.568
	c0,14.76-2.592,34.992-12.815,45.144c-3.024,3.096-1.512,10.656-7.2,5.04C166.355,75.041,157.5,73.313,155.339,73.097z"/>
<path fill="#E84F4F" stroke="#000000" stroke-width="0.7087" stroke-linecap="round" stroke-linejoin="round" stroke-miterlimit="10" d="
	M188.603,161.873c0,34.56,0,72.576-25.631,102.456l-25.201-17.063c0-6.408,18.36-24.336,21.385-32.904
	c5.111-13.608,5.976-35.856,12.744-47.376c-11.521,11.52-54.216,5.688-67.824-1.08c-2.16-3.168-5.976-21.96,2.088-25.776
	c9.432,12.816,32.04,11.952,48.24,11.952c6.84,0,29.88-13.68,29.88-20.88C189.036,140.561,188.171,154.601,188.603,161.873z" style="filter:url(#dropshadow)" />
<path fill="#482626" stroke="#000000" stroke-width="0.7087" stroke-linecap="round" stroke-linejoin="round" stroke-miterlimit="10" d="
	M112.284,364.266c-7.56,0.647-15.552,14.832-21.312,18c-3.6,1.943-10.944,6.84-10.944,10.439c0,10.225,14.328,8.352,21.096,3.816
	l17.208-11.953c1.872-1.295,24.695-12.959,24.695-15.264c0-3.455-18.431-7.056-21.527-7.056
	C116.027,362.249,114.587,364.266,112.284,364.266z"/>
<path fill="#EDAF7F" stroke="#000000" stroke-width="0.7087" stroke-linecap="round" stroke-linejoin="round" stroke-miterlimit="10" d="
	M90.106,380.896c-3.672,2.017-11.016,6.84-11.016,10.513c0,10.224,14.4,8.28,21.168,3.815l17.208-11.951
	c1.872-1.297,22.176-11.305,23.545-13.32l1.367-1.944l0.792-4.752l1.944-5.04l-7.272,1.44l-6.696,1.655l-6.551-0.144l-5.544-1.224
	C109.62,360.305,98.027,376.577,90.106,380.896z"/>
<path fill="#482626" stroke="#000000" stroke-width="0.7087" stroke-linecap="round" stroke-linejoin="round" stroke-miterlimit="10" d="
	M165.204,363.904c-3.312,0.865-2.088,1.369-4.536,4.896c-2.52,3.456-12.384,9.576-14.615,11.809
	c-4.896,5.039-8.425,19.224-2.017,24.479c6.769,5.472,12.888-3.384,16.632-5.976c6.768-4.752,11.664-7.704,16.271-13.896
	c1.944-2.664,5.761-7.128,7.633-9.72c0.791-1.08,1.224-6.265,0.216-7.345C180.898,364.121,166.355,364.697,165.204,363.904z"/>
<path fill="#EDAF7F" stroke="#000000" stroke-width="0.7087" stroke-linecap="round" stroke-linejoin="round" stroke-miterlimit="10" d="
	M167.363,360.521c-3.527,0.863-6.84,1.728-9.432,5.399c-2.664,3.672-10.152,10.009-12.455,12.384
	c-5.256,5.328-8.929,20.377-2.088,25.92c7.055,5.832,13.607-3.527,17.639-6.336c10.152-7.056,21.24-17.64,23.185-26.855l2.017-9.648
	l-6.192,0.072l-8.353-0.648C169.956,360.665,167.795,360.736,167.363,360.521z"/>
<path fill="#EFDFD4" stroke="#000000" stroke-width="0.7087" stroke-linecap="round" stroke-linejoin="round" stroke-miterlimit="10" d="
	M124.235,89.153c-2.736,0-4.248,2.16-4.248,4.68c0,4.176,5.832,6.408,7.848,2.232C129.636,92.537,127.834,89.153,124.235,89.153z"/>
<path stroke="#000000" stroke-width="0.7087" stroke-linecap="round" stroke-linejoin="round" stroke-miterlimit="10" d="
	M122.507,93.041c-1.296,0-1.296,2.592,0.576,2.592C124.02,95.633,124.308,93.041,122.507,93.041z"/>
<path fill="#ECE5E0" stroke="#000000" stroke-width="0.7087" stroke-linecap="round" stroke-linejoin="round" stroke-miterlimit="10" d="
	M166.284,95.417c-7.849-1.296-9.433,8.928-2.736,8.928C167.22,104.345,169.74,95.273,166.284,95.417z"/>
<path stroke="#000000" stroke-width="0.7087" stroke-linecap="round" stroke-linejoin="round" stroke-miterlimit="10" d="
	M161.314,98.945c-1.728,0.576-0.936,2.736,0.504,2.736C162.898,101.681,162.898,98.729,161.314,98.945z"/>
<path fill="none" stroke="#000000" stroke-width="0.7087" stroke-linecap="round" stroke-linejoin="round" stroke-miterlimit="10" d="
	M97.522,374.417c2.88,1.944,7.056,4.824,10.872,4.824c1.512,0-6.696-8.64-6.696-9.505c0-0.432,23.472,6.912,10.872-1.512
	c-9.504-6.479,4.464-2.879,7.992-2.879"/>
<path fill="none" stroke="#000000" stroke-width="0.7087" stroke-linecap="round" stroke-linejoin="round" stroke-miterlimit="10" d="
	M149.868,379.816c2.088,0.504,22.319,5.761,12.6-0.791c-2.663-1.801-12.888-7.633-5.256-8.928
	c10.513-2.089,13.896,4.463,6.265-3.168c-6.553-6.553,9-0.793,10.295-0.793"/>
<path fill="none" stroke="#000000" stroke-width="0.7087" stroke-linecap="round" stroke-linejoin="round" stroke-miterlimit="10" d="
	M201.418,255.4c0-2.088,1.151-4.392,1.151-6.191"/>
<path fill="none" stroke="#000000" stroke-width="0.7087" stroke-linecap="round" stroke-linejoin="round" stroke-miterlimit="10" d="
	M202.572,259.217c1.224-1.152,4.464-3.816,5.904-3.816"/>
<path fill="none" stroke="#000000" stroke-width="0.7087" stroke-linecap="round" stroke-linejoin="round" stroke-miterlimit="10" d="
	M206.458,263.393c0.863,0,6.191,1.729,6.191,2.592"/>
<path fill="none" stroke="#000000" stroke-width="0.7087" stroke-linecap="round" stroke-linejoin="round" stroke-miterlimit="10" d="
	M207.179,270.232c0,0.865,4.32,1.656,4.32,2.305"/>
</svg>
