<?xml version="1.0" encoding="utf-8"?>
<!-- Generator: Adobe Illustrator 15.0.0, SVG Export Plug-In  -->
<!DOCTYPE svg PUBLIC "-//W3C//DTD SVG 1.1//EN" "http://www.w3.org/Graphics/SVG/1.1/DTD/svg11.dtd" [
	<!ENTITY ns_flows "http://ns.adobe.com/Flows/1.0/">
]>
<svg version="1.1"
	 xmlns="http://www.w3.org/2000/svg" xmlns:xlink="http://www.w3.org/1999/xlink" xmlns:a="http://ns.adobe.com/AdobeSVGViewerExtensions/3.0/"
	 x="0px" y="0px" width="228px" height="69px" viewBox="0 0 228 69" overflow="visible" enable-background="new 0 0 228 69"
	 xml:space="preserve">
<defs>
</defs>
<path d="M211.896,19.512v-4.32c0.072,0.216,0.144,0.504,0.216,0.792C212.4,17.352,212.328,18.504,211.896,19.512L211.896,19.512z
	 M211.896,4.608l3.312,15.84l3.456-0.72l-1.584-7.488l6.12-1.296l1.584,7.488l3.456-0.792L224.496,0l-3.456,0.72l1.512,7.128
	l-6.12,1.296l-1.512-7.128l-3.024,0.648V4.608z M211.896,2.664v1.944l-0.432-1.872L211.896,2.664L211.896,2.664z M211.896,15.192
	c-0.288-0.792-0.72-1.44-1.368-1.944c-0.792-0.648-1.944-1.224-3.6-1.728c-0.216-0.072-0.432-0.144-0.792-0.216
	c-1.872-0.576-2.88-1.296-3.096-2.232c-0.144-0.504,0-0.936,0.288-1.296c0.288-0.432,0.72-0.648,1.368-0.792
	c0.504-0.144,1.08-0.072,1.584,0.072c0.576,0.216,1.008,0.504,1.368,0.936l1.584-2.808c-0.648-0.648-1.44-1.08-2.304-1.296
	c-0.864-0.216-1.8-0.216-2.88,0c-1.656,0.36-2.952,1.152-3.744,2.232c-0.36,0.576-0.648,1.152-0.792,1.8v1.872
	c0,0.072,0.072,0.216,0.072,0.288c0.216,1.08,0.72,1.944,1.44,2.592c0.792,0.72,1.872,1.296,3.456,1.728
	c1.44,0.432,2.448,0.864,3.024,1.224c0.576,0.36,0.936,0.792,1.08,1.368c0.144,0.648,0.072,1.152-0.216,1.584
	c-0.36,0.432-0.864,0.72-1.584,0.864c-0.72,0.144-1.368,0.072-2.088-0.144c-0.72-0.288-1.224-0.72-1.584-1.224l-1.656,2.88
	c0.576,0.792,1.44,1.296,2.448,1.512c1.08,0.288,2.232,0.288,3.528,0c1.872-0.36,3.24-1.152,4.032-2.232
	c0.144-0.288,0.288-0.504,0.432-0.72V15.192L211.896,15.192z M199.512,18.216V15.48C199.656,16.416,199.656,17.352,199.512,18.216z
	 M199.512,7.92v1.872C199.44,9.144,199.44,8.496,199.512,7.92L199.512,7.92z M199.512,15.48c0-0.288-0.072-0.576-0.144-0.936
	c-0.576-2.592-1.872-4.68-3.888-6.048c-1.512-1.008-3.096-1.512-4.824-1.512v3.456c1.008,0,1.944,0.36,2.808,1.008
	c1.224,0.864,1.944,2.16,2.304,3.888c0.36,1.656,0.216,3.168-0.504,4.464c-0.72,1.296-1.872,2.088-3.384,2.448
	c-0.432,0.072-0.792,0.144-1.224,0.144v3.456c0.648,0,1.296-0.072,1.944-0.216c2.52-0.504,4.392-1.872,5.688-3.96
	c0.648-1.08,1.08-2.232,1.224-3.456V15.48z M190.656,6.984v3.456c-0.432,0-0.792,0.072-1.224,0.144
	c-1.512,0.288-2.664,1.152-3.384,2.448c-0.72,1.224-0.864,2.736-0.504,4.464c0.36,1.728,1.08,3.024,2.304,3.888
	c0.864,0.648,1.8,0.936,2.808,1.008v3.456c-1.728,0-3.312-0.504-4.824-1.512c-2.016-1.44-3.312-3.456-3.888-6.048
	c-0.576-2.664-0.216-5.04,1.08-7.128c1.296-2.16,3.24-3.456,5.688-3.96C189.36,7.056,190.008,6.984,190.656,6.984L190.656,6.984z
	 M171.144,29.808v-5.256l1.08,5.04L171.144,29.808L171.144,29.808z M171.144,14.472l2.952-0.576l3.096,14.616l3.456-0.72
	l-3.096-14.688l3.312-0.648l-0.648-3.096l-9.072,1.944V14.472z M171.144,11.304v3.168l-0.432,0.072l-0.648-3.024L171.144,11.304
	L171.144,11.304z M171.144,24.552L168.48,11.88l-3.384,0.72l2.52,11.88l-10.8-10.152l-2.88,0.648v2.304l3.312,15.48l3.384-0.72
	l-2.592-11.952l10.8,10.224l2.304-0.504V24.552L171.144,24.552z M153.936,33.48v-2.304l0.432,2.16L153.936,33.48z M153.936,14.976
	v2.304l-0.504-2.232L153.936,14.976L153.936,14.976z M153.936,31.176l-3.312-15.48l-2.52,0.504v4.464l2.808,13.464l3.024-0.648
	V31.176L153.936,31.176z M148.104,34.272v-4.536c0-0.072,0.072-0.144,0.072-0.144l0.792,3.888
	C148.752,33.768,148.464,34.056,148.104,34.272z M148.104,16.2v4.464l-0.936-4.248L148.104,16.2L148.104,16.2z M148.104,29.736
	c-0.504,0.72-1.008,1.296-1.656,1.728c-0.648,0.504-1.44,0.792-2.376,1.008c-1.584,0.36-2.952,0.072-4.104-0.792
	c-1.08-0.864-1.872-2.232-2.232-4.032c-0.36-1.8-0.216-3.312,0.576-4.608c0.72-1.296,1.944-2.088,3.6-2.448
	c0.72-0.144,1.44-0.144,2.232,0s1.584,0.36,2.304,0.792l-0.864-3.816c-0.648-0.288-1.368-0.432-2.16-0.504
	c-0.72,0-1.584,0.072-2.592,0.288c-2.592,0.576-4.464,1.872-5.688,3.888c-0.216,0.36-0.36,0.648-0.504,1.008v7.92
	c0.648,1.944,1.8,3.456,3.24,4.464c1.872,1.368,4.176,1.728,6.84,1.152c0.72-0.144,1.512-0.432,2.376-0.936
	c0.36-0.144,0.72-0.36,1.008-0.576V29.736L148.104,29.736z M134.64,37.584v-2.232l0.72,2.088L134.64,37.584z M134.64,22.248v7.92
	c-0.216-0.576-0.36-1.152-0.504-1.8C133.632,26.136,133.848,24.048,134.64,22.248L134.64,22.248z M134.64,35.352l-5.472-15.12
	l-3.96,0.864l-0.936,11.376l-5.256-10.08l-4.248,0.864l1.368,18.216l3.384-0.72l-1.152-13.32l6.408,12.24l2.016-0.432l0.792-13.752
	l4.392,12.672l2.664-0.576V35.352L134.64,35.352z M98.064,45.36v-2.88l0.576,2.736L98.064,45.36L98.064,45.36z M98.064,29.736
	l3.168,14.976l7.776-1.656l-0.648-3.096l-4.392,0.936l-3.096-14.616l-2.808,0.576V29.736z M98.064,26.856v2.88L97.416,27
	L98.064,26.856L98.064,26.856z M98.064,42.48l-0.072-0.288l-5.4,1.152l-0.936-4.464l5.4-1.08l-0.648-3.096l-5.4,1.152l-0.864-4.104
	l5.4-1.152l-0.648-3.096l-8.424,1.8v2.304l3.312,15.48l8.28-1.728V42.48L98.064,42.48z M86.472,47.808v-2.304l0.432,2.232
	L86.472,47.808z M86.472,29.304v2.304l-0.504-2.16L86.472,29.304L86.472,29.304z M86.472,45.504l-3.312-15.48l-3.024,0.648v2.232
	l3.312,15.552l3.024-0.648V45.504L86.472,45.504z M80.136,49.176v-2.232l0.504,2.088L80.136,49.176z M80.136,30.672v2.232
	l-0.432-2.16L80.136,30.672L80.136,30.672z M80.136,46.944l-3.312-15.552l-3.384,0.72l2.592,11.88l-10.8-10.152l-2.16,0.432v6.12
	l2.52,11.88l3.384-0.72L66.456,39.6l10.8,10.152l2.88-0.576V46.944L80.136,46.944z M63.072,52.776v-2.304l1.224,2.016L63.072,52.776
	z M63.072,34.272v6.12l-1.224-5.832L63.072,34.272L63.072,34.272z M63.072,50.472l-8.208-13.896v6.336l2.232,4.104l-2.232,0.504
	v2.952l3.6-0.792l2.016,3.672l2.592-0.576V50.472z M54.864,36.576v6.336l-1.656-2.952l-0.576,7.992l2.232-0.432v2.952l-2.448,0.504
	l-0.36,4.176l-3.816,0.792l2.232-18.936l4.104-0.936L54.864,36.576L54.864,36.576z M39.24,57.816v-3.168
	c1.44-0.432,2.448-1.152,3.096-2.232c0.792-1.224,0.936-2.736,0.576-4.608c-0.432-1.8-1.224-3.096-2.376-3.96
	c-0.36-0.288-0.792-0.504-1.296-0.648v-3.24c1.224,0.144,2.376,0.504,3.312,1.08c2.016,1.152,3.312,3.168,3.96,6.048
	c0.576,2.808,0.216,5.184-1.152,7.056C44.064,55.944,42.048,57.168,39.24,57.816z M39.24,39.96v3.24
	c-0.864-0.216-1.872-0.288-3.024,0l-0.792,0.144l2.448,11.592l0.864-0.144c0.144-0.072,0.36-0.072,0.504-0.144v3.168
	c-0.144,0.072-0.216,0.072-0.36,0.144l-3.816,0.792L31.32,41.04l3.528-0.72C36.432,39.96,37.944,39.816,39.24,39.96L39.24,39.96z
	 M13.176,61.416v-4.68c0.144,0.288,0.288,0.648,0.36,1.08C13.824,59.184,13.68,60.408,13.176,61.416L13.176,61.416z M13.176,52.272
	l6.192,9.504l-1.08,6.912l3.672-0.792l2.664-19.008l-3.6,0.792l-0.792,7.92l-3.96-6.912l-3.096,0.648V52.272z M9.864,58.392
	C9.72,57.6,9.36,57.024,8.784,56.736c-0.288-0.144-0.648-0.216-1.008-0.288V46.8c0.288,0.072,0.576,0.144,0.792,0.288
	c1.152,0.504,1.944,1.584,2.232,3.168c0.216,1.008,0.144,1.8-0.216,2.52c-0.36,0.792-1.008,1.296-1.872,1.656
	c1.08-0.144,2.088,0.144,3.024,0.792c0.648,0.36,1.08,0.864,1.44,1.512v4.68c-0.144,0.216-0.36,0.432-0.504,0.648
	c-0.936,1.152-2.52,1.944-4.752,2.448H7.776v-3.024c0.864-0.216,1.44-0.576,1.8-1.08C10.008,59.904,10.08,59.256,9.864,58.392
	L9.864,58.392z M13.176,51.336L12.6,51.48l0.576,0.792V51.336z M7.776,56.448c-0.36,0-0.792,0-1.224,0.144l-0.648,0.144v-3.024
	c0.504-0.216,0.936-0.432,1.224-0.792c0.432-0.432,0.576-1.008,0.432-1.656c-0.144-0.72-0.504-1.224-1.008-1.44
	C6.408,49.752,6.12,49.68,5.904,49.68v-3.096c0.72,0,1.368,0.072,1.872,0.216V56.448L7.776,56.448z M5.904,57.96l0.792,3.744
	l0.864-0.216c0.072,0,0.144,0,0.216,0v3.024l-1.872,0.432V57.96z M5.904,56.736H5.616l0.288,1.224v6.984l-2.088,0.432L0,47.664
	l3.744-0.72c0.792-0.216,1.512-0.288,2.16-0.36v3.096c-0.432,0-0.936,0-1.584,0.144l-0.144,0.072l0.864,4.032h0.144
	c0.288-0.072,0.504-0.144,0.72-0.216V56.736z"/>
</svg>
