<?xml version="1.0" encoding="utf-8"?>
<!-- Generator: Adobe Illustrator 15.0.0, SVG Export Plug-In  -->
<!DOCTYPE svg PUBLIC "-//W3C//DTD SVG 1.1//EN" "http://www.w3.org/Graphics/SVG/1.1/DTD/svg11.dtd" [
	<!ENTITY ns_flows "http://ns.adobe.com/Flows/1.0/">
]>
<svg version="1.1"
	 xmlns="http://www.w3.org/2000/svg" xmlns:xlink="http://www.w3.org/1999/xlink" xmlns:a="http://ns.adobe.com/AdobeSVGViewerExtensions/3.0/"
	 x="0px" y="0px" width="659px" height="202px" viewBox="0 0 659 202" overflow="visible" enable-background="new 0 0 659 202"
	 xml:space="preserve">
<defs>
</defs>
<polygon stroke="#000000" stroke-width="0.7087" stroke-linecap="round" stroke-linejoin="round" stroke-miterlimit="10" points="
	41.538,108.714 49.746,70.914 67.314,66.882 86.106,136.002 67.17,139.89 57.954,95.826 51.042,125.202 40.746,127.362 
	20.154,102.81 28.578,149.034 11.082,152.346 0.354,85.242 16.122,80.994 "/>
<path d="M101.874,132.114l3.312-0.576l-3.312-15.624V132.114L101.874,132.114z M101.874,109.938V98.49
	c3.096-1.728,6.264-4.608,5.472-6.48c-0.288-1.872-2.808-3.456-5.472-3.6V76.89c17.208-0.36,23.904,19.368,10.368,27.648
	l23.472,18.72l-15.984,4.392L101.874,109.938z M86.466,100.578l7.416,33.048l7.992-1.512v-16.2l-1.584-7.56l1.584,1.584V98.49
	c-1.152,0.648-2.304,1.152-3.168,1.296l-2.448-8.568c1.368-2.16,3.528-2.952,5.616-2.808V76.89
	c-5.472,0.072-12.024,2.16-19.296,7.272L86.466,100.578z"/>
<path fill="none" stroke="#000000" stroke-width="0.7087" stroke-linecap="round" stroke-linejoin="round" stroke-miterlimit="10" d="
	M86.466,100.578l7.416,33.048l11.304-2.088l-4.896-23.184l19.44,19.296l15.984-4.392l-23.472-18.72
	c17.784-10.944,0.576-41.616-29.664-20.376L86.466,100.578L86.466,100.578z M98.706,99.786l-2.448-8.568
	c3.024-4.968,10.512-2.592,11.088,0.792C108.426,94.53,102.018,99.138,98.706,99.786z"/>
<path d="M177.906,34.338c25.056-0.576,40.968,22.104,16.272,42.552l29.808,29.088l-17.784,3.744l-28.296-26.064V67.53
	c6.48-2.88,8.424-5.904,9.432-11.304c-0.072-4.464-3.888-8.424-9.432-8.136V34.338L177.906,34.338z M177.906,91.074v24.912
	l5.472-1.08L177.906,91.074z M151.482,43.194c9.072-5.976,18.216-8.64,26.424-8.856V48.09c-2.808,0.144-5.976,1.296-9.432,3.96
	l4.176,17.424c2.016-0.648,3.744-1.296,5.256-1.944v16.128l-2.232-2.016l2.232,9.432v24.912l-9.576,1.8L151.482,43.194z"/>
<path fill="none" stroke="#000000" stroke-width="0.7087" stroke-linecap="round" stroke-linejoin="round" stroke-miterlimit="10" d="
	M151.482,43.194c36.72-24.48,75.456,6.552,42.696,33.696l29.808,29.088l-17.784,3.744l-30.528-28.08l7.704,33.264l-15.048,2.88
	L151.482,43.194L151.482,43.194z M172.65,69.474l-4.176-17.424c10.44-7.992,18.72-2.448,18.864,4.176
	C186.042,62.922,183.522,65.946,172.65,69.474z"/>
<path d="M249.618,80.202l-9.504,2.304V71.85l4.68-1.224l-4.608-8.64h-0.072V49.17l0.36-0.072l33.696,44.928l-11.952,2.52
	L249.618,80.202z M240.114,82.506l-2.304,0.576l1.512,19.656l-11.016,2.736l-1.008-53.136l12.816-3.168v12.816l-4.68,1.224
	l0.504,9.792l4.176-1.152V82.506z"/>
<path fill="none" stroke="#000000" stroke-width="0.7087" stroke-linecap="round" stroke-linejoin="round" stroke-miterlimit="10" d="
	M249.618,80.202l-11.808,2.88l1.512,19.656l-11.016,2.736l-1.008-53.136l13.176-3.24l33.696,44.928l-11.952,2.52L249.618,80.202
	L249.618,80.202z M235.938,73.002l8.856-2.376l-4.608-8.64l-4.752,1.224L235.938,73.002z"/>
<path d="M291.378,90.354c8.928-2.448,17.064-6.768,18.432-13.968c0.072-0.432,0.144-0.936,0.216-1.368v-2.232
	c-0.648-8.28-8.712-13.896-17.928-11.664c8.64-2.88,10.44-8.136,5.04-17.352c-1.296-2.016-3.24-3.744-5.76-4.896V69.69
	c3.384,0.504,6.264,2.16,6.696,3.672c0.864,2.088-2.232,5.616-6.696,7.56V90.354z M283.17,92.01
	c2.664-0.432,5.472-0.936,8.208-1.656v-9.432c-1.296,0.576-2.664,1.008-4.104,1.224l-2.664-11.304
	c2.088-1.224,4.536-1.44,6.768-1.152V38.874c-2.232-1.008-5.04-1.512-8.208-1.152v8.208c2.448-0.072,4.752,0.72,5.472,3.24
	c1.224,4.536-2.592,6.768-5.472,7.848V92.01z M279.786,92.37c1.08-0.072,2.232-0.216,3.384-0.36V57.018
	c-1.656,0.576-2.952,0.72-2.88,0.72l-2.808-10.224c1.224-0.792,3.456-1.584,5.688-1.584v-8.208
	c-4.392,0.432-9.648,2.448-15.552,6.984L279.786,92.37z"/>
<path fill="none" stroke="#000000" stroke-width="0.7087" stroke-linecap="round" stroke-linejoin="round" stroke-miterlimit="10" d="
	M279.786,92.37c12.096-1.152,28.08-5.616,30.024-15.984c1.728-10.224-7.2-17.784-17.712-15.264c8.64-2.88,10.44-8.136,5.04-17.352
	c-4.032-6.192-14.616-10.44-29.52,0.936L279.786,92.37L279.786,92.37z M280.29,57.738l-2.808-10.224
	c2.448-1.656,9.792-3.24,11.16,1.656C290.586,56.298,280.074,57.81,280.29,57.738L280.29,57.738z M287.274,82.146l-2.664-11.304
	c5.256-3.096,12.816,0.072,13.464,2.52C299.226,76.026,293.682,81.138,287.274,82.146z"/>
<path d="M328.458,80.85c11.88-3.024,17.64-8.064,18.288-13.32v-2.016c-0.072-0.288-0.072-0.504-0.144-0.72
	c-0.936-7.416-4.176-14.616-16.128-12.456c6.768-2.88,6.552-8.136,4.104-14.4c-0.936-2.088-2.952-4.464-6.12-6.12v28.296
	c4.248,0.144,7.272,1.656,7.776,4.464c1.152,3.384-2.016,5.832-7.776,7.416V80.85z M320.826,82.362
	c2.808-0.432,5.328-0.936,7.632-1.512v-8.856c-1.512,0.432-3.168,0.864-4.968,1.152l-2.664-10.368V82.362L320.826,82.362z
	 M328.458,31.818c-2.016-1.08-4.536-1.8-7.632-2.016v7.92c2.952,0.072,5.256,1.584,5.832,4.248c0.72,3.96-2.448,6.192-5.832,7.416
	v11.88c2.736-0.864,5.328-1.224,7.632-1.152V31.818z M317.73,82.722c1.08-0.072,2.088-0.216,3.096-0.36V62.778l-0.36-1.44
	c0.144,0,0.216-0.072,0.36-0.072v-11.88c-0.936,0.36-1.944,0.648-2.808,0.864l-3.096-11.016c2.088-1.152,4.104-1.584,5.904-1.512
	v-7.92c-4.176-0.216-9.288,0.576-15.624,3.168L317.73,82.722z"/>
<path fill="none" stroke="#000000" stroke-width="0.7087" stroke-linecap="round" stroke-linejoin="round" stroke-miterlimit="10" d="
	M317.73,82.722c21.888-2.592,30.456-10.368,28.872-17.928c-0.936-7.416-4.176-14.616-16.128-12.456
	c6.768-2.88,6.552-8.136,4.104-14.4c-2.448-5.256-11.16-12.384-29.376-4.968L317.73,82.722L317.73,82.722z M323.49,73.146
	l-3.024-11.808c7.848-2.448,15.048-1.152,15.768,3.24C337.674,68.826,332.274,71.634,323.49,73.146L323.49,73.146z M318.018,50.25
	l-3.096-11.016c5.328-2.952,10.8-1.512,11.736,2.736C327.594,47.01,322.194,49.314,318.018,50.25z"/>
<polygon stroke="#000000" stroke-width="0.7087" stroke-linecap="round" stroke-linejoin="round" stroke-miterlimit="10" points="
	344.154,25.266 356.754,73.074 366.546,70.986 353.082,23.322 "/>
<polygon stroke="#000000" stroke-width="0.7087" stroke-linecap="round" stroke-linejoin="round" stroke-miterlimit="10" points="
	361.002,21.522 363.522,30.882 375.69,28.362 386.418,66.234 397.506,63.858 386.202,25.986 400.242,22.962 397.434,13.674 "/>
<path stroke="#000000" stroke-width="0.7087" stroke-linecap="round" stroke-linejoin="round" stroke-miterlimit="10" d="
	M401.466,1.938l2.088,7.416l4.968-1.224c0.216,2.736-0.288,5.112-3.168,5.688l1.152,3.744c3.096-3.456,7.272-4.32,5.976-10.296
	l-2.664-6.912L401.466,1.938z"/>
<path stroke="#000000" stroke-width="0.7087" stroke-linecap="round" stroke-linejoin="round" stroke-miterlimit="10" d="
	M420.474,46.002l10.584-1.296c4.608,9.216,14.904,3.744,11.592-4.68c-2.952-5.904-11.232-2.088-19.872-6.84
	c-3.96-2.16-6.048-5.112-7.056-9.864c-0.864-3.816-0.864-9.36,1.872-12.096c3.744-2.88,11.808-5.256,18.216-4.104
	c5.256,1.008,9.144,4.68,10.368,10.44l-10.728,1.872c-0.576-3.96-3.096-5.256-6.84-4.536c-3.816,0.792-4.968,4.104-4.176,6.696
	c3.384,8.28,14.184,5.688,19.296,8.352c10.8,3.816,9.648,17.208,6.48,22.896c-2.592,3.24-8.928,6.048-14.832,5.616
	C427.17,57.81,421.554,51.186,420.474,46.002z"/>
<polygon stroke="#000000" stroke-width="0.7087" stroke-linecap="round" stroke-linejoin="round" stroke-miterlimit="10" points="
	220.818,112.458 220.242,185.826 202.746,190.434 184.602,156.738 180.642,196.41 165.594,199.578 136.794,132.474 152.058,128.37 
	168.186,173.37 173.946,134.634 184.746,132.33 205.266,163.794 202.458,117.21 "/>
<polygon stroke="#000000" stroke-width="0.7087" stroke-linecap="round" stroke-linejoin="round" stroke-miterlimit="10" points="
	231.114,132.978 242.49,180.858 258.042,177.186 245.01,129.666 "/>
<polygon stroke="#000000" stroke-width="0.7087" stroke-linecap="round" stroke-linejoin="round" stroke-miterlimit="10" points="
	268.05,173.658 256.098,126.57 269.13,124.122 293.898,146.298 288.498,119.514 302.826,116.49 313.266,164.442 299.514,167.106 
	271.506,141.978 278.202,171.354 "/>
<polygon stroke="#000000" stroke-width="0.7087" stroke-linecap="round" stroke-linejoin="round" stroke-miterlimit="10" points="
	310.53,115.554 313.266,126.138 328.458,123.618 337.386,160.194 348.69,157.602 339.258,120.81 355.53,117.858 352.002,105.834 "/>
<polygon stroke="#000000" stroke-width="0.7087" stroke-linecap="round" stroke-linejoin="round" stroke-miterlimit="10" points="
	370.65,153.57 358.338,104.106 390.954,96.906 393.69,108.642 371.586,113.034 374.178,122.97 395.706,118.146 398.37,129.306 
	376.626,134.49 378.642,142.41 400.962,137.946 403.77,147.306 "/>
<path d="M419.034,143.994l6.264-1.512l-5.904-22.608l18.288,19.944l13.896-2.952l-19.224-21.024c5.04-2.16,6.12-14.688,3.24-19.152
	c-3.168-4.824-9.504-7.056-16.56-7.272v9.288c3.384,0.504,5.976,2.232,6.552,3.816c0.36,3.024-2.304,5.184-6.552,6.552V143.994z
	 M413.058,145.434l5.976-1.44v-34.92c-1.08,0.36-2.304,0.72-3.6,0.936l-2.88-10.44c2.232-0.936,4.464-1.08,6.48-0.864v-9.288
	c-6.264-0.216-13.104,1.224-18.792,3.888L413.058,145.434z"/>
<path fill="none" stroke="#000000" stroke-width="0.7087" stroke-linecap="round" stroke-linejoin="round" stroke-miterlimit="10" d="
	M413.058,145.434l12.24-2.952l-5.904-22.608l18.288,19.944l13.896-2.952l-19.224-21.024c5.04-2.16,6.12-14.688,3.24-19.152
	c-5.976-9.144-23.328-9-35.352-3.384L413.058,145.434L413.058,145.434z M415.434,110.01l-2.88-10.44
	c5.976-2.448,12.168,0.36,13.032,2.952C426.018,106.338,421.626,108.786,415.434,110.01z"/>
<path stroke="#000000" stroke-width="0.7087" stroke-linecap="round" stroke-linejoin="round" stroke-miterlimit="10" d="
	M528.618,108.714c3.096,14.544-19.872,21.096-34.848,20.808c-10.872-0.216-22.68-16.632-25.416-26.424
	c-7.848-27.72,11.232-68.472,44.568-43.128l-4.68,10.224c-23.4-15.048-32.904,11.88-28.944,28.368
	c1.584,7.488,11.304,18.144,21.24,16.848c10.368-1.368,15.912-5.184,17.64-10.728L528.618,108.714z"/>
<path d="M553.602,115.41c2.304,0.216,4.68,0.072,7.2-0.432c14.112-4.176,20.592-19.224,15.12-33.336
	c-2.592-6.696-10.296-18.432-22.32-20.736v11.448c7.056,1.44,11.016,9.072,12.384,14.184c2.808,10.296,1.008,15.408-9.216,17.568
	c-1.08,0.216-2.16,0.288-3.168,0.288V115.41z M544.746,61.05c-17.784,4.104-17.784,18.36-15.624,28.728
	c2.592,12.024,11.232,24.552,24.48,25.632v-11.016c-6.264-0.36-11.016-5.832-12.744-13.752c-3.672-16.776,6.12-17.352,6.048-17.856
	c2.52-0.72,4.752-0.864,6.696-0.432V60.906C550.866,60.402,547.914,60.402,544.746,61.05z"/>
<path fill="none" stroke="#000000" stroke-width="0.7087" stroke-linecap="round" stroke-linejoin="round" stroke-miterlimit="10" d="
	M544.746,61.05c-17.784,4.104-17.784,18.36-15.624,28.728c3.024,14.112,14.4,28.872,31.68,25.2
	c14.112-4.176,20.592-19.224,15.12-33.336C572.754,73.434,561.81,57.594,544.746,61.05L544.746,61.05z M546.906,72.786
	c11.304-3.528,17.28,7.128,19.08,13.752c2.808,10.296,1.008,15.408-9.216,17.568c-7.776,1.656-13.896-4.248-15.912-13.464
	C537.186,73.866,546.978,73.29,546.906,72.786z"/>
<path d="M596.586,48.954l0.576-0.144l33.48,46.296l-11.88,2.808L605.946,80.49l-9.36,2.304V72.426l4.464-1.224l-4.464-6.912V48.954z
	 M595.218,83.082l0.936,20.52l-10.512,2.52l-2.808-54.072l13.752-3.096V64.29l-1.224-1.944l-3.168,0.072l0.792,10.944l3.6-0.936
	v10.368L595.218,83.082z"/>
<path fill="none" stroke="#000000" stroke-width="0.7087" stroke-linecap="round" stroke-linejoin="round" stroke-miterlimit="10" d="
	M595.218,83.082l0.936,20.52l-10.512,2.52l-2.808-54.072l14.328-3.24l33.48,46.296l-11.88,2.808L605.946,80.49L595.218,83.082
	L595.218,83.082z M592.986,73.362l8.064-2.16l-5.688-8.856l-3.168,0.072L592.986,73.362z"/>
<polygon stroke="#000000" stroke-width="0.7087" stroke-linecap="round" stroke-linejoin="round" stroke-miterlimit="10" points="
	612.426,44.778 615.162,54.354 629.274,51.546 641.082,93.522 651.45,91.29 639.714,49.962 654.834,45.786 651.738,35.634 "/>
<polygon fill="#ED1651" stroke="#000000" stroke-width="0.7087" stroke-linecap="round" stroke-linejoin="round" stroke-miterlimit="10" points="
	45.018,111.082 53.226,73.282 70.794,69.25 89.586,138.37 70.65,142.258 61.362,98.194 54.522,127.57 44.226,129.73 23.634,105.178 
	31.986,151.402 14.49,154.714 3.834,87.61 19.53,83.362 "/>
<path fill="#ED1651" d="M105.354,134.482l3.312-0.576l-3.312-15.624V134.482L105.354,134.482z M105.354,112.306v-11.448
	c3.024-1.728,6.264-4.608,5.472-6.48c-0.36-1.872-2.808-3.456-5.472-3.6v-11.52c17.208-0.36,23.904,19.368,10.368,27.648
	l23.472,18.72l-15.984,4.392L105.354,112.306z M89.946,102.946l7.344,33.048l8.064-1.512v-16.2l-1.656-7.56l1.656,1.584v-11.448
	c-1.152,0.648-2.304,1.152-3.24,1.296l-2.376-8.568c1.296-2.232,3.528-2.952,5.616-2.808v-11.52
	c-5.472,0.072-12.024,2.16-19.296,7.272L89.946,102.946z"/>
<path fill="none" stroke="#000000" stroke-width="0.7087" stroke-linecap="round" stroke-linejoin="round" stroke-miterlimit="10" d="
	M89.946,102.946l7.344,33.048l11.376-2.088l-4.968-23.184l19.512,19.296l15.984-4.392l-23.472-18.72
	c17.784-10.944,0.576-41.616-29.664-20.376L89.946,102.946L89.946,102.946z M102.114,102.154l-2.376-8.568
	c3.024-4.968,10.512-2.592,11.088,0.792C111.906,96.898,105.498,101.506,102.114,102.154z"/>
<path fill="#ED1651" d="M181.314,36.707c25.128-0.576,40.968,22.104,16.344,42.552l29.808,29.088l-17.784,3.744l-28.368-26.064
	V69.898c6.552-2.88,8.424-5.904,9.432-11.304c-0.072-4.464-3.816-8.424-9.432-8.136V36.707L181.314,36.707z M181.314,93.442v24.912
	l5.544-1.08L181.314,93.442z M154.962,45.562c9.072-5.976,18.216-8.64,26.352-8.855v13.751c-2.736,0.144-5.976,1.296-9.432,3.96
	l4.248,17.424c2.016-0.648,3.744-1.296,5.184-1.944v16.128l-2.16-2.016l2.16,9.432v24.912l-9.504,1.8L154.962,45.562z"/>
<path fill="none" stroke="#000000" stroke-width="0.7087" stroke-linecap="round" stroke-linejoin="round" stroke-miterlimit="10" d="
	M154.962,45.562c36.72-24.479,75.384,6.552,42.696,33.696l29.808,29.088l-17.784,3.744l-30.528-28.08l7.704,33.264l-15.048,2.88
	L154.962,45.562L154.962,45.562z M176.13,71.842l-4.248-17.424c10.44-7.992,18.792-2.448,18.864,4.176
	C189.522,65.29,187.002,68.314,176.13,71.842z"/>
<path fill="#ED1651" d="M253.026,82.57l-9.432,2.304V74.218l4.68-1.224l-4.608-8.64h-0.072V51.538l0.36-0.072l33.696,44.928
	l-11.952,2.52L253.026,82.57z M243.594,84.874l-2.376,0.576l1.584,19.656l-11.016,2.736l-1.008-53.136l12.816-3.168v12.816
	l-4.68,1.224l0.504,9.792l4.176-1.152V84.874z"/>
<path fill="none" stroke="#000000" stroke-width="0.7087" stroke-linecap="round" stroke-linejoin="round" stroke-miterlimit="10" d="
	M253.026,82.57l-11.808,2.88l1.584,19.656l-11.016,2.736l-1.008-53.136l13.176-3.24l33.696,44.928l-11.952,2.52L253.026,82.57
	L253.026,82.57z M239.418,75.37l8.856-2.376l-4.608-8.64l-4.752,1.224L239.418,75.37z"/>
<path fill="#ED1651" d="M294.858,92.722c8.928-2.448,17.064-6.768,18.432-13.968c0.072-0.432,0.144-0.936,0.144-1.368v-2.232
	c-0.648-8.28-8.64-13.896-17.928-11.664c8.712-2.88,10.512-8.136,5.112-17.424c-1.296-1.944-3.24-3.672-5.76-4.824v30.816
	c3.384,0.504,6.264,2.16,6.696,3.672c0.864,2.088-2.232,5.616-6.696,7.56V92.722z M286.65,94.378
	c2.664-0.432,5.472-0.936,8.208-1.656V83.29c-1.296,0.576-2.664,1.008-4.104,1.224l-2.664-11.376
	c2.088-1.152,4.536-1.368,6.768-1.08V41.242c-2.304-1.008-5.04-1.512-8.208-1.152v8.208c2.376-0.072,4.752,0.72,5.472,3.24
	c1.224,4.536-2.592,6.768-5.472,7.848V94.378z M283.266,94.738c1.08-0.072,2.232-0.216,3.384-0.36V59.386
	c-1.656,0.576-2.952,0.72-2.88,0.72l-2.808-10.224c1.152-0.792,3.456-1.584,5.688-1.584V40.09
	c-4.392,0.432-9.648,2.448-15.552,6.912L283.266,94.738z"/>
<path fill="none" stroke="#000000" stroke-width="0.7087" stroke-linecap="round" stroke-linejoin="round" stroke-miterlimit="10" d="
	M283.266,94.738c12.096-1.152,28.08-5.616,30.024-15.984c1.728-10.224-7.2-17.784-17.784-15.264
	c8.712-2.88,10.512-8.136,5.112-17.424c-4.032-6.12-14.616-10.368-29.52,0.936L283.266,94.738L283.266,94.738z M283.771,60.106
	l-2.808-10.224c2.448-1.656,9.792-3.24,11.16,1.656C294.066,58.666,283.554,60.178,283.771,60.106L283.771,60.106z M290.754,84.514
	l-2.664-11.376c5.256-3.024,12.816,0.144,13.464,2.592C302.634,78.394,297.09,83.506,290.754,84.514z"/>
<path fill="#ED1651" d="M331.938,83.218c11.88-3.024,17.568-8.064,18.216-13.32v-2.016c0-0.288,0-0.504-0.072-0.72
	c-0.936-7.416-4.176-14.616-16.128-12.456c6.768-2.88,6.552-8.136,4.104-14.4c-1.008-2.088-2.952-4.464-6.12-6.12v28.296
	c4.176,0.144,7.272,1.656,7.776,4.464c1.152,3.384-2.016,5.832-7.776,7.416V83.218z M324.306,84.73
	c2.808-0.432,5.328-0.936,7.632-1.512v-8.856c-1.512,0.432-3.168,0.864-4.968,1.152l-2.664-10.44V84.73L324.306,84.73z
	 M331.938,34.186c-2.016-1.08-4.536-1.8-7.632-2.016v7.848c2.952,0.144,5.256,1.656,5.832,4.32c0.72,3.96-2.448,6.192-5.832,7.416
	v11.88c2.736-0.864,5.328-1.224,7.632-1.152V34.186z M321.138,85.09c1.08-0.072,2.16-0.216,3.168-0.36V65.074l-0.36-1.368
	c0.144,0,0.216-0.072,0.36-0.072v-11.88c-0.936,0.36-1.944,0.648-2.808,0.864l-3.096-11.016c2.016-1.152,4.104-1.584,5.904-1.584
	V32.17c-4.176-0.216-9.36,0.576-15.624,3.168L321.138,85.09z"/>
<path fill="none" stroke="#000000" stroke-width="0.7087" stroke-linecap="round" stroke-linejoin="round" stroke-miterlimit="10" d="
	M321.138,85.09c21.96-2.592,30.528-10.368,28.944-17.928c-0.936-7.416-4.176-14.616-16.128-12.456
	c6.768-2.88,6.552-8.136,4.104-14.4c-2.448-5.256-11.16-12.384-29.376-4.968L321.138,85.09L321.138,85.09z M326.97,75.514
	l-3.024-11.808c7.848-2.448,14.976-1.152,15.768,3.24C341.154,71.194,335.754,74.002,326.97,75.514L326.97,75.514z M321.499,52.618
	l-3.096-11.016c5.328-2.952,10.8-1.512,11.736,2.736C331.074,49.378,325.674,51.682,321.499,52.618z"/>
<polygon fill="#ED1651" stroke="#000000" stroke-width="0.7087" stroke-linecap="round" stroke-linejoin="round" stroke-miterlimit="10" points="
	347.562,27.634 360.234,75.442 370.026,73.354 356.562,25.69 "/>
<polygon fill="#ED1651" stroke="#000000" stroke-width="0.7087" stroke-linecap="round" stroke-linejoin="round" stroke-miterlimit="10" points="
	364.482,23.89 367.002,33.25 379.17,30.73 389.898,68.602 400.986,66.226 389.61,28.354 403.722,25.33 400.914,16.042 "/>
<path fill="#ED1651" stroke="#000000" stroke-width="0.7087" stroke-linecap="round" stroke-linejoin="round" stroke-miterlimit="10" d="
	M404.946,4.306l2.088,7.416l4.968-1.224c0.216,2.735-0.36,5.112-3.168,5.688l1.152,3.744c3.096-3.456,7.272-4.32,5.976-10.296
	l-2.664-6.912L404.946,4.306z"/>
<path fill="#ED1651" stroke="#000000" stroke-width="0.7087" stroke-linecap="round" stroke-linejoin="round" stroke-miterlimit="10" d="
	M423.954,48.37l10.512-1.296c4.68,9.216,14.904,3.744,11.664-4.68c-2.952-5.904-11.232-2.088-19.944-6.84
	c-3.888-2.16-6.048-5.112-7.056-9.864c-0.792-3.815-0.792-9.36,1.944-12.096c3.672-2.88,11.808-5.256,18.216-4.104
	c5.256,1.008,9.072,4.68,10.368,10.44l-10.728,1.872c-0.576-3.96-3.096-5.256-6.84-4.536c-3.888,0.792-4.968,4.104-4.176,6.696
	c3.384,8.28,14.112,5.688,19.296,8.352c10.8,3.816,9.648,17.208,6.48,22.896c-2.592,3.24-8.928,6.048-14.904,5.616
	C430.65,60.178,425.034,53.554,423.954,48.37z"/>
<polygon fill="#D1D3D4" stroke="#000000" stroke-width="0.7087" stroke-linecap="round" stroke-linejoin="round" stroke-miterlimit="10" points="
	224.227,114.826 223.722,188.194 206.154,192.802 188.083,159.106 184.123,198.778 169.074,201.946 140.274,134.842 
	155.538,130.738 171.667,175.738 177.426,137.002 188.227,134.698 208.746,166.162 205.938,119.578 "/>
<polygon fill="#D1D3D4" stroke="#000000" stroke-width="0.7087" stroke-linecap="round" stroke-linejoin="round" stroke-miterlimit="10" points="
	234.522,135.346 245.97,183.226 261.522,179.554 248.49,132.034 "/>
<polygon fill="#D1D3D4" stroke="#000000" stroke-width="0.7087" stroke-linecap="round" stroke-linejoin="round" stroke-miterlimit="10" points="
	271.53,176.026 259.506,128.938 272.61,126.49 297.378,148.666 291.906,121.882 306.234,118.858 316.674,166.81 302.994,169.474 
	274.986,144.274 281.682,173.722 "/>
<polygon fill="#D1D3D4" stroke="#000000" stroke-width="0.7087" stroke-linecap="round" stroke-linejoin="round" stroke-miterlimit="10" points="
	314.01,117.922 316.746,128.506 331.938,125.986 340.866,162.562 352.17,159.97 342.738,123.178 358.938,120.226 355.482,108.202 
	"/>
<polygon fill="#D1D3D4" stroke="#000000" stroke-width="0.7087" stroke-linecap="round" stroke-linejoin="round" stroke-miterlimit="10" points="
	374.13,155.938 361.818,106.474 394.435,99.274 397.17,111.01 375.066,115.402 377.658,125.338 399.187,120.514 401.85,131.674 
	380.106,136.858 382.05,144.706 404.442,140.314 407.25,149.674 "/>
<path fill="#D1D3D4" d="M422.514,146.362l6.192-1.512l-5.832-22.608l18.216,19.944l13.968-2.952l-19.296-21.024
	c5.112-2.16,6.192-14.688,3.312-19.152c-3.168-4.824-9.504-7.056-16.56-7.272v9.288c3.384,0.504,5.976,2.232,6.552,3.816
	c0.36,3.024-2.376,5.184-6.552,6.552V146.362z M416.538,147.802l5.976-1.44v-34.92c-1.08,0.36-2.304,0.72-3.6,0.936l-2.952-10.44
	c2.304-0.936,4.536-1.08,6.552-0.864v-9.288c-6.264-0.216-13.104,1.224-18.792,3.888L416.538,147.802z"/>
<path fill="none" stroke="#000000" stroke-width="0.7087" stroke-linecap="round" stroke-linejoin="round" stroke-miterlimit="10" d="
	M416.538,147.802l12.168-2.952l-5.832-22.608l18.216,19.944l13.968-2.952l-19.296-21.024c5.112-2.16,6.192-14.688,3.312-19.152
	c-5.976-9.144-23.328-9-35.352-3.384L416.538,147.802L416.538,147.802z M418.914,112.378l-2.952-10.44
	c6.048-2.448,12.168,0.36,13.104,2.952C429.499,108.706,425.106,111.154,418.914,112.378z"/>
<path fill="#D1D3D4" stroke="#000000" stroke-width="0.7087" stroke-linecap="round" stroke-linejoin="round" stroke-miterlimit="10" d="
	M532.098,111.082c3.096,14.544-19.944,21.096-34.848,20.808c-10.872-0.216-22.68-16.632-25.416-26.424
	c-7.848-27.72,11.16-68.472,44.568-43.128l-4.68,10.224c-23.4-15.048-32.904,11.88-28.944,28.368
	c1.584,7.488,11.232,18.144,21.24,16.848c10.368-1.368,15.912-5.184,17.64-10.728L532.098,111.082z"/>
<path fill="#D1D3D4" d="M557.083,117.778c2.232,0.216,4.68,0.072,7.2-0.432c14.112-4.176,20.592-19.224,15.12-33.336
	c-2.592-6.696-10.368-18.432-22.32-20.736v11.448c7.056,1.44,11.016,9.072,12.384,14.184c2.808,10.296,0.936,15.408-9.216,17.568
	c-1.08,0.216-2.16,0.288-3.168,0.288V117.778z M548.227,63.418c-17.784,4.104-17.856,18.36-15.624,28.728
	c2.592,12.024,11.232,24.552,24.48,25.632v-11.016c-6.264-0.36-11.016-5.832-12.744-13.752c-3.672-16.776,6.12-17.352,6.048-17.856
	c2.448-0.72,4.68-0.864,6.696-0.432V63.274C554.346,62.77,551.395,62.77,548.227,63.418z"/>
<path fill="none" stroke="#000000" stroke-width="0.7087" stroke-linecap="round" stroke-linejoin="round" stroke-miterlimit="10" d="
	M548.227,63.418c-17.784,4.104-17.856,18.36-15.624,28.728c3.024,14.112,14.4,28.872,31.68,25.2
	c14.112-4.176,20.592-19.224,15.12-33.336C576.234,75.802,565.29,59.962,548.227,63.418L548.227,63.418z M550.386,75.154
	c11.304-3.528,17.28,7.128,19.08,13.752c2.808,10.296,0.936,15.408-9.216,17.568c-7.776,1.656-13.896-4.248-15.912-13.464
	C540.667,76.234,550.458,75.658,550.386,75.154z"/>
<path fill="#D1D3D4" d="M600.066,51.322l0.576-0.144l33.479,46.224l-11.88,2.88l-12.816-17.424l-9.36,2.304V74.794l4.464-1.224
	l-4.464-6.912V51.322z M598.698,85.45l0.864,20.52l-10.512,2.52l-2.736-54.072l13.752-3.096v15.336l-1.296-1.944l-3.168,0.072
	l0.864,10.944l3.6-0.936v10.368L598.698,85.45z"/>
<path fill="none" stroke="#000000" stroke-width="0.7087" stroke-linecap="round" stroke-linejoin="round" stroke-miterlimit="10" d="
	M598.698,85.45l0.864,20.52l-10.512,2.52l-2.736-54.072l14.328-3.24l33.479,46.224l-11.88,2.88l-12.816-17.424L598.698,85.45
	L598.698,85.45z M596.466,75.73l8.064-2.16l-5.76-8.856l-3.168,0.072L596.466,75.73z"/>
<polygon fill="#D1D3D4" stroke="#000000" stroke-width="0.7087" stroke-linecap="round" stroke-linejoin="round" stroke-miterlimit="10" points="
	615.906,47.146 618.57,56.722 632.754,53.914 644.562,95.89 654.93,93.658 643.194,52.33 658.314,48.154 655.146,38.002 "/>
</svg>
